<svg width="35" height="35" viewBox="0 0 35 35" fill="none" xmlns="http://www.w3.org/2000/svg">
<g clip-path="url(#clip0)">
<path d="M29.6099 10.979L27.9666 8.98541C27.741 8.71171 27.6037 8.3806 27.5701 8.02785L27.3223 5.45611C27.1936 4.1199 26.1303 3.0566 24.7941 2.92789L22.2223 2.68036C21.8696 2.64644 21.5385 2.50919 21.2648 2.28382L19.2711 0.640266C18.2353 -0.213422 16.7317 -0.213422 15.6959 0.640266L13.7023 2.28382C13.4288 2.50919 13.0977 2.64644 12.7447 2.68036L10.173 2.92789C8.83676 3.0566 7.77372 4.1199 7.64475 5.45611L7.39721 8.02785C7.3633 8.3806 7.22605 8.71171 7.00068 8.98541L5.35712 10.979C4.50344 12.0148 4.50344 13.5185 5.35712 14.5543L7.00068 16.5479C7.22605 16.8216 7.3633 17.1527 7.39721 17.5055L7.64475 20.0772C7.77346 21.4134 8.83676 22.4764 10.173 22.6054L11.745 22.7568L8.01004 31.6817C7.90884 31.9247 7.9545 32.1981 8.1294 32.3952C8.30431 32.592 8.57 32.67 8.82261 32.5981L12.063 31.6833C12.0771 31.6793 12.0908 31.6854 12.0972 31.6969L13.7199 34.6476C13.8406 34.8673 14.0662 34.9998 14.3146 34.9998C14.3263 34.9998 14.3381 34.9995 14.3501 34.999C14.6126 34.9856 14.8395 34.827 14.9434 34.5824L18.8866 25.159C19.0204 25.0821 19.1491 24.9937 19.2714 24.893L21.265 23.2498C21.5174 23.0415 21.8194 22.9098 22.1417 22.8639L25.7132 31.3978L23.1858 30.6843C22.7051 30.549 22.2018 30.7596 21.9606 31.1968L20.6952 33.4977L19.0185 29.491C18.9077 29.2264 18.6038 29.1019 18.3392 29.2125C18.0748 29.323 17.9501 29.6272 18.061 29.8915L20.0249 34.5851C20.1278 34.827 20.3545 34.9856 20.6172 34.999C20.6292 34.9995 20.641 35 20.6527 35C20.9011 35 21.1267 34.8673 21.2474 34.6476L22.8699 31.6974C22.8765 31.6854 22.8904 31.6798 22.904 31.6833L26.1439 32.5981C26.397 32.6697 26.663 32.592 26.8376 32.3952C27.0125 32.1981 27.0582 31.925 26.9567 31.6812L23.2221 22.7566L24.7941 22.6052C26.1303 22.4764 27.1936 21.4134 27.3223 20.0772L27.5701 17.5052C27.6037 17.1525 27.741 16.8216 27.9666 16.5479L29.6099 14.5543C30.4639 13.5185 30.4639 12.0148 29.6099 10.979ZM14.2721 33.4977L13.0064 31.1962C12.7655 30.7594 12.2617 30.5487 11.7813 30.6843L9.25412 31.3976L12.8254 22.8639C13.1479 22.9098 13.4499 23.0415 13.7023 23.2495L15.6959 24.893C16.2139 25.32 16.8487 25.5334 17.4836 25.5334C17.5245 25.5334 17.5651 25.5323 17.6059 25.5304L14.2721 33.4977ZM28.8091 13.8942L27.1658 15.8878C26.808 16.3215 26.5906 16.8464 26.5367 17.4059L26.2891 19.9776C26.208 20.8203 25.5375 21.4909 24.6947 21.572L22.4357 21.7897C22.4269 21.7902 22.4178 21.791 22.409 21.7923L22.123 21.8198C21.5633 21.8738 21.0383 22.0911 20.6047 22.4487L18.611 24.092C17.9579 24.6306 17.0094 24.6306 16.3563 24.092L14.3626 22.4487C13.929 22.0911 13.404 21.8735 12.8443 21.8198L12.557 21.7921C12.549 21.791 12.5412 21.7905 12.5332 21.7899L10.2726 21.572C9.42983 21.4909 8.75932 20.8203 8.67815 19.9776L8.43061 17.4061C8.37667 16.8464 8.15931 16.3215 7.80149 15.8878L6.15821 13.8942C5.61961 13.2408 5.61961 12.2923 6.15821 11.6391L7.80149 9.6455C8.15931 9.21185 8.37667 8.68688 8.43061 8.12719L8.67815 5.55544C8.75932 4.7127 9.42983 4.0422 10.2726 3.96102L12.8443 3.71349C13.404 3.65955 13.929 3.44219 14.3626 3.08464L16.3563 1.44135C16.6828 1.17218 17.0834 1.03734 17.4836 1.03734C17.8839 1.03734 18.2845 1.17192 18.611 1.44135L20.6047 3.08464C21.0383 3.44219 21.5633 3.65981 22.123 3.71349L24.6947 3.96102C25.5375 4.0422 26.208 4.7127 26.2891 5.55544L26.5367 8.12719C26.5906 8.68688 26.808 9.21185 27.1658 9.6455L28.8091 11.6391C29.3474 12.2925 29.3474 13.2408 28.8091 13.8942Z" fill="#C1A790"/>
<path d="M17.4837 4.65918C17.1371 4.65918 16.7883 4.68108 16.4465 4.72487C16.1624 4.76118 15.9613 5.02127 15.9977 5.30539C16.034 5.58977 16.2943 5.79058 16.5782 5.75453C16.8762 5.71634 17.1809 5.69712 17.4837 5.69712C21.382 5.69712 24.5535 8.8686 24.5535 12.7669C24.5535 16.6653 21.3817 19.8365 17.4837 19.8365C13.5853 19.8365 10.4139 16.665 10.4139 12.7667C10.4139 9.98611 12.0534 7.45336 14.5907 6.31395C14.8521 6.19672 14.9691 5.88938 14.8516 5.62796C14.7341 5.36627 14.4267 5.24958 14.1656 5.36707C11.2558 6.67364 9.37592 9.5781 9.37592 12.7667C9.37592 17.2375 13.0131 20.8744 17.4837 20.8744C21.9542 20.8744 25.5914 17.2375 25.5914 12.7667C25.5914 8.2961 21.9542 4.65918 17.4837 4.65918Z" fill="#C1A790"/>
<path d="M12.3293 12.1656C11.7106 12.7843 11.7106 13.7912 12.3293 14.41L14.5961 16.677C14.896 16.9766 15.2944 17.1417 15.7185 17.1417C16.1422 17.1417 16.5409 16.9766 16.8408 16.677L21.7891 11.7284C22.4078 11.1095 22.4078 10.1028 21.7891 9.4838C21.1704 8.8651 20.1634 8.8651 19.5444 9.4838L15.7185 13.3101L14.5737 12.1656C13.955 11.5469 12.948 11.5469 12.3293 12.1656ZM15.7185 14.5632C15.856 14.5632 15.9879 14.5085 16.0854 14.411L20.2785 10.2179C20.4927 10.0037 20.8409 10.004 21.055 10.2179C21.2692 10.432 21.2692 10.7805 21.055 10.9944L16.1067 15.943C16.0031 16.0466 15.8651 16.1037 15.7185 16.1037C15.5716 16.1037 15.4338 16.0466 15.3302 15.943L13.0631 13.6762C12.8492 13.462 12.8492 13.1135 13.0631 12.8996C13.1702 12.7926 13.3109 12.7389 13.4516 12.7389C13.5921 12.7389 13.7328 12.7926 13.8396 12.8994L15.3513 14.411C15.4488 14.5085 15.5807 14.5632 15.7185 14.5632Z" fill="#C1A790"/>
</g>
<defs>
<clipPath id="clip0">
<rect width="35" height="35" fill="white"/>
</clipPath>
</defs>
</svg>
