<svg width="38" height="35" viewBox="0 0 38 35" fill="none" xmlns="http://www.w3.org/2000/svg">
<path d="M36.0289 18.425L36.0289 18.425L37.2853 26.098C37.5024 26.0924 37.6951 25.9569 37.7738 25.7543L37.8204 25.7724C37.8204 25.7724 37.8204 25.7724 37.8204 25.7724C37.9063 25.551 37.8508 25.2997 37.6797 25.1351L37.645 25.1711L37.6797 25.135C36.5901 24.0872 35.641 22.7581 34.8557 21.1796C35.3819 20.5762 35.8487 19.9215 36.2464 19.2288C36.4083 18.9468 36.3109 18.5869 36.0289 18.425ZM37.1616 26.1492C37.2301 26.1492 37.2726 26.1484 37.2866 26.148L35.2686 18.6673L35.2252 18.6424C35.2252 18.6424 35.2252 18.6424 35.2252 18.6424C34.805 19.3743 34.2994 20.0593 33.7224 20.6781C33.5582 20.8543 33.5178 21.1127 33.6205 21.3307L33.6205 21.3307C34.2567 22.6801 35.0048 23.8742 35.8538 24.8959C34.522 24.7659 32.379 24.4142 30.0219 23.4683L30.0033 23.5147L30.0219 23.4683C29.8843 23.4131 29.7309 23.4118 29.5923 23.4648L29.5923 23.4648C28.634 23.8314 27.6276 24.0616 26.6011 24.149L26.6011 24.149L26.5994 24.1492C25.8272 24.242 25.9221 25.3609 26.6992 25.3225L26.6992 25.3225L26.701 25.3223C27.7602 25.2321 28.8002 25.0045 29.796 24.6452C33.4481 26.0674 36.507 26.1492 37.1616 26.1492Z" fill="#C1A790" stroke="#C1A790" stroke-width="0.1"/>
<path d="M27.9646 2.37015L27.9646 2.37014C27.6466 2.30232 27.4438 1.98957 27.5116 1.67155L27.9646 2.37015ZM27.9646 2.37015L27.9653 2.37029M27.9646 2.37015L27.9653 2.37029M27.9653 2.37029C34.2618 3.61794 38.2467 10.5893 36.1195 16.6498L36.1192 16.6506M27.9653 2.37029L36.1192 16.6506M36.1192 16.6506C36.0164 16.9589 36.183 17.2924 36.4913 17.3953M36.1192 16.6506L36.4913 17.3953M36.4913 17.3953C36.7918 17.4979 37.1338 17.3346 37.2363 17.0232C39.5702 10.2274 35.2412 2.65724 28.21 1.21846C27.8921 1.15052 27.5793 1.35362 27.5116 1.67154L36.4913 17.3953Z" fill="#C1A790" stroke="#C1A790" stroke-width="0.1"/>
<path d="M25.6535 0.95003L25.6535 0.95H25.6518C21.2564 0.95 17.1812 3.32948 15.0164 7.15985C14.8564 7.4429 14.9562 7.80201 15.2392 7.96203C15.5173 8.12066 15.8806 8.02502 16.0416 7.73921C17.9978 4.27783 21.6804 2.12756 25.6519 2.12758L25.6536 2.12753C26.4292 2.10139 26.4326 0.97692 25.6535 0.95003Z" fill="#C1A790" stroke="#C1A790" stroke-width="0.1"/>
<path d="M13.2626 32.6944C13.28 33.0198 13.5621 33.2683 13.8834 33.2493C24.9421 32.644 29.4931 18.5412 20.8882 11.5857C20.6358 11.3805 20.265 11.4188 20.06 11.6708C19.8548 11.9231 19.8928 12.2939 20.1451 12.4991L20.1452 12.4992C27.9227 18.7859 23.8037 31.5282 13.8175 32.0736L13.8174 32.0736C13.4928 32.0918 13.2443 32.3697 13.2626 32.6944ZM13.2626 32.6944C13.2626 32.6944 13.2626 32.6943 13.2626 32.6943L13.3125 32.6917L13.2626 32.6945C13.2626 32.6944 13.2626 32.6944 13.2626 32.6944Z" fill="#C1A790" stroke="#C1A790" stroke-width="0.1"/>
<path d="M9.24807 31.3668L9.23021 31.4135L9.24806 31.3668C9.10944 31.3139 8.95605 31.3151 8.81843 31.3703L8.83704 31.4167L8.81842 31.3703C6.46114 32.3163 4.31802 32.6679 2.98646 32.7979C3.83548 31.7761 4.58367 30.5822 5.21973 29.2327C5.32234 29.015 5.28212 28.7568 5.11819 28.5806C-3.14913 19.3678 7.21235 5.77171 18.2897 11.2773L18.2904 11.2776C18.9924 11.614 19.5119 10.6173 18.8355 10.2339L18.8356 10.2339L18.8332 10.2327C6.76961 4.21838 -4.68457 18.7955 3.9849 29.0811C3.19945 30.6598 2.25037 31.989 1.16065 33.037L1.16064 33.037C0.989504 33.2016 0.934005 33.453 1.01989 33.6744L1.01989 33.6744C1.10585 33.8958 1.31631 34.0439 1.55372 34.05L1.55517 34.05C2.39256 34.0469 5.25559 34.0008 9.04417 32.5471C9.76776 32.8082 10.5185 33.0007 11.2792 33.1202L11.2792 33.1202C11.6004 33.1705 11.9017 32.9511 11.9522 32.63L11.9028 32.6222L11.9522 32.6299C12.0026 32.3089 11.7831 32.0075 11.4619 31.957C10.7062 31.8382 9.96138 31.6396 9.24807 31.3668Z" fill="#C1A790" stroke="#C1A790" stroke-width="0.1"/>
<path d="M20.4869 21.8087C20.8133 21.8256 21.0883 21.575 21.1047 21.2504C21.1211 20.9256 20.871 20.6491 20.5463 20.6327L20.5438 20.6826L20.5463 20.6327C13.2352 20.2641 6.38596 20.629 6.31706 20.6328C5.9924 20.6505 5.74355 20.9281 5.76125 21.2527C5.77818 21.5781 6.05984 21.8272 6.38137 21.8085L6.37848 21.7586L6.38123 21.8085C6.44843 21.8048 13.2396 21.4433 20.4869 21.8087ZM20.4869 21.8087L20.4895 21.7588L20.487 21.8087C20.487 21.8087 20.4869 21.8087 20.4869 21.8087Z" fill="#C1A790" stroke="#C1A790" stroke-width="0.1"/>
<path d="M12.2939 17.2392L12.2939 17.2392C15.2017 17.2165 17.9784 17.2706 20.5462 17.4L20.5437 17.4499L20.5462 17.4C20.8709 17.4164 21.1209 17.6929 21.1045 18.0175C21.1045 18.0176 21.1045 18.0176 21.1045 18.0177L21.0546 18.0151C21.0403 18.3128 20.7837 18.5418 20.4894 18.5261L12.2939 17.2392ZM12.2939 17.2392L12.2922 17.2393C12.1009 17.2471 11.9546 17.3228 11.8567 17.4349C11.7595 17.5463 11.7125 17.6909 11.7137 17.8337C11.7149 17.9766 11.7643 18.1203 11.8633 18.2297C11.963 18.34 12.1105 18.4127 12.3016 18.4167L12.3016 18.4167L12.303 18.4167C15.1887 18.3943 17.942 18.4477 20.4868 18.576L12.2939 17.2392Z" fill="#C1A790" stroke="#C1A790" stroke-width="0.1"/>
<path d="M9.12855 18.4726L9.12855 18.4726C7.43925 18.5188 6.39132 18.5755 6.3813 18.576L6.37855 18.5261L6.3814 18.576C6.37019 18.5767 6.3593 18.5769 6.34867 18.5769C6.03815 18.5769 5.77837 18.334 5.76126 18.0202L9.12855 18.4726ZM9.12855 18.4726L9.13031 18.4725M9.12855 18.4726L9.13031 18.4725M9.13031 18.4725C9.90884 18.4237 9.87377 17.3021 9.09815 17.2954L9.09636 17.2955M9.13031 18.4725L9.09636 17.2955M9.09636 17.2955C7.39404 17.342 6.33116 17.3995 6.31714 17.4003L6.31709 17.4003L6.31706 17.4003M9.09636 17.2955L6.31706 17.4003M6.31706 17.4003C5.99238 17.418 5.74352 17.6956 5.76125 18.0202L6.31706 17.4003Z" fill="#C1A790" stroke="#C1A790" stroke-width="0.1"/>
<path d="M18.2292 24.949L18.229 24.949C11.8948 24.7468 6.4348 25.0384 6.38087 25.0413L6.37817 24.9914L6.38106 25.0413C6.05954 25.0599 5.77787 24.8109 5.76095 24.4854M18.2292 24.949L6.31674 23.8656C5.99209 23.8833 5.74324 24.1608 5.76095 24.4854M18.2292 24.949C18.5552 24.9579 18.8258 24.7044 18.8362 24.3793M18.2292 24.949L18.8362 24.3793M5.76095 24.4854C5.76095 24.4854 5.76094 24.4854 5.76094 24.4854L5.81088 24.4828L5.76095 24.4855C5.76095 24.4855 5.76095 24.4855 5.76095 24.4854ZM18.8362 24.3793C18.8466 24.0543 18.5915 23.7823 18.2665 23.7721M18.8362 24.3793L18.2665 23.7721M18.2665 23.7721C11.8801 23.5683 6.37318 23.8625 6.31675 23.8656L18.2665 23.7721Z" fill="#C1A790" stroke="#C1A790" stroke-width="0.1"/>
</svg>
