<svg width="33" height="35" viewBox="0 0 33 35" fill="none" xmlns="http://www.w3.org/2000/svg">
<path d="M32.6141 7.72266L16.7227 0.0509619C16.5818 -0.0169873 16.4177 -0.0169873 16.2769 0.0509619L0.385479 7.72266C0.208291 7.80818 0.0957031 7.98762 0.0957031 8.18436V26.8156C0.0957031 27.0124 0.208291 27.1918 0.385479 27.2773L16.2768 34.949C16.3473 34.983 16.4235 35 16.4998 35C16.576 35 16.6522 34.983 16.7227 34.949L32.6141 27.2773C32.7912 27.1918 32.9038 27.0124 32.9038 26.8156V8.18443C32.9038 7.98755 32.7912 7.80825 32.6141 7.72266ZM16.4998 1.08203L31.2119 8.18436L26.9471 10.2432C26.9201 10.2226 26.8916 10.2036 26.8603 10.1885L12.2482 3.13452L16.4998 1.08203ZM11.0903 3.7142L25.781 10.8062L22.7722 12.2588L8.08753 5.16964L11.0903 3.7142ZM26.1247 11.7788V17.1482L23.3142 18.505V13.1356L26.1247 11.7788ZM31.8784 26.4939L17.0125 33.6704V16.1778L20.5585 14.466C20.8134 14.3429 20.9204 14.0364 20.7972 13.7814C20.6741 13.5264 20.3677 13.4194 20.1126 13.5426L16.4998 15.2868L15.0782 14.6004C14.8231 14.4772 14.5167 14.5842 14.3935 14.8392C14.2704 15.0942 14.3773 15.4007 14.6323 15.5238L15.9871 16.1778V33.6704L1.12109 26.4938V9.00119L12.4414 14.4662C12.5133 14.5009 12.5892 14.5173 12.6639 14.5173C12.8545 14.5173 13.0376 14.4105 13.126 14.2274C13.2491 13.9724 13.1422 13.6659 12.8872 13.5428L1.78767 8.18436L6.88078 5.72561L22.2817 13.1606C22.284 13.1637 22.2865 13.1665 22.2888 13.1696V19.3219C22.2888 19.4983 22.3796 19.6623 22.529 19.7562C22.612 19.8083 22.7067 19.8346 22.8016 19.8346C22.8776 19.8346 22.9538 19.8177 23.0245 19.7836L26.8603 17.9318C27.0375 17.8463 27.1501 17.6669 27.1501 17.4701V11.2839L31.8784 9.00126V26.4939Z" fill="#C1A790"/>
</svg>
