<svg width="35" height="35" viewBox="0 0 35 35" fill="none" xmlns="http://www.w3.org/2000/svg">
<g clip-path="url(#clip0)">
<path d="M2.64145 19.0502C2.12662 18.5354 2.12662 17.6977 2.64145 17.1831L15.2049 4.61967C15.4052 4.4194 15.4052 4.09469 15.2049 3.89469C15.0046 3.69415 14.6799 3.69442 14.4799 3.89469L1.9162 16.4582C1.00189 17.3725 1.00189 18.8606 1.9162 19.7752L5.08077 22.9395C5.18063 23.0394 5.31201 23.0896 5.44312 23.0896C5.5745 23.0896 5.70561 23.0396 5.80575 22.9395C6.00602 22.7392 6.00602 22.4145 5.80575 22.2145L2.64145 19.0502Z" fill="#C1A790"/>
<path d="M12.72 10.1419L4.96173 17.9002C4.76146 18.1005 4.76146 18.4252 4.96173 18.6255C5.06186 18.7253 5.19297 18.7755 5.32435 18.7755C5.45546 18.7755 5.58658 18.7256 5.68671 18.6255L13.445 10.8672C13.6453 10.6669 13.6453 10.3422 13.445 10.1419C13.245 9.94194 12.9203 9.94194 12.72 10.1419Z" fill="#C1A790"/>
<path d="M17.412 9.32221C17.9434 9.32221 18.4748 9.12007 18.8793 8.71552L20.4313 7.16354C21.2404 6.35445 21.2404 5.03799 20.4313 4.22889C19.6222 3.4198 18.3057 3.4198 17.4966 4.22889L15.9447 5.78087C15.5527 6.17287 15.3369 6.69384 15.3369 7.24819C15.3369 7.80228 15.5527 8.32352 15.9447 8.71552C16.3492 9.12007 16.8806 9.32221 17.412 9.32221ZM16.6697 6.50585L18.2216 4.95388C18.631 4.54452 19.297 4.54452 19.706 4.95388C20.1154 5.36323 20.1154 6.0292 19.706 6.43829L18.1541 7.99027C17.745 8.39962 17.079 8.39962 16.6697 7.99027C16.4715 7.79213 16.3623 7.52857 16.3623 7.24819C16.3623 6.96781 16.4715 6.70399 16.6697 6.50585Z" fill="#C1A790"/>
<path d="M31.5261 17.0592H26.5909L30.3934 13.2567C31.3079 12.3421 31.3079 10.8539 30.3934 9.93937L21.0724 0.618707C20.6294 0.175705 20.0404 -0.0683594 19.4139 -0.0683594C18.7875 -0.0683594 18.1984 0.175705 17.7551 0.618707L15.9287 2.44519C15.7286 2.64546 15.7286 2.9699 15.9287 3.17017C16.1289 3.37044 16.4536 3.37044 16.6536 3.17017L18.4804 1.34369C18.7295 1.09429 19.0612 0.957033 19.4139 0.957033C19.7664 0.957033 20.0981 1.09429 20.3475 1.34369L29.6681 10.6644C30.1829 11.1792 30.1829 12.0166 29.6681 12.5314L25.1406 17.0589H12.1841L15.9108 13.3322C16.111 13.1322 16.111 12.8075 15.9108 12.6073C15.7105 12.407 15.3858 12.407 15.1858 12.6073L10.7341 17.0592H9.12635C7.83286 17.0592 6.78076 18.1113 6.78076 19.4045V32.5861C6.78076 33.8793 7.83286 34.9317 9.12635 34.9317H31.5261C32.8196 34.9317 33.8717 33.8793 33.8717 32.5861V30.6913C33.8717 30.408 33.6423 30.1786 33.359 30.1786C33.0759 30.1786 32.8463 30.408 32.8463 30.6913V32.5861C32.8463 33.314 32.2543 33.9063 31.5261 33.9063H9.12635C8.39843 33.9063 7.80615 33.314 7.80615 32.5861V25.3921H32.8463V28.6405C32.8463 28.9235 33.0757 29.1532 33.359 29.1532C33.6423 29.1532 33.8717 28.9235 33.8717 28.6405V19.4048C33.8717 18.1113 32.8196 17.0592 31.5261 17.0592ZM9.12635 18.0846H31.5261C32.254 18.0846 32.8463 18.6768 32.8463 19.4048V21.2003H7.80615V19.4048C7.80615 18.6768 8.39843 18.0846 9.12635 18.0846ZM7.80615 24.3667V22.2257H32.8463V24.3667H7.80615Z" fill="#C1A790"/>
<path d="M27.2261 29.1533C26.7927 29.1533 26.4399 29.5061 26.4399 29.9395V31.8925C26.4399 32.3262 26.7927 32.6786 27.2261 32.6786H30.3327C30.7661 32.6786 31.1188 32.3262 31.1188 31.8925V29.9395C31.1188 29.5061 30.7661 29.1533 30.3327 29.1533H27.2261ZM30.0934 31.6533H27.4653V30.1787H30.0934V31.6533Z" fill="#C1A790"/>
<path d="M17.8599 29.1533C17.4265 29.1533 17.0737 29.5061 17.0737 29.9395V31.8925C17.0737 32.3262 17.4265 32.6786 17.8599 32.6786H24.4306C24.864 32.6786 25.2168 32.3262 25.2168 31.8925V29.9395C25.2168 29.5061 24.864 29.1533 24.4306 29.1533H17.8599ZM24.1914 31.6533H18.0991V30.1787H24.1914V31.6533Z" fill="#C1A790"/>
<path d="M11.6343 31.6531C11.3512 31.6531 11.1216 31.8827 11.1216 32.1658C11.1216 32.4491 11.3512 32.6785 11.6343 32.6785H14.9081C15.1911 32.6785 15.4208 32.4491 15.4208 32.1658C15.4208 31.8827 15.1911 31.6531 14.9081 31.6531H11.6343Z" fill="#C1A790"/>
</g>
<defs>
<clipPath id="clip0">
<rect width="35" height="35" fill="white"/>
</clipPath>
</defs>
</svg>
