<svg width="12" height="22" viewBox="0 0 12 22" fill="none" xmlns="http://www.w3.org/2000/svg">
<path d="M6.00017 0C2.94737 0 0.449219 2.48372 0.449219 5.5366V17.9573C0.449219 20.1865 2.26997 22 4.49914 22C6.72832 22 8.54907 20.1865 8.54907 17.9573V7.10813C8.54907 5.70267 7.40563 4.55923 6.00017 4.55923C4.59471 4.55923 3.45127 5.70267 3.45127 7.10813V16.5005C3.45127 16.9697 3.83167 17.3501 4.30089 17.3501C4.7701 17.3501 5.15051 16.9697 5.15051 16.5005V7.10813C5.15051 6.63965 5.53164 6.25852 6.00013 6.25852C6.46861 6.25852 6.84975 6.63965 6.84975 7.10813V17.9573C6.84975 19.2495 5.79125 20.3008 4.4991 20.3008C3.20695 20.3008 2.14846 19.2495 2.14846 17.9573V5.5366C2.14846 3.42074 3.88426 1.69928 6.00017 1.69928C8.11607 1.69928 9.85188 3.42069 9.85188 5.5366V17.1619C9.85188 17.6311 10.2323 18.0115 10.7015 18.0115C11.1707 18.0115 11.5511 17.6311 11.5511 17.1619V5.5366C11.5511 2.48372 9.05301 0 6.00017 0Z" fill="#B4B4B4"/>
</svg>
