<svg width="19" height="18" viewBox="0 0 19 18" fill="none" xmlns="http://www.w3.org/2000/svg">
<path d="M18.3296 6.90283C18.2099 6.53491 17.8836 6.27443 17.4991 6.23963L12.254 5.76345L10.1811 0.9104C10.028 0.553851 9.6798 0.32373 9.2922 0.32373C8.9046 0.32373 8.55623 0.553851 8.40416 0.9104L6.33127 5.76345L1.08535 6.23963C0.700798 6.27512 0.375164 6.5356 0.254835 6.90283C0.1352 7.27074 0.245686 7.67428 0.536525 7.92936L4.50139 11.406L3.33235 16.5549C3.24682 16.9335 3.39376 17.3249 3.70789 17.552C3.87674 17.6747 4.07512 17.736 4.27418 17.736C4.44525 17.736 4.61645 17.6905 4.76936 17.599L9.2922 14.8947L13.8142 17.599C14.1459 17.7972 14.5631 17.7791 14.8765 17.552C15.1906 17.3249 15.3376 16.9335 15.252 16.5549L14.083 11.406L18.0479 7.92936C18.3386 7.67428 18.4492 7.27157 18.3296 6.90283Z" fill="#C1A790"/>
</svg>
