<svg width="19" height="18" viewBox="0 0 19 18" fill="none" xmlns="http://www.w3.org/2000/svg">
<path d="M18.9526 6.90283C18.833 6.53491 18.5066 6.27443 18.1221 6.23963L12.877 5.76345L10.8041 0.9104C10.6511 0.553851 10.3028 0.32373 9.91525 0.32373C9.52765 0.32373 9.17928 0.553851 9.0272 0.9104L6.95431 5.76345L1.7084 6.23963C1.32384 6.27512 0.99821 6.5356 0.877882 6.90283C0.758247 7.27074 0.868733 7.67428 1.15957 7.92936L5.12444 11.406L3.9554 16.5549C3.86987 16.9335 4.01681 17.3249 4.33094 17.552C4.49979 17.6747 4.69816 17.736 4.89723 17.736C5.0683 17.736 5.2395 17.6905 5.39241 17.599L9.91525 14.8947L14.4373 17.599C14.769 17.7972 15.1861 17.7791 15.4996 17.552C15.8137 17.3249 15.9606 16.9335 15.8751 16.5549L14.7061 11.406L18.6709 7.92936C18.9616 7.67428 19.0722 7.27157 18.9526 6.90283Z" fill="#CDCDCD"/>
</svg>
