<svg width="51" height="51" viewBox="0 0 51 51" fill="none" xmlns="http://www.w3.org/2000/svg">
<circle cx="25.2941" cy="25.2968" r="25.2941" fill="black"/>
<path d="M37.5468 20.9518C37.076 20.4807 36.3277 20.4511 35.8216 20.8634C35.7484 20.9231 35.8051 20.8705 34.6908 21.9848L37.5833 24.8774L38.6228 23.8508C39.1254 23.3482 39.1254 22.5304 38.6228 22.0278L37.5468 20.9518Z" fill="white"/>
<path d="M28.7591 27.9712L27.0576 31.6172C26.943 31.8629 26.9942 32.1539 27.1859 32.3456C27.3775 32.5372 27.6687 32.5885 27.9142 32.4739L31.5603 30.7723C31.7045 30.705 31.2678 31.1137 36.6659 25.7831L33.7791 22.8963C28.427 28.2484 28.8277 27.8241 28.7591 27.9712Z" fill="white"/>
<path d="M32.647 31.5644C32.4892 31.7202 32.3072 31.8468 32.1063 31.9406L28.4602 33.6421C27.7432 33.9767 26.8673 33.8493 26.2753 33.2572C25.7025 32.6844 25.5478 31.8063 25.8903 31.0722L27.5918 27.426C27.6874 27.2213 27.8169 27.0364 27.9767 26.8766L33.4581 21.3952V15.9336C33.4581 14.8674 32.5907 14 31.5245 14H18.9347C17.8685 14 17.0011 14.8674 17.0011 15.9336V34.0664C17.0011 35.1326 17.8685 36 18.9347 36H31.5245C32.5907 36 33.4581 35.1326 33.4581 34.0664V30.7634L32.647 31.5644ZM20.4386 18.168H30.0636C30.4196 18.168 30.7081 18.4565 30.7081 18.8125C30.7081 19.1685 30.4196 19.457 30.0636 19.457H20.4386C20.0827 19.457 19.7941 19.1685 19.7941 18.8125C19.7941 18.4565 20.0827 18.168 20.4386 18.168ZM20.4386 21.6055H28.0011C28.3571 21.6055 28.6456 21.894 28.6456 22.25C28.6456 22.606 28.3571 22.8945 28.0011 22.8945H20.4386C20.0827 22.8945 19.7941 22.606 19.7941 22.25C19.7941 21.894 20.0827 21.6055 20.4386 21.6055ZM19.7941 25.6875C19.7941 25.3315 20.0827 25.043 20.4386 25.043H25.9386C26.2946 25.043 26.5831 25.3315 26.5831 25.6875C26.5831 26.0435 26.2946 26.332 25.9386 26.332H20.4386C20.0827 26.332 19.7941 26.0435 19.7941 25.6875Z" fill="white"/>
</svg>
