<svg width="51" height="52" viewBox="0 0 51 52" fill="none" xmlns="http://www.w3.org/2000/svg">
<circle cx="25.2941" cy="26.1342" r="25.2941" fill="black"/>
<g clip-path="url(#clip0)">
<path d="M35.6673 21.5847H31.9881V16.6792H14.8188C13.4636 16.6792 12.366 17.7767 12.366 19.1319V32.6222H14.8188C14.8188 34.6518 16.4683 36.3013 18.498 36.3013C20.5276 36.3013 22.1771 34.6518 22.1771 32.6222H29.5354C29.5354 34.6518 31.1849 36.3013 33.2145 36.3013C35.2442 36.3013 36.8937 34.6518 36.8937 32.6222H39.3465V26.4902L35.6673 21.5847ZM18.498 34.4617C17.48 34.4617 16.6584 33.64 16.6584 32.6221C16.6584 31.6042 17.48 30.7825 18.498 30.7825C19.5159 30.7825 20.3375 31.6042 20.3375 32.6221C20.3375 33.64 19.5158 34.4617 18.498 34.4617ZM33.2145 34.4617C32.1966 34.4617 31.375 33.64 31.375 32.6221C31.375 31.6042 32.1966 30.7825 33.2145 30.7825C34.2325 30.7825 35.0541 31.6042 35.0541 32.6221C35.0541 33.64 34.2324 34.4617 33.2145 34.4617ZM31.9881 26.4902V23.4243H35.0541L37.4639 26.4902H31.9881Z" fill="white"/>
</g>
<defs>
<clipPath id="clip0">
<rect width="26.9804" height="26.9804" fill="white" transform="translate(12.366 13)"/>
</clipPath>
</defs>
</svg>
