<svg width="51" height="52" viewBox="0 0 51 52" fill="none" xmlns="http://www.w3.org/2000/svg">
<circle cx="25.2941" cy="26.0528" r="25.2941" fill="black"/>
<g clip-path="url(#clip0)">
<path d="M18.7168 27.8938C21.0727 27.0851 23.0211 27.7645 24.073 28.3198H29.562C30.5817 28.3198 31.4722 28.8886 31.9427 29.7293L33.6222 28.5332V14.282H27.9228V23.5258H22.3868V14.282H16.6876V29.0692C17.203 28.6146 17.8689 28.1849 18.7168 27.8938Z" fill="white"/>
<path d="M23.9684 14.282H26.3413V21.9443H23.9684V14.282Z" fill="white"/>
<path d="M37.8569 29.8756C37.5518 29.4473 37.0983 29.1635 36.5798 29.0763C36.0612 28.989 35.5399 29.1091 35.1117 29.4142L32.2769 31.4331C32.111 32.8028 30.9574 33.8671 29.5623 33.8671H26.1592V32.2856H29.5623C30.1988 32.2856 30.7166 31.7507 30.7166 31.0934C30.7166 30.4361 30.1988 29.9013 29.5623 29.9013H23.6615L23.6603 29.9015C22.7773 29.2985 21.1481 28.7315 19.2306 29.3897C17.5543 29.9652 16.8505 31.2583 16.6726 31.6456V38.9598H28.4722L37.3962 32.6202C37.8236 32.3158 38.1075 31.8622 38.1947 31.3438C38.2819 30.8252 38.1619 30.3038 37.8569 29.8756Z" fill="white"/>
<path d="M11.2418 30.2232H15.0908V38.9598H11.2418V30.2232Z" fill="white"/>
</g>
<defs>
<clipPath id="clip0">
<rect width="26.9804" height="26.9804" fill="white" transform="translate(11.2418 13.1307)"/>
</clipPath>
</defs>
</svg>
