<svg width="34" height="34" viewBox="0 0 34 34" fill="none" xmlns="http://www.w3.org/2000/svg">
<rect width="34" height="34" rx="3" fill="black"/>
<g clip-path="url(#clip0)">
<path d="M22.5662 17.1898C22.3459 16.6838 22.222 16.115 22.222 15.5161C22.222 15.2621 22.2445 15.0174 22.2871 14.7815C22.4686 13.7611 23.0242 12.9182 23.7902 12.3718C23.9279 12.2749 24.0718 12.1872 24.2207 12.1096C23.1869 10.4785 21.5024 10.339 20.9729 10.2833C19.8214 10.1632 18.1982 11.1813 17.317 11.1813H17.2932C16.4121 11.1813 14.7888 10.1632 13.6374 10.2833C13.0642 10.3421 11.2318 10.6669 10.1267 12.4275C9.73868 13.0452 9.43961 13.8055 9.31696 14.809C9.27308 15.1707 9.25184 15.5487 9.25682 15.9679C9.26183 16.3891 9.29564 16.7949 9.35317 17.1967C9.47711 18.0546 9.70993 18.8613 10.0103 19.6025C10.3444 20.4248 10.7625 21.1626 11.2068 21.7906C12.1894 23.1817 13.302 23.9849 13.9302 23.9993C15.2194 24.0281 16.3395 23.1561 17.2645 23.1786C17.2745 23.1818 17.2845 23.1818 17.2932 23.1812L17.3057 23.1799L17.317 23.1812C17.3258 23.1818 17.3358 23.1812 17.3446 23.178C18.2695 23.1543 19.3909 24.0269 20.6826 23.9981C21.3083 23.9838 22.4223 23.1799 23.4048 21.7888C23.849 21.1608 24.2671 20.4217 24.5987 19.5989C24.6488 19.4762 24.6964 19.3517 24.7439 19.2252C23.7827 18.9251 22.9917 18.1729 22.5662 17.1898Z" fill="white"/>
<path d="M19.5699 8.94626C20.5612 7.77352 20.5224 6.08543 20.4323 6.01099C20.3434 5.93527 18.7064 6.23623 17.6913 7.36926C16.6763 8.50382 16.7389 10.2301 16.829 10.3051C16.9179 10.3802 18.58 10.1186 19.5699 8.94626Z" fill="white"/>
</g>
<defs>
<clipPath id="clip0">
<rect width="18" height="18" fill="white" transform="translate(8 6)"/>
</clipPath>
</defs>
</svg>
