<svg width="34" height="34" viewBox="0 0 34 34" fill="none" xmlns="http://www.w3.org/2000/svg">
<rect width="34" height="34" rx="3" fill="black"/>
<g clip-path="url(#clip0)">
<path d="M11.9936 14.7873L8.92788 13.0173C8.3355 14.2144 8.00004 15.5645 8 16.9999C8 18.4154 8.33908 19.7678 8.94057 20.9755L11.9934 19.2129C11.6923 18.5349 11.5217 17.7871 11.5217 16.9999C11.5218 16.2127 11.6925 15.4651 11.9936 14.7873Z" fill="white"/>
<path d="M22.9035 10.2067C21.3219 8.83088 19.255 7.99849 16.9937 8C13.8999 8.00208 11.1385 9.58151 9.51611 12.0016L12.5844 13.7732C13.5821 12.4121 15.1873 11.5217 17 11.5217C18.3215 11.5218 19.5328 11.9941 20.4789 12.7769C20.7105 12.9684 21.049 12.9509 21.2616 12.7384L22.9326 11.0673C23.1735 10.8264 23.1606 10.4303 22.9035 10.2067Z" fill="white"/>
<path d="M25.9384 15.9587C25.9034 15.6607 25.6529 15.4352 25.3529 15.4352L17.9783 15.4348C17.6542 15.4348 17.3914 15.6976 17.3914 16.0218V18.3677C17.3914 18.6918 17.6541 18.9546 17.9783 18.9546H22.1109C21.7302 19.9453 21.0691 20.7969 20.2274 21.416L21.9827 24.4563C23.7495 23.259 25.0928 21.4487 25.6845 19.3118C26.0062 18.1499 26.0641 17.0264 25.9384 15.9587Z" fill="white"/>
<path d="M19.2124 22.0055C18.5354 22.3071 17.7881 22.4781 17.0001 22.4782C15.1853 22.4782 13.5811 21.5878 12.584 20.2273L9.52881 21.9912C11.1376 24.3875 13.8681 25.9999 17 25.9999C18.4158 25.9999 19.7634 25.6538 20.9688 25.0477L19.2124 22.0055Z" fill="white"/>
</g>
<defs>
<clipPath id="clip0">
<rect width="18" height="18" fill="white" transform="translate(8 8)"/>
</clipPath>
</defs>
</svg>
