<svg width="34" height="34" viewBox="0 0 34 34" fill="none" xmlns="http://www.w3.org/2000/svg">
<rect width="34" height="34" rx="3" fill="black"/>
<path d="M17 8C12.0375 8 8 12.0375 8 17C8 21.9625 12.0375 26 17 26C18.5826 26 20.1388 25.5836 21.5011 24.7954L20.375 22.8475C19.3544 23.438 18.1871 23.75 17 23.75C13.2778 23.75 10.25 20.7222 10.25 17C10.25 13.2778 13.2778 10.25 17 10.25C20.7222 10.25 23.75 13.2778 23.75 17V17.98C23.75 18.7161 23.2771 19.25 22.625 19.25C22.0048 19.25 21.5 18.7452 21.5 18.125V13.625H19.9448C19.1534 12.9336 18.1309 12.5 17 12.5C14.5187 12.5 12.5 14.5187 12.5 17C12.5 19.4813 14.5187 21.5 17 21.5C18.1816 21.5 19.2499 21.0328 20.0537 20.2852C20.6732 21.0215 21.5896 21.5 22.625 21.5C24.5174 21.5 26 19.9537 26 17.98V17C26 12.0375 21.9625 8 17 8V8ZM17 19.25C15.7591 19.25 14.75 18.2409 14.75 17C14.75 15.7591 15.7591 14.75 17 14.75C18.2409 14.75 19.25 15.7591 19.25 17C19.25 18.2409 18.2409 19.25 17 19.25Z" fill="white"/>
</svg>
