<svg width="12" height="12" viewBox="0 0 12 12" fill="none" xmlns="http://www.w3.org/2000/svg">
<path d="M7.32213 6L11.8091 1.51288C11.9325 1.38936 12.0006 1.22457 12.0008 1.04885C12.0008 0.873032 11.9327 0.708046 11.8091 0.584721L11.4159 0.191622C11.2922 0.0678093 11.1275 0 10.9515 0C10.7759 0 10.6111 0.0678093 10.4875 0.191622L6.00059 4.67845L1.51346 0.191622C1.39004 0.0678093 1.22515 0 1.04934 0C0.873715 0 0.708827 0.0678093 0.585404 0.191622L0.192012 0.584721C-0.0640042 0.840738 -0.0640042 1.25715 0.192012 1.51288L4.67904 6L0.192012 10.4869C0.0684923 10.6106 0.000487837 10.7754 0.000487837 10.9512C0.000487837 11.1269 0.0684923 11.2917 0.192012 11.4153L0.585306 11.8084C0.708729 11.9321 0.873715 12 1.04924 12C1.22506 12 1.38994 11.9321 1.51337 11.8084L6.00049 7.32145L10.4874 11.8084C10.611 11.9321 10.7758 12 10.9514 12H10.9516C11.1274 12 11.2921 11.9321 11.4158 11.8084L11.809 11.4153C11.9324 11.2918 12.0005 11.1269 12.0005 10.9512C12.0005 10.7754 11.9324 10.6106 11.809 10.487L7.32213 6Z" fill="#A5A5A5"/>
</svg>
