<svg width="16" height="20" viewBox="0 0 16 20" fill="none" xmlns="http://www.w3.org/2000/svg">
<path d="M8.2523 0.00412275C4.19071 -0.132755 0.855255 3.11894 0.855255 7.14961C0.855255 11.724 5.24508 15.0437 7.70557 19.818C7.83049 20.0604 8.17944 20.0607 8.30479 19.8183C10.5307 15.5225 14.335 12.6419 15.04 8.50328C15.77 4.22066 12.5942 0.150502 8.2523 0.00412275ZM8.00483 10.8946C5.93656 10.8946 4.25983 9.21784 4.25983 7.14961C4.25983 5.08137 5.93659 3.40461 8.00483 3.40461C10.0731 3.40461 11.7499 5.08137 11.7499 7.14961C11.7499 9.21784 10.0731 10.8946 8.00483 10.8946Z" fill="black"/>
</svg>
