<svg width="8" height="6" viewBox="0 0 8 6" fill="none" xmlns="http://www.w3.org/2000/svg">
<path d="M4.31216 5.2973L7.8722 1.73719C7.9546 1.65485 8 1.54494 8 1.42773C8 1.31053 7.9546 1.20061 7.8722 1.11827L7.61008 0.856097C7.43929 0.685496 7.1617 0.685496 6.99116 0.856097L4.00166 3.8456L1.00884 0.852779C0.926432 0.770439 0.816579 0.724976 0.699441 0.724976C0.582174 0.724976 0.472322 0.770439 0.389851 0.852779L0.127804 1.11496C0.0453982 1.19736 4.76837e-07 1.30721 4.76837e-07 1.42442C4.76837e-07 1.54162 0.0453982 1.65154 0.127804 1.73388L3.69109 5.2973C3.77376 5.37983 3.88413 5.42516 4.00146 5.4249C4.11925 5.42516 4.22956 5.37983 4.31216 5.2973Z" fill="#929292"/>
</svg>
