<svg width="251" height="177" viewBox="0 0 251 177" fill="none" xmlns="http://www.w3.org/2000/svg">
<path d="M90.0467 36.4297C96.9903 46.656 87.1645 64.8281 75.7351 73.7901C62.7675 83.9586 40.0392 88.3048 31.5955 77.5563C24.8438 68.9615 28.0359 51.746 36.1151 47.2762C42.1512 43.9367 47.2548 49.7368 54.7957 46.071C62.8597 42.1509 61.2157 33.4792 68.6552 30.1025C75.4744 27.0067 85.8299 30.2193 90.0467 36.4297Z" fill="#D3B8B3" fill-opacity="0.24"/>
<path d="M250.486 176.682L16.3793 176.531C-0.411782 127.172 5.35714 106.923 14.8731 97.8936C29.3207 84.1838 49.2731 99.3079 76.6384 85.6911C108.325 69.9244 101.271 39.8482 130.872 24.6798C160.439 9.52865 206.445 19.5691 217.645 42.1549C228.945 64.9427 199.88 90.5506 214.782 113.712C222.693 126.007 234.637 124.628 244.008 140.377C251.47 152.918 251.608 166.756 250.486 176.682Z" fill="#D3B8B3" fill-opacity="0.24"/>
<path d="M190.076 73.79H86.9348V176.682H190.076V73.79Z" fill="black"/>
<path d="M171.193 73.79H68.052V176.682H171.193V125.236V73.79Z" fill="#EED4C5"/>
<path d="M129.366 73.79H105.111V176.682H129.366V73.79Z" fill="black"/>
<path d="M185.146 28.939L83.3215 40.1571L85.6476 61.2706L187.472 50.0525L185.146 28.939Z" fill="black"/>
<path d="M146.355 0C146.355 0 166.682 24.5517 140.477 38.5116L133.183 39.3151C133.183 39.3151 157.063 24.7772 129.061 1.90441L146.355 0Z" fill="black"/>
<path d="M122.623 38.575L131.673 37.5781C131.673 37.5781 126.192 9.36661 146.355 0.000976562L129.061 1.906C129.061 1.906 115.381 11.7482 122.623 38.575Z" fill="#EED4C5"/>
<path d="M91.0249 4.90494C91.0249 4.90494 76.5299 33.2928 105.146 41.2132L112.44 40.4097C112.44 40.4097 85.9681 31.4189 108.319 2.99915L91.0249 4.90494Z" fill="black"/>
<path d="M122.586 37.3874L113.536 38.3843C113.536 38.3843 112.744 9.6563 91.0256 4.9047L108.319 2.99951C108.319 2.99951 123.813 9.62763 122.586 37.3874Z" fill="#EED4C5"/>
<path d="M165.38 31.1166L63.5557 42.3347L65.8818 63.4482L167.706 52.2301L165.38 31.1166Z" fill="#EED4C5"/>
<path d="M197.91 71.6811C197.91 71.6811 197.307 59.0267 209.66 57.5203C222.013 56.0139 223.369 45.1671 223.369 45.1671L224.725 48.7827C224.725 48.7827 221.863 61.7383 212.523 61.4371C203.183 61.1359 200.621 72.5849 200.621 72.5849L197.91 71.6811Z" fill="black"/>
<path d="M221.067 74.3981C221.067 74.3981 223.971 68.8519 229.614 71.2944C235.257 73.7368 238.544 69.4507 238.544 69.4507L238.22 71.3309C238.22 71.3309 233.764 76.1403 229.856 73.6793C225.949 71.2183 221.998 75.4607 221.998 75.4607L221.067 74.3981Z" fill="#B4867D"/>
<path d="M161.11 63.5516C161.11 63.5516 164.013 58.0054 169.656 60.4478C175.3 62.8902 178.587 58.6041 178.587 58.6041L178.262 60.4843C178.262 60.4843 173.806 65.2937 169.899 62.8327C165.992 60.3717 162.04 64.6141 162.04 64.6141L161.11 63.5516Z" fill="black"/>
<path d="M191.131 67.1616C191.131 67.1616 190.227 64.2993 192.787 62.4916L189.172 61.5876C189.172 61.5876 187.665 63.8474 187.816 66.559L191.131 67.1616Z" fill="#B4867D"/>
<path d="M216.728 83.9127C216.728 83.9127 217.565 82.1928 219.541 82.4791L218.265 80.4767C218.265 80.4767 216.578 80.8615 215.46 82.1816L216.728 83.9127Z" fill="black"/>
<path d="M212.523 74.0914C213.521 74.0914 214.33 73.282 214.33 72.2836C214.33 71.2852 213.521 70.4758 212.523 70.4758C211.524 70.4758 210.715 71.2852 210.715 72.2836C210.715 73.282 211.524 74.0914 212.523 74.0914Z" fill="black"/>
<path d="M197.006 59.7798C197.505 59.7798 197.91 59.3752 197.91 58.876C197.91 58.3768 197.505 57.9722 197.006 57.9722C196.507 57.9722 196.102 58.3768 196.102 58.876C196.102 59.3752 196.507 59.7798 197.006 59.7798Z" fill="black"/>
<path d="M40.6361 76.9701C40.6361 76.9701 41.0269 68.7657 33.0177 67.789C25.0084 66.8123 24.1295 59.7798 24.1295 59.7798L23.2505 62.1239C23.2505 62.1239 25.1063 70.5238 31.1619 70.3284C37.2174 70.133 38.878 77.5562 38.878 77.5562L40.6361 76.9701Z" fill="black"/>
<path d="M17.477 79.3696C17.477 79.3696 14.5738 73.8232 8.93021 76.2658C3.2866 78.7084 0 74.4221 0 74.4221L0.324688 76.3023C0.324688 76.3023 4.78121 81.1117 8.68789 78.6513C12.5946 76.1909 16.5465 80.4328 16.5465 80.4328L17.477 79.3696Z" fill="black"/>
<path d="M77.4345 68.5227C77.4345 68.5227 74.5314 62.9765 68.8877 65.4191C63.2441 67.8617 59.9575 63.5748 59.9575 63.5748L60.2822 65.455C60.2822 65.455 64.7381 70.2644 68.6454 67.8034C72.5527 65.3424 76.504 69.5849 76.504 69.5849L77.4345 68.5227Z" fill="black"/>
<path d="M47.4135 72.1331C47.4135 72.1331 48.3173 69.2707 45.7563 67.4629L49.3719 66.5591C49.3719 66.5591 50.8783 68.8187 50.7277 71.5305L47.4135 72.1331Z" fill="#B4867D"/>
<path d="M21.8159 88.8841C21.8159 88.8841 20.9796 87.1642 19.0029 87.4506L20.279 85.448C20.279 85.448 21.9661 85.833 23.0846 87.153L21.8159 88.8841Z" fill="black"/>
<path d="M26.0214 79.0627C27.0198 79.0627 27.8292 78.2533 27.8292 77.2549C27.8292 76.2565 27.0198 75.4471 26.0214 75.4471C25.023 75.4471 24.2136 76.2565 24.2136 77.2549C24.2136 78.2533 25.023 79.0627 26.0214 79.0627Z" fill="#B4867D"/>
<path d="M41.5383 64.7512C42.0375 64.7512 42.4422 64.3466 42.4422 63.8474C42.4422 63.3483 42.0375 62.9436 41.5383 62.9436C41.0392 62.9436 40.6345 63.3483 40.6345 63.8474C40.6345 64.3466 41.0392 64.7512 41.5383 64.7512Z" fill="black"/>
</svg>
