<svg width="14" height="12" viewBox="0 0 14 12" fill="none" xmlns="http://www.w3.org/2000/svg">
<path d="M5.02581 5.00111C5.91158 5.17408 6.80859 4.78063 6.80859 4.35938C6.80859 4.03669 6.23561 3.67578 5.46875 3.67578C4.7512 3.67578 4.12891 4.01263 4.12891 4.35938C4.12891 4.62562 4.51451 4.90152 5.02581 5.00111Z" fill="#9F5025"/>
<path d="M9.36624 7.01169H10.9101V6.02209C10.4702 6.43816 9.91571 6.76333 9.36624 7.01169Z" fill="#9F5025"/>
<path d="M1.2405 5.84132C2.0003 6.30765 3.02296 6.68641 4.04619 6.88052C7.1735 7.4747 10.9102 5.90629 10.9102 4.35938C10.9102 3.39277 10.3169 2.49932 9.23964 1.84356C8.22598 1.22655 6.88677 0.886719 5.46875 0.886719C2.54912 0.886719 0 2.35513 0 4.35938C0 4.83491 0.458199 5.3612 1.2405 5.84132ZM3.32664 4.1605C3.46404 3.40461 4.36499 2.85547 5.46875 2.85547C6.68005 2.85547 7.62891 3.51607 7.62891 4.35938C7.62891 5.20268 6.68005 5.86328 5.46875 5.86328C5.26449 5.86328 5.06264 5.84411 4.8688 5.80624C3.93567 5.62452 3.30859 5.04302 3.30859 4.35938C3.30859 4.29271 3.31469 4.22577 3.32664 4.1605Z" fill="#9F5025"/>
<path d="M5.46869 7.83205C4.93163 7.83205 4.40154 7.78308 3.89314 7.68647C2.60553 7.44221 0.965666 6.84874 -6.10352e-05 5.95654V8.51564C-6.10352e-05 9.29735 0.558271 10.0173 1.52252 10.543C2.06672 10.8395 2.66858 11.0253 3.31143 11.0951C3.34241 11.0985 3.31704 11.0974 3.96481 11.0984V9.62099C3.96481 9.40013 4.13453 9.21009 4.35514 9.1997C4.59065 9.1886 4.7851 9.37629 4.7851 9.60939V11.0997L6.15228 11.1018V9.62099C6.15228 9.40013 6.32201 9.21009 6.54261 9.1997C6.77815 9.1886 6.9726 9.37629 6.9726 9.60939V11.103L8.33978 11.1052V9.62099C8.33978 9.40013 8.50951 9.21009 8.73011 9.1997C8.96565 9.1886 9.1601 9.37629 9.1601 9.60939V11.1065L10.5273 11.1086V9.62099C10.5273 9.40013 10.697 9.21009 10.9176 9.1997C11.1532 9.1886 11.3476 9.37629 11.3476 9.60939V11.1099L13.5892 11.1133C13.8037 11.1133 13.9999 10.9452 13.9999 10.6961V8.24221C13.9999 8.01569 13.8163 7.83205 13.5898 7.83205H5.46869Z" fill="#9F5025"/>
</svg>
