<svg width="18" height="18" viewBox="0 0 18 18" fill="none" xmlns="http://www.w3.org/2000/svg">
<path d="M10.8182 16.3947C10.6698 16.4317 10.5185 16.4645 10.3683 16.4922C9.97561 16.5652 9.71601 16.9428 9.78864 17.3358C9.82451 17.5292 9.93432 17.6902 10.0834 17.7954C10.2371 17.9035 10.4326 17.9523 10.6319 17.9153C10.8108 17.8821 10.991 17.843 11.1679 17.7989C11.5557 17.7024 11.7919 17.3096 11.6952 16.922C11.5987 16.5341 11.2062 16.2981 10.8182 16.3947Z" fill="white"/>
<path d="M16.1692 6.69548C16.2199 6.84824 16.3167 6.97294 16.4389 7.05911C16.6202 7.18676 16.8573 7.22971 17.0836 7.15488C17.463 7.02889 17.6686 6.61975 17.5431 6.24052C17.4859 6.06764 17.4225 5.89422 17.3549 5.72536C17.2064 5.3543 16.7855 5.17364 16.4143 5.32207C16.0434 5.47042 15.8627 5.89143 16.0112 6.26262C16.068 6.40454 16.1212 6.55022 16.1692 6.69548Z" fill="white"/>
<path d="M13.1695 15.3616C13.0419 15.4459 12.9101 15.5274 12.7774 15.6038C12.4312 15.8036 12.3126 16.2462 12.5122 16.5923C12.5664 16.6864 12.6386 16.7634 12.7218 16.8222C12.945 16.9793 13.2482 17.0028 13.5006 16.8574C13.6584 16.7664 13.8153 16.6696 13.9673 16.569C14.3006 16.3488 14.3923 15.8999 14.172 15.5664C13.9517 15.2329 13.503 15.1412 13.1695 15.3616Z" fill="white"/>
<path d="M17.993 8.71658C17.9773 8.31719 17.6409 8.00633 17.2413 8.02192C16.8423 8.03767 16.5313 8.37419 16.5469 8.77342C16.5529 8.92606 16.5545 9.08099 16.5509 9.23348C16.5453 9.48394 16.6678 9.7072 16.8582 9.84139C16.9716 9.92125 17.1092 9.96958 17.2585 9.97298C17.6579 9.98184 17.9889 9.66506 17.9977 9.26548C18.0017 9.08327 18.0002 8.89867 17.993 8.71658Z" fill="white"/>
<path d="M16.0511 13.4579C15.7309 13.2176 15.2778 13.2828 15.0379 13.6025C14.946 13.7249 14.8493 13.8458 14.7503 13.9623C14.4914 14.2664 14.528 14.7232 14.8321 14.9823C14.8494 14.997 14.867 15.0105 14.8851 15.0232C15.1875 15.2363 15.6077 15.1873 15.8522 14.9005C15.9704 14.7616 16.0857 14.6171 16.1955 14.4709C16.4354 14.1512 16.3705 13.6978 16.0511 13.4579Z" fill="white"/>
<path d="M17.115 10.8422C16.7337 10.7226 16.3276 10.9349 16.2081 11.3162C16.1624 11.4619 16.1117 11.6083 16.057 11.7516C15.9368 12.0672 16.0519 12.4144 16.3158 12.6005C16.3642 12.6345 16.4175 12.6633 16.4755 12.6852C16.8488 12.8277 17.2669 12.6404 17.4092 12.2669C17.4742 12.0964 17.5345 11.9223 17.589 11.7491C17.7083 11.3677 17.4962 10.9617 17.115 10.8422Z" fill="white"/>
<path d="M7.66117 16.4987C7.01422 16.3825 6.39362 16.1847 5.80514 15.9088C5.79818 15.9052 5.79195 15.9011 5.78463 15.8977C5.64596 15.8325 5.50751 15.7625 5.37333 15.6895C5.37286 15.6889 5.37201 15.6886 5.37127 15.6883C5.12507 15.5527 4.88479 15.4027 4.65135 15.2384C1.24745 12.8406 0.429013 8.12047 2.82698 4.7166C3.3484 3.97672 3.97941 3.35945 4.68289 2.87021C4.69155 2.86418 4.70022 2.85818 4.70881 2.8521C7.18776 1.14404 10.5538 1.02893 13.186 2.78412L12.6207 3.60097C12.4635 3.82833 12.5602 3.99401 12.8354 3.96925L15.2911 3.74939C15.5666 3.72463 15.7313 3.48632 15.6572 3.22027L14.9978 0.844283C14.924 0.57792 14.735 0.546037 14.5776 0.773359L14.011 1.59214C12.0793 0.295422 9.76235 -0.199036 7.46271 0.199734C7.23109 0.23982 7.00273 0.288883 6.7775 0.345994C6.77575 0.346304 6.77436 0.346497 6.77297 0.346807C6.76426 0.348935 6.75544 0.351759 6.74697 0.35412C4.76395 0.863359 3.03379 2.01993 1.79921 3.67011C1.7888 3.68246 1.77809 3.69453 1.76826 3.70795C1.7272 3.76325 1.68646 3.81982 1.64657 3.87638C1.58133 3.96909 1.51702 4.06412 1.4555 4.15915C1.4478 4.17061 1.44192 4.18225 1.43519 4.19382C0.4164 5.77254 -0.0750018 7.59769 0.00927166 9.4558C0.00946512 9.46192 0.00911688 9.46807 0.00927166 9.47434C0.0174359 9.65585 0.0318297 9.83987 0.0513697 10.021C0.0524144 10.0327 0.0550068 10.0438 0.0569802 10.0555C0.0771779 10.2376 0.102522 10.4202 0.134289 10.6028C0.457144 12.4654 1.33578 14.1415 2.65239 15.4456C2.65545 15.4487 2.65862 15.452 2.66172 15.4552C2.6628 15.4564 2.664 15.457 2.66505 15.4581C3.01878 15.807 3.40354 16.1297 3.81783 16.4215C4.90201 17.1854 6.10927 17.6904 7.40579 17.9231C7.79919 17.9938 8.17497 17.7319 8.24555 17.3387C8.31609 16.9452 8.05444 16.5691 7.66117 16.4987Z" fill="white"/>
<path d="M8.55591 3.21912C8.23232 3.21912 7.97021 3.48146 7.97021 3.80458V9.63744L13.3048 12.3951C13.3907 12.4396 13.4826 12.4605 13.5731 12.4605C13.785 12.4605 13.9896 12.3451 14.0937 12.1438C14.242 11.8565 14.1298 11.5035 13.8424 11.3551L9.14095 8.92448V3.80458C9.14091 3.48146 8.87911 3.21912 8.55591 3.21912Z" fill="white"/>
</svg>
