<svg width="56" height="56" viewBox="0 0 56 56" fill="none" xmlns="http://www.w3.org/2000/svg">
<g clip-path="url(#clip0)">
<path d="M35.757 4.73752C35.5711 4.60717 35.339 4.56092 35.1178 4.61053C34.8962 4.66015 34.7062 4.80059 34.5935 4.99738C34.588 5.00705 34.5813 5.01588 34.5754 5.02471C34.3164 5.39474 33.8046 5.48473 33.4346 5.22613C33.0692 4.97047 32.5659 5.05877 32.3102 5.42418L31.1337 7.10487C30.878 7.47027 30.9668 7.97359 31.3318 8.22925C31.473 8.32806 31.6345 8.37558 31.7943 8.37558C32.0487 8.37558 32.2993 8.25532 32.4561 8.0312L33.2488 6.89883C33.993 7.10613 34.8016 6.94634 35.4113 6.46615L36.6021 7.29997C36.9675 7.55563 37.4705 7.46691 37.7265 7.10192C37.9822 6.73652 37.8935 6.23319 37.5281 5.97754L35.757 4.73752Z" fill="#C1A790"/>
<path d="M44.6853 14.9074L43.8926 16.0394C43.637 16.4048 43.7257 16.9081 44.0907 17.1638C44.232 17.2626 44.3934 17.3097 44.5532 17.3097C44.8076 17.3097 45.0582 17.1898 45.2151 16.9653L46.392 15.285C46.6477 14.9196 46.559 14.4163 46.194 14.1606C45.8239 13.9016 45.7335 13.3899 45.993 13.0194C45.9993 13.0106 46.0052 13.0018 46.0123 12.9938C46.1587 12.8201 46.2255 12.5935 46.1961 12.3685C46.1671 12.1436 46.0447 11.9409 45.8588 11.811L44.0877 10.5709C43.7223 10.3153 43.219 10.404 42.9634 10.7694C42.7073 11.1344 42.7964 11.6381 43.1614 11.8938L44.3522 12.7272C44.1092 13.4647 44.2358 14.2788 44.6853 14.9074Z" fill="#C1A790"/>
<path d="M40.4009 33.0452C40.7844 33.0452 41.1406 33.1987 41.4038 33.4779C41.7099 33.8017 42.2208 33.8164 42.545 33.5103C42.8696 33.2042 42.8839 32.6933 42.5778 32.3691C42.0148 31.7728 41.2213 31.4305 40.4009 31.4305C38.7501 31.4305 37.4075 32.7736 37.4075 34.4244C37.4075 36.0748 38.7501 37.4179 40.4009 37.4179C41.2007 37.4179 41.9525 37.1067 42.5177 36.5412C42.833 36.2258 42.833 35.7145 42.5177 35.3995C42.2027 35.0842 41.6914 35.0842 41.376 35.3995C41.1158 35.6598 40.7693 35.8032 40.4009 35.8032C39.6407 35.8032 39.0221 35.1847 39.0221 34.4244C39.0221 33.6638 39.6407 33.0452 40.4009 33.0452Z" fill="#C1A790"/>
<path d="M47.5891 28.7373V22.2711C47.5891 20.0757 45.8028 18.2895 43.6075 18.2895H39.3231C39.5737 16.1248 38.8669 14.2208 37.3758 13.1768C36.1127 12.2925 34.4761 12.134 32.7673 12.7302C31.1522 13.2941 29.6498 14.479 28.538 16.0668C28.0456 16.7694 27.6537 17.5145 27.3695 18.2895H22.1134L33.4111 2.15494L49.0881 13.1318L46.6997 16.5432C46.4441 16.9086 46.5328 17.4119 46.8978 17.6676C47.2632 17.9232 47.7665 17.8345 48.0222 17.4691L50.6258 13.7507C51.0181 13.1919 50.8823 12.4178 50.3227 12.0251L34.03 0.617212C33.7592 0.427151 33.4304 0.353986 33.1045 0.411173C32.7786 0.468779 32.4948 0.649169 32.3043 0.920384L28.5675 6.25764V3.03922C28.5675 2.35593 28.0116 1.80004 27.3283 1.80004H7.96396C7.28067 1.80004 6.72479 2.35593 6.72479 3.03922V7.45897C6.72479 7.90511 7.08641 8.26631 7.53212 8.26631C7.97826 8.26631 8.33946 7.90511 8.33946 7.45897V3.41514H10.6786V18.2891H8.52994C8.46645 18.2891 8.40295 18.2907 8.33946 18.2937V10.6883C8.33946 10.2426 7.97826 9.88098 7.53212 9.88098C7.08641 9.88098 6.72479 10.2426 6.72479 10.6883V18.7226C5.43431 19.3819 4.54834 20.7249 4.54834 22.2711V46.5774C4.54834 48.7728 6.33457 50.559 8.52994 50.559H14.5581C15.0042 50.559 15.3654 50.1978 15.3654 49.7517C15.3654 49.3059 15.0042 48.9443 14.5581 48.9443H8.52994C7.22475 48.9443 6.16301 47.8826 6.16301 46.5774V22.2711C6.16301 21.2367 6.82991 20.3553 7.75582 20.0341C7.77643 20.0282 7.79703 20.0215 7.81679 20.0139C8.04217 19.9424 8.28185 19.9037 8.53036 19.9037H43.6075C44.9127 19.9037 45.9748 20.9659 45.9748 22.2711V28.6255H40.1948C36.9974 28.6255 34.3958 31.2266 34.3958 34.4244C34.3958 37.6218 36.9974 40.223 40.1948 40.223H45.9748V46.5774C45.9748 47.8826 44.9127 48.9443 43.6075 48.9443H37.4385C36.9923 48.9443 36.6311 49.3059 36.6311 49.7517C36.6311 50.1978 36.9923 50.559 37.4385 50.559H43.6075C45.8028 50.559 47.5895 48.7728 47.5895 46.5774V40.1111C49.4161 39.6776 50.7789 38.0327 50.7789 36.0757V32.7732C50.7785 30.8158 49.4157 29.1709 47.5891 28.7373ZM29.8605 16.9935C31.7018 14.3638 34.6578 13.2453 36.4499 14.4996C37.4822 15.2224 37.9368 16.6407 37.695 18.2891H29.1145C29.3193 17.8433 29.5682 17.4098 29.8605 16.9935ZM26.9528 8.56359L20.1426 18.2895H16.1643V3.41472H26.9528V8.56359ZM12.2933 3.41472H14.5496V18.2891H12.2933V3.41472ZM49.1638 36.0753C49.1638 37.4721 48.0276 38.6083 46.6308 38.6083H40.1948C37.8876 38.6083 36.0105 36.7312 36.0105 34.424C36.0105 32.1172 37.8876 30.2402 40.1948 30.2402H46.6308C48.0276 30.2402 49.1638 31.3763 49.1638 32.7732V36.0753Z" fill="#C1A790"/>
<path d="M26.0685 35.9985C20.6904 35.9985 16.3148 40.3741 16.3148 45.7526C16.3148 51.1306 20.6904 55.5062 26.0685 55.5062C31.4469 55.5062 35.8225 51.1306 35.8225 45.7526C35.8225 40.3741 31.4469 35.9985 26.0685 35.9985ZM26.0685 53.8916C21.5806 53.8916 17.9295 50.2405 17.9295 45.7526C17.9295 41.2643 21.5806 37.6132 26.0685 37.6132C30.5567 37.6132 34.2078 41.2643 34.2078 45.7526C34.2078 50.2405 30.5567 53.8916 26.0685 53.8916Z" fill="#C1A790"/>
</g>
<defs>
<clipPath id="clip0">
<rect width="55.1142" height="55.1142" fill="white" transform="translate(0.134888 0.39209)"/>
</clipPath>
</defs>
</svg>
