<svg width="53" height="54" viewBox="0 0 53 54" fill="none" xmlns="http://www.w3.org/2000/svg">
<g clip-path="url(#clip0)">
<path d="M43.2888 38.1216C42.5902 34.6222 39.3075 34.0266 39.2972 34.0218V34.0219C39.2619 34.0116 39.5983 34.0959 31.2912 32.0368V31.7549H37.4063C38.6669 31.7549 39.6923 30.7294 39.6923 29.469V17.8063C39.7951 17.3727 39.7953 16.9219 39.6923 16.4873V12.2308C39.6923 11.8019 39.3446 11.4544 38.9158 11.4544C38.4868 11.4544 38.1393 11.8019 38.1393 12.2308V14.4592C37.7294 14.2145 37.2612 14.0391 36.7567 13.9522C36.5745 13.143 35.9025 12.5033 35.0502 12.3914C34.1618 12.2746 33.4886 11.7567 33.0492 10.8522C32.8435 10.4287 32.4406 10.1506 31.9717 10.1079C31.5023 10.0655 31.0579 10.266 30.7798 10.6447C29.4451 12.4612 25.7345 16.5354 19.3272 16.5352C18.8398 16.5352 18.5093 16.5121 18.3941 16.507C17.2168 16.4361 16.2212 17.3768 16.2212 18.5566V20.3407C16.2212 23.1922 17.4042 25.9567 19.4667 27.9252C20.1507 28.578 20.9052 29.1226 21.7099 29.5569V30.2022H15.6226C15.2184 30.2022 14.8895 29.8733 14.8895 29.4692V12.0216C14.8895 6.36524 19.5015 1.70434 25.0725 1.70434C25.0905 1.70434 25.1085 1.70445 25.1264 1.70455C27.1224 1.71521 29.4269 2.28217 30.9974 3.14849C31.9927 3.69785 32.6075 3.26122 33.5903 3.26122C35.9893 3.26122 37.9118 5.72799 38.1422 7.94665C38.1437 7.97915 38.1471 8.10927 38.1475 8.6078C38.148 9.35736 38.9946 9.41491 38.9246 9.38365C39.3536 9.38334 39.7008 9.03532 39.7005 8.60656C39.7003 8.46867 39.7015 7.92801 39.6885 7.80255C39.3763 4.71396 36.7418 1.70828 33.5904 1.70828C32.3596 1.70828 32.1678 2.02027 31.7477 1.78881C29.9669 0.806345 27.3711 0.163616 25.1348 0.151609C18.6886 0.109892 13.3365 5.47997 13.3365 12.0215V29.4691C13.3365 30.7296 14.362 31.755 15.6225 31.755H21.7099V32.0369L13.7352 34.0133C13.7247 34.0159 13.7143 34.0189 13.7039 34.0219L13.1213 34.1938C13.1038 34.1989 13.0866 34.2046 13.0695 34.2109C12.0298 34.5989 10.2111 35.6228 9.71208 38.122C7.34882 49.9933 7.4483 49.4864 7.44261 49.5271C7.15794 51.5406 8.16587 53.1512 10.5905 53.1512H18.9872C19.4162 53.1512 19.7637 52.8036 19.7637 52.3747C19.7637 51.9458 19.4161 51.5983 18.9872 51.5983H16.0653V44.2745C16.0653 43.8456 15.7176 43.4981 15.2888 43.4981C14.8599 43.4981 14.5123 43.8457 14.5123 44.2745V51.5983H10.5905C9.55909 51.5983 8.96015 51.2662 8.95021 50.1827C8.94586 49.6541 8.92505 50.1693 11.2351 38.4256C11.5828 36.6841 12.8474 35.9567 13.5882 35.6751L14.1267 35.5163L18.7062 34.3812C23.8006 40.3826 23.4989 40.0646 23.7933 40.3518C25.4937 42.0104 27.9199 41.8934 29.5167 40.0181L34.3121 34.3855L38.8741 35.5162C39.0061 35.5768 41.277 35.9763 41.7659 38.4253C44.0561 50.0674 44.0553 49.6516 44.0509 50.1821C44.043 51.2433 43.4689 51.5984 42.4106 51.5984H38.5166V44.2745C38.5166 43.8456 38.1691 43.4981 37.7402 43.4981C37.3112 43.4981 36.9637 43.8457 36.9637 44.2745V51.5983H22.6107C22.1818 51.5983 21.8343 51.9459 21.8343 52.3747C21.8343 52.8037 22.1819 53.1512 22.6107 53.1512H42.4107C44.3291 53.1512 45.5862 52.0956 45.6039 50.1945C45.6105 49.3066 45.5576 49.7308 43.2888 38.1216ZM36.8075 15.5541C37.4559 15.747 37.956 16.1743 38.1394 16.702V17.5916C37.956 18.1194 37.4559 18.5467 36.8075 18.7395V15.5541ZM36.8075 20.4759V20.3325C37.2928 20.2429 37.7434 20.071 38.1394 19.8345V29.4691C38.1394 29.8733 37.8106 30.202 37.4064 30.202H31.2912V29.6019C34.5834 27.8808 36.8075 24.4346 36.8075 20.4759ZM20.539 26.8016C18.782 25.1245 17.7744 22.7697 17.7744 20.3405C17.8206 18.6499 17.6625 18.445 17.9323 18.191C18.0278 18.1009 18.1563 18.0486 18.3009 18.0569C23.8684 18.3921 28.657 15.9446 31.8186 11.8466C32.671 13.3434 33.9212 13.8095 34.8481 13.9313C35.0797 13.9617 35.2546 14.1594 35.2546 14.3914C35.2546 16.5395 35.2546 18.3433 35.2546 20.476C35.2546 28.202 26.0052 32.0187 20.539 26.8016ZM28.334 39.0113C27.2522 40.2821 25.7377 40.2787 24.6585 39.0049L23.0384 37.0926H29.9675L28.334 39.0113ZM31.2898 35.5396H21.7228L20.3884 33.9645L22.6734 33.398C23.0199 33.3122 23.263 32.9936 23.263 32.6367L23.2631 30.2345C25.3997 30.9467 27.656 30.9389 29.7382 30.2566C29.7528 32.7384 29.7049 32.6816 29.7815 32.9005C29.8662 33.1426 30.0679 33.3335 30.3277 33.3979L32.6278 33.968L31.2898 35.5396Z" fill="#C1A790"/>
</g>
<defs>
<clipPath id="clip0">
<rect width="53" height="53" fill="white" transform="translate(0 0.151245)"/>
</clipPath>
</defs>
</svg>
