<svg width="54" height="54" viewBox="0 0 54 54" fill="none" xmlns="http://www.w3.org/2000/svg">
<path d="M53.4048 11.7662L53.4049 11.7662C53.7102 11.9336 53.9 12.2547 53.9 12.603V19.9327C53.9 20.46 53.4727 20.8874 52.9454 20.8874C52.418 20.8874 51.9907 20.46 51.9907 19.9327V14.3853V14.2163L51.8425 14.2976L45.7834 17.6244L45.7316 17.6529V17.7121V24.2998C45.7316 24.6477 45.5425 24.968 45.2375 25.1358L45.2857 25.2235L45.2375 25.1358L40.7307 27.6164L40.7789 27.704L40.7307 27.6164C40.5872 27.6955 40.4287 27.7346 40.2705 27.7346C40.1024 27.7346 39.9345 27.6903 39.7845 27.6018C39.4941 27.4303 39.3159 27.1179 39.3159 26.7799V21.345V21.176L39.1677 21.2573L32.924 24.6859L32.8722 24.7144V24.7736V45.4636V45.6326L33.0203 45.5513L51.9388 35.163L51.9907 35.1345V35.0753V28.3698C51.9907 27.8425 52.418 27.4151 52.9454 27.4151C53.4727 27.4151 53.9 27.8425 53.9 28.3698V35.6995C53.9 36.0478 53.7102 36.3685 53.4048 36.5363L32.3736 48.0844L32.3735 48.0844C32.2309 48.163 32.0724 48.2022 31.9142 48.2022C31.756 48.2022 31.598 48.163 31.4548 48.0844L31.4548 48.0844L26.9101 45.589L26.8149 45.5367L26.7707 45.6359C26.0848 47.1741 25.1153 48.5895 23.8884 49.8164C21.2132 52.4916 17.6443 53.8996 14.0269 53.9C11.9534 53.9 9.86488 53.4378 7.91819 52.4863L7.91812 52.4863C7.44423 52.2551 7.248 51.6835 7.47963 51.2094L7.47964 51.2094C7.71084 50.7358 8.28251 50.5393 8.75609 50.7709L8.75611 50.7709C13.368 53.0243 18.9062 52.0982 22.538 48.4664C24.8091 46.1953 26.0601 43.1756 26.0601 39.964C26.0601 36.7524 24.8091 33.7326 22.5384 31.4619C20.2673 29.1908 17.2476 27.9398 14.036 27.9398C10.8244 27.9398 7.8046 29.1908 5.53351 31.4619C1.90174 35.0937 0.97569 40.632 3.22908 45.2438C3.46028 45.7175 3.26411 46.2891 2.79012 46.5207L2.79009 46.5207C2.31651 46.7523 1.74484 46.5558 1.51364 46.0822L1.51363 46.0822C-1.09774 40.738 -0.024819 34.3199 4.18353 30.112L4.18355 30.1119C5.79828 28.4968 7.73998 27.3283 9.8586 26.6657L9.92875 26.6437V26.5702V12.603C9.92875 12.2543 10.1186 11.9336 10.4239 11.7662L10.424 11.7662L23.0749 4.81923L23.0859 4.81322L23.095 4.80469C23.2119 4.69562 23.3532 4.61945 23.505 4.57944L23.5169 4.57631L23.5277 4.57039L31.4547 0.217748C31.4547 0.217745 31.4547 0.217743 31.4548 0.217741C31.7408 0.0607534 32.0876 0.0607535 32.3736 0.21774C32.3736 0.217743 32.3736 0.217745 32.3736 0.217748L53.4048 11.7662ZM31.9623 2.16994L31.9142 2.14351L31.8661 2.16994L25.9231 5.4333L25.7635 5.52095L25.9231 5.6086L44.7629 15.954L44.8111 15.9805L44.8592 15.954L50.8021 12.6907L50.9618 12.603L50.8021 12.5154L31.9623 2.16994ZM31.8661 23.0357L31.9142 23.0621L31.9623 23.0357L38.1236 19.6525L38.2832 19.5648L38.1236 19.4771L19.2834 9.13212L19.2353 9.10569L19.1871 9.13212L13.0263 12.5154L12.8666 12.603L13.0263 12.6907L31.8661 23.0357ZM40.2183 18.4494L40.2664 18.4759L40.3146 18.4494L42.6682 17.157L42.8279 17.0694L42.6682 16.9817L23.828 6.63671L23.7799 6.61028L23.7318 6.63672L21.3785 7.92912L21.2189 8.01678L21.3785 8.10443L40.2183 18.4494ZM11.8381 26.0857V26.2018L11.9529 26.1847C12.6364 26.0828 13.3319 26.0308 14.036 26.0308C17.7577 26.0308 21.2564 27.48 23.8884 30.112C26.52 32.7435 27.9691 36.2422 27.9691 39.964C27.9691 41.2224 27.803 42.4553 27.4819 43.6374L27.4613 43.7134L27.5303 43.7513L30.8151 45.555L30.9632 45.6363V45.4673V24.7773V24.7181L30.9113 24.6896L11.9863 14.2976L11.8381 14.2163V14.3853V26.0857ZM43.7708 23.764L43.8226 23.7355V23.6764V18.8706V18.7016L43.6745 18.7829L41.2771 20.0992L41.2252 20.1277V20.1869V24.996V25.1652L41.3735 25.0836L43.7708 23.764Z" fill="#C1A790" stroke="#F7F7F7" stroke-width="0.2"/>
<path d="M52.2709 24.8208L52.2708 24.8207C52.0934 24.6433 51.9911 24.3968 51.9911 24.1461C51.9911 23.895 52.0934 23.6485 52.2708 23.4711C52.4482 23.2938 52.6951 23.1914 52.9458 23.1914C53.1965 23.1914 53.4434 23.2938 53.6208 23.4711C53.7982 23.6485 53.9005 23.895 53.9005 24.1461C53.9005 24.3968 53.7982 24.6433 53.6208 24.8207L53.6207 24.8208C53.4434 24.9984 53.1966 25.1004 52.9458 25.1004C52.695 25.1004 52.4482 24.9984 52.2709 24.8208Z" fill="#C1A790" stroke="#F7F7F7" stroke-width="0.2"/>
<path d="M11.165 39.2889L11.165 39.289C11.538 39.6619 11.538 40.2664 11.165 40.6393C10.979 40.8254 10.7345 40.9186 10.4901 40.9186C10.2457 40.9186 10.0016 40.8254 9.81507 40.6389L9.81506 40.6389L7.28385 38.1081C6.91128 37.7352 6.91128 37.1306 7.28385 36.7577L9.81503 34.2265C10.188 33.8539 10.7925 33.8539 11.165 34.2264C11.538 34.5994 11.538 35.2039 11.165 35.5768L11.165 35.5768L10.4346 36.3077L10.264 36.4784H10.5053H16.7387C19.3585 36.4784 21.4902 38.6098 21.4902 41.2296C21.4902 43.8494 19.3585 45.9807 16.7387 45.9807H13.0452C12.5179 45.9807 12.0905 45.5533 12.0905 45.0265C12.0905 44.4991 12.5179 44.0718 13.0452 44.0718H16.7387C18.3059 44.0718 19.5809 42.7968 19.5809 41.2296C19.5809 39.6623 18.3059 38.3874 16.7387 38.3874H10.5053H10.264L10.4346 38.5581L11.165 39.2889Z" fill="#C1A790" stroke="#F7F7F7" stroke-width="0.2"/>
<path d="M4.1287 49.7559L4.12841 49.7556C3.78908 49.3521 3.84125 48.7502 4.24479 48.4109L4.24483 48.4108C4.64829 48.0711 5.25055 48.1233 5.58993 48.5268C5.92902 48.9309 5.8777 49.5339 5.47443 49.8732C5.29485 50.024 5.0768 50.0978 4.85979 50.0978C4.58816 50.0978 4.31877 49.9822 4.1305 49.7581L4.1287 49.7559L4.1287 49.7559Z" fill="#C1A790" stroke="#F7F7F7" stroke-width="0.2"/>
</svg>
