<svg width="48" height="38" viewBox="0 0 48 38" fill="none" xmlns="http://www.w3.org/2000/svg">
<path fill-rule="evenodd" clip-rule="evenodd" d="M47.0625 31.0315C46.5447 31.0315 46.125 31.4512 46.125 31.969V35.5681H40.5293V29.255C40.5293 28.7372 40.1096 28.3175 39.5918 28.3175C39.0743 28.3175 38.6543 28.7372 38.6543 29.255V35.5681H33.0648V29.255C33.0648 28.7372 32.6451 28.3175 32.1273 28.3175C31.6095 28.3175 31.1898 28.7372 31.1898 29.255V35.5681H25.6003V29.255C25.6003 28.7372 25.1803 28.3175 24.6628 28.3175C24.145 28.3175 23.7253 28.7372 23.7253 29.255V35.5681H18.1355V29.255C18.1355 28.7372 17.7158 28.3175 17.198 28.3175C16.6802 28.3175 16.2605 28.7372 16.2605 29.255V35.5117C14.7484 35.4143 13.2828 35.1917 11.8971 34.8514V29.255C11.8971 28.7372 11.4771 28.3175 10.9596 28.3175C10.4418 28.3175 10.0221 28.7372 10.0221 29.255V34.3032C8.71875 33.8564 7.50989 33.2969 6.42883 32.6326C6.37573 32.5996 6.32373 32.5663 6.27136 32.5333V26.8677C6.27136 26.3502 5.85168 25.9302 5.33386 25.9302C4.81604 25.9302 4.39636 26.3502 4.39636 26.8677V31.1058C2.7561 29.5842 1.875 27.8271 1.875 26.0082V14.5634C1.89331 14.5868 1.91272 14.6099 1.9314 14.6333C1.95557 14.6637 1.97974 14.6937 2.00427 14.7241C2.04565 14.775 2.08813 14.8256 2.13098 14.8761C2.15405 14.9032 2.17676 14.9307 2.2002 14.9578C2.25403 15.02 2.30896 15.0819 2.36462 15.1434C2.37781 15.1581 2.39026 15.1727 2.40344 15.1874C2.47266 15.2632 2.5437 15.3386 2.61584 15.4137C2.63599 15.4346 2.65686 15.4554 2.67737 15.4763C2.7301 15.5305 2.78357 15.5844 2.83777 15.6382C2.86487 15.6649 2.8927 15.6913 2.92017 15.718C2.9696 15.7656 3.01941 15.8132 3.06995 15.8608C3.09924 15.8883 3.12927 15.9161 3.1593 15.9436C3.21021 15.9905 3.26221 16.0374 3.31421 16.0839C3.34351 16.1099 3.3728 16.1359 3.40283 16.1619C3.46216 16.2142 3.52295 16.2659 3.58411 16.3175C3.60718 16.3365 3.62952 16.3563 3.65259 16.3754C3.73718 16.4457 3.82288 16.5156 3.9104 16.5848C3.92761 16.5988 3.94556 16.6123 3.96313 16.6259C4.03345 16.6812 4.10486 16.7365 4.177 16.791C4.2085 16.8148 4.24072 16.8386 4.27258 16.8624C4.33228 16.9067 4.39233 16.9507 4.45312 16.9946C4.48901 17.0203 4.5249 17.0459 4.56079 17.0712C4.62048 17.1136 4.68091 17.1558 4.7417 17.1975C4.77795 17.2224 4.81384 17.2469 4.8501 17.2715C4.91602 17.3158 4.98267 17.3597 5.04968 17.4041C5.08154 17.4246 5.11304 17.4454 5.1449 17.4663C5.24451 17.5304 5.34485 17.5938 5.44666 17.6564C8.81689 19.7288 13.2784 20.8699 18.0095 20.8699H46.125V24.469C46.125 24.9868 46.5447 25.4065 47.0625 25.4065C47.5803 25.4065 48 24.9868 48 24.469V19.9324C48 19.4146 47.5803 18.9949 47.0625 18.9949H27.4834V9.4353C27.4834 6.99451 25.9929 4.73389 23.2866 3.06982C20.7224 1.49329 17.3328 0.625 13.7417 0.625C10.1506 0.625 6.76062 1.49329 4.19678 3.06982C1.49048 4.73352 0 6.99451 0 9.4353V26.0082C0 29.1503 1.93433 32.0697 5.44666 34.2296C8.58105 36.1566 12.6595 37.278 17.0208 37.4255C17.0782 37.4369 17.1372 37.4431 17.198 37.4431C17.2397 37.4431 17.2804 37.4395 17.3207 37.434C17.5496 37.4395 17.7792 37.4431 18.0095 37.4431H47.0625C47.5803 37.4431 48 37.0231 48 36.5056V31.969C48 31.4512 47.5803 31.0315 47.0625 31.0315ZM5.17859 4.66687C7.45166 3.26941 10.4923 2.5 13.7417 2.5C16.9907 2.5 20.0317 3.26941 22.3044 4.66687C24.4351 5.97681 25.6084 7.67017 25.6084 9.4353C25.6084 11.7721 22.1287 13.7463 18.0099 13.7463C17.7429 13.7463 17.4789 13.7375 17.2181 13.7214C17.2181 13.7214 17.2181 7.32629 17.2181 7.32556C17.2181 7.20801 17.1958 7.09045 17.1526 6.98132C17.098 6.84473 17.0116 6.72131 16.9014 6.62354C16.8212 6.55249 16.7296 6.50049 16.6322 6.45691C15.78 6.07568 14.7821 5.87317 13.7417 5.87317C10.8226 5.87317 8.53638 7.43799 8.53638 9.4353C8.53638 11.1752 9.58264 12.7766 11.4829 13.9448C13.2407 15.0259 15.5588 15.6213 18.0099 15.6213C20.4609 15.6213 22.7787 15.0259 24.5369 13.9448C24.9316 13.702 25.2891 13.4406 25.6084 13.163V18.9949H18.0099C13.6205 18.9949 9.50793 17.9523 6.42883 16.0593C3.67603 14.3663 2.08264 12.1932 1.89404 9.896C1.88159 9.74292 1.87537 9.58911 1.87537 9.4353C1.875 7.67053 3.04834 5.97681 5.17859 4.66687ZM15.3431 13.4603C12.4937 12.8326 10.411 11.2429 10.411 9.4353C10.411 8.63916 11.8356 7.74854 13.7417 7.74854C14.3093 7.74854 14.8524 7.82654 15.3431 7.97449V13.4603Z" fill="#C1A790"/>
</svg>
