<svg width="44" height="45" viewBox="0 0 44 45" fill="none" xmlns="http://www.w3.org/2000/svg">
<path d="M29.7344 27.5653C29.2598 27.5653 28.875 27.95 28.875 28.4247V34.3544C28.875 36.7237 26.9474 38.6512 24.5781 38.6512H15.2996C14.8252 38.6512 14.4406 39.0356 14.4402 39.51L14.439 41.2186L12.3879 39.1676C12.2551 38.8627 11.9512 38.6512 11.5998 38.6512H6.01562C3.64633 38.6512 1.71875 36.7237 1.71875 34.3544V21.12C1.71875 18.7507 3.64633 16.8231 6.01562 16.8231H14.6953C15.1699 16.8231 15.5547 16.4384 15.5547 15.9637C15.5547 15.4891 15.1699 15.1044 14.6953 15.1044H6.01562C2.69861 15.1044 0 17.803 0 21.12V34.3544C0 37.6714 2.69861 40.37 6.01562 40.37H11.1597L14.6892 43.8995C14.8536 44.0639 15.0734 44.1512 15.297 44.1512C15.4076 44.1512 15.5193 44.1298 15.6254 44.0859C15.9466 43.9531 16.156 43.6399 16.1562 43.2925L16.1583 40.37H24.5781C27.8951 40.37 30.5938 37.6714 30.5938 34.3544V28.4247C30.5938 27.95 30.2089 27.5653 29.7344 27.5653Z" fill="#C1A790"/>
<path d="M29.7344 27.5653C29.2598 27.5653 28.875 27.95 28.875 28.4247V34.3544C28.875 36.7237 26.9474 38.6512 24.5781 38.6512H15.2996C14.8252 38.6512 14.4406 39.0356 14.4402 39.51L14.439 41.2186L12.3879 39.1676C12.2551 38.8627 11.9512 38.6512 11.5998 38.6512H6.01562C3.64633 38.6512 1.71875 36.7237 1.71875 34.3544V21.12C1.71875 18.7507 3.64633 16.8231 6.01562 16.8231H14.6953C15.1699 16.8231 15.5547 16.4384 15.5547 15.9637C15.5547 15.4891 15.1699 15.1044 14.6953 15.1044H6.01562C2.69861 15.1044 0 17.803 0 21.12V34.3544C0 37.6714 2.69861 40.37 6.01562 40.37H11.1597L14.6892 43.8995C14.8536 44.0639 15.0734 44.1512 15.297 44.1512C15.4076 44.1512 15.5193 44.1298 15.6254 44.0859C15.9466 43.9531 16.156 43.6399 16.1562 43.2925L16.1583 40.37H24.5781C27.8951 40.37 30.5938 37.6714 30.5938 34.3544V28.4247C30.5938 27.95 30.2089 27.5653 29.7344 27.5653Z" stroke="#C1A790"/>
<path d="M31.5094 0.151245H29.3344C22.447 0.151245 16.8438 5.75454 16.8438 12.6419C16.8438 19.5293 22.447 25.1325 29.3343 25.1325H31.5093C32.5843 25.1325 33.6483 24.9959 34.6796 24.7261L37.8925 27.9372C38.0569 28.1015 38.2766 28.1888 38.5002 28.1888C38.6109 28.1888 38.7227 28.1674 38.829 28.1233C39.15 27.9903 39.3594 27.6769 39.3594 27.3294V22.3574C40.7197 21.2558 41.8497 19.8642 42.6427 18.3096C43.5434 16.5439 44 14.637 44 12.6419C44 5.75454 38.3967 0.151245 31.5094 0.151245ZM37.9829 21.2519C37.7675 21.4142 37.6406 21.6684 37.6406 21.9384V25.2556L35.5376 23.1537C35.374 22.9903 35.1545 22.9022 34.9301 22.9022C34.8459 22.9022 34.7608 22.9146 34.6778 22.9402C33.6548 23.2545 32.5889 23.4138 31.5094 23.4138H29.3344C23.3947 23.4138 18.5625 18.5816 18.5625 12.6419C18.5625 6.70226 23.3948 1.87 29.3344 1.87H31.5094C37.4491 1.87 42.2812 6.70226 42.2812 12.6419C42.2812 16.0563 40.7146 19.1946 37.9829 21.2519Z" fill="#C1A790"/>
<path d="M31.5094 0.151245H29.3344C22.447 0.151245 16.8438 5.75454 16.8438 12.6419C16.8438 19.5293 22.447 25.1325 29.3343 25.1325H31.5093C32.5843 25.1325 33.6483 24.9959 34.6796 24.7261L37.8925 27.9372C38.0569 28.1015 38.2766 28.1888 38.5002 28.1888C38.6109 28.1888 38.7227 28.1674 38.829 28.1233C39.15 27.9903 39.3594 27.6769 39.3594 27.3294V22.3574C40.7197 21.2558 41.8497 19.8642 42.6427 18.3096C43.5434 16.5439 44 14.637 44 12.6419C44 5.75454 38.3967 0.151245 31.5094 0.151245ZM37.9829 21.2519C37.7675 21.4142 37.6406 21.6684 37.6406 21.9384V25.2556L35.5376 23.1537C35.374 22.9903 35.1545 22.9022 34.9301 22.9022C34.8459 22.9022 34.7608 22.9146 34.6778 22.9402C33.6548 23.2545 32.5889 23.4138 31.5094 23.4138H29.3344C23.3947 23.4138 18.5625 18.5816 18.5625 12.6419C18.5625 6.70226 23.3948 1.87 29.3344 1.87H31.5094C37.4491 1.87 42.2812 6.70226 42.2812 12.6419C42.2812 16.0563 40.7146 19.1946 37.9829 21.2519Z" stroke="#C1A790"/>
<path d="M34.292 9.55456C34.168 7.75545 32.7177 6.30517 30.9185 6.18117C29.8986 6.11113 28.9253 6.45513 28.1803 7.15063C27.4455 7.83649 27.0242 8.80604 27.0242 9.81074C27.0242 10.2854 27.409 10.6701 27.8835 10.6701C28.3581 10.6701 28.7429 10.2854 28.7429 9.81074C28.7429 9.27285 28.9597 8.77433 29.3531 8.40712C29.7462 8.04025 30.2599 7.85867 30.8004 7.89596C31.7482 7.96127 32.5121 8.72517 32.5774 9.67281C32.6434 10.6299 32.0154 11.4757 31.0844 11.684C30.33 11.8528 29.8032 12.5083 29.8032 13.2781V15.3427C29.8032 15.8173 30.188 16.2021 30.6626 16.2021C31.1372 16.2021 31.522 15.8173 31.5219 15.3427V13.3467C33.2535 12.9284 34.4153 11.3439 34.292 9.55456Z" fill="#C1A790"/>
<path d="M34.292 9.55456C34.168 7.75545 32.7177 6.30517 30.9185 6.18117C29.8986 6.11113 28.9253 6.45513 28.1803 7.15063C27.4455 7.83649 27.0242 8.80604 27.0242 9.81074C27.0242 10.2854 27.409 10.6701 27.8835 10.6701C28.3581 10.6701 28.7429 10.2854 28.7429 9.81074C28.7429 9.27285 28.9597 8.77433 29.3531 8.40712C29.7462 8.04025 30.2599 7.85867 30.8004 7.89596C31.7482 7.96127 32.5121 8.72517 32.5774 9.67281C32.6434 10.6299 32.0154 11.4757 31.0844 11.684C30.33 11.8528 29.8032 12.5083 29.8032 13.2781V15.3427C29.8032 15.8173 30.188 16.2021 30.6626 16.2021C31.1372 16.2021 31.522 15.8173 31.5219 15.3427V13.3467C33.2535 12.9284 34.4153 11.3439 34.292 9.55456Z" stroke="#C1A790"/>
<path d="M31.2701 18.1346C31.1102 17.9748 30.8885 17.8828 30.6625 17.8828C30.4365 17.8828 30.2147 17.9748 30.0549 18.1346C29.8951 18.2945 29.8031 18.5162 29.8031 18.7422C29.8031 18.9691 29.8951 19.1908 30.0549 19.3506C30.2147 19.5105 30.4365 19.6016 30.6625 19.6016C30.8885 19.6016 31.1102 19.5105 31.2701 19.3506C31.4299 19.1899 31.5219 18.9691 31.5219 18.7422C31.5219 18.5162 31.4298 18.2945 31.2701 18.1346Z" fill="#C1A790"/>
<path d="M31.2701 18.1346C31.1102 17.9748 30.8885 17.8828 30.6625 17.8828C30.4365 17.8828 30.2147 17.9748 30.0549 18.1346C29.8951 18.2945 29.8031 18.5162 29.8031 18.7422C29.8031 18.9691 29.8951 19.1908 30.0549 19.3506C30.2147 19.5105 30.4365 19.6016 30.6625 19.6016C30.8885 19.6016 31.1102 19.5105 31.2701 19.3506C31.4299 19.1899 31.5219 18.9691 31.5219 18.7422C31.5219 18.5162 31.4298 18.2945 31.2701 18.1346Z" stroke="#C1A790"/>
<path d="M23.6328 26.7919H5.5C5.02545 26.7919 4.64062 27.1766 4.64062 27.6512C4.64062 28.1259 5.02545 28.5106 5.5 28.5106H23.6328C24.1074 28.5106 24.4922 28.1259 24.4922 27.6512C24.4922 27.1766 24.1074 26.7919 23.6328 26.7919Z" fill="#C1A790"/>
<path d="M23.6328 26.7919H5.5C5.02545 26.7919 4.64062 27.1766 4.64062 27.6512C4.64062 28.1259 5.02545 28.5106 5.5 28.5106H23.6328C24.1074 28.5106 24.4922 28.1259 24.4922 27.6512C24.4922 27.1766 24.1074 26.7919 23.6328 26.7919Z" stroke="#C1A790"/>
<path d="M24.2403 31.8562C24.0805 31.6963 23.8588 31.6044 23.6328 31.6044C23.4068 31.6044 23.1851 31.6963 23.0252 31.8562C22.8653 32.016 22.7734 32.2377 22.7734 32.4637C22.7734 32.6898 22.8654 32.9115 23.0252 33.0713C23.1851 33.2312 23.4068 33.3231 23.6328 33.3231C23.8588 33.3231 24.0805 33.2312 24.2403 33.0713C24.4002 32.9115 24.4922 32.6906 24.4922 32.4637C24.4922 32.2377 24.4001 32.016 24.2403 31.8562Z" fill="#C1A790"/>
<path d="M24.2403 31.8562C24.0805 31.6963 23.8588 31.6044 23.6328 31.6044C23.4068 31.6044 23.1851 31.6963 23.0252 31.8562C22.8653 32.016 22.7734 32.2377 22.7734 32.4637C22.7734 32.6898 22.8654 32.9115 23.0252 33.0713C23.1851 33.2312 23.4068 33.3231 23.6328 33.3231C23.8588 33.3231 24.0805 33.2312 24.2403 33.0713C24.4002 32.9115 24.4922 32.6906 24.4922 32.4637C24.4922 32.2377 24.4001 32.016 24.2403 31.8562Z" stroke="#C1A790"/>
<path d="M20.2526 31.6044H5.5C5.02545 31.6044 4.64062 31.9891 4.64062 32.4637C4.64062 32.9384 5.02545 33.3231 5.5 33.3231H20.2526C20.7273 33.3231 21.112 32.9384 21.112 32.4637C21.112 31.9891 20.7272 31.6044 20.2526 31.6044Z" fill="#C1A790"/>
<path d="M20.2526 31.6044H5.5C5.02545 31.6044 4.64062 31.9891 4.64062 32.4637C4.64062 32.9384 5.02545 33.3231 5.5 33.3231H20.2526C20.7273 33.3231 21.112 32.9384 21.112 32.4637C21.112 31.9891 20.7272 31.6044 20.2526 31.6044Z" stroke="#C1A790"/>
<path d="M18.0469 21.9794H5.5C5.02545 21.9794 4.64062 22.3641 4.64062 22.8387C4.64062 23.3134 5.02545 23.6981 5.5 23.6981H18.0469C18.5215 23.6981 18.9062 23.3134 18.9062 22.8387C18.9062 22.3641 18.5214 21.9794 18.0469 21.9794Z" fill="#C1A790"/>
<path d="M18.0469 21.9794H5.5C5.02545 21.9794 4.64062 22.3641 4.64062 22.8387C4.64062 23.3134 5.02545 23.6981 5.5 23.6981H18.0469C18.5215 23.6981 18.9062 23.3134 18.9062 22.8387C18.9062 22.3641 18.5214 21.9794 18.0469 21.9794Z" stroke="#C1A790"/>
</svg>
