<svg width="42" height="43" viewBox="0 0 42 43" fill="none" xmlns="http://www.w3.org/2000/svg">
<path d="M40.1075 30.7453L33.8795 25.4494C33.8506 25.4251 33.8202 25.4027 33.7885 25.3825C32.1546 24.3423 30.0567 24.5727 28.6868 25.9423L25.2912 29.3376C25.056 29.5731 24.7051 29.6426 24.3975 29.5157C20.5632 27.9296 17.4133 25.5417 15.0354 22.4191C13.222 20.0379 12.5683 18.1458 12.4821 17.8792C12.4719 17.8221 12.4556 17.7654 12.4325 17.71C12.3053 17.4024 12.3748 17.0521 12.6106 16.8169L16.006 13.4206C17.3758 12.0508 17.6059 9.9529 16.5658 8.31901C16.5574 8.30587 16.5488 8.29305 16.5398 8.28024L12.0422 2.03016C10.6272 -0.165135 7.54489 -0.496785 5.69502 1.35276L5.01506 2.03272C5.01474 2.03337 5.0141 2.03401 5.01346 2.03433L2.58584 4.46194C-0.308961 7.35706 -0.782563 11.7073 1.21663 17.0432C2.92903 21.6138 6.35704 26.6161 10.8691 31.1282C15.4878 35.7469 20.6253 39.2384 25.3351 40.9594C29.9968 42.6625 34.9555 42.8724 38.4652 39.3624L40.7547 37.0732C42.5963 35.2313 42.2749 32.1693 40.1075 30.7453ZM32.8631 26.7382L39.0856 32.0296C39.1141 32.0539 39.1445 32.0763 39.1763 32.0965C40.5054 32.9428 40.7067 34.8013 39.5944 35.9132L39.4246 36.0834L28.8115 28.1372L29.8468 27.1022C30.6559 26.2928 31.8889 26.1464 32.8631 26.7382ZM10.6717 2.93154C10.68 2.94468 10.6887 2.95782 10.6976 2.97032L15.1933 9.21815C15.8041 10.1958 15.6628 11.4439 14.846 12.2607L13.8427 13.2643L6.66241 2.70532L6.85499 2.51274C7.97171 1.39602 9.82863 1.60719 10.6717 2.93154ZM25.8978 39.4185C21.4079 37.7778 16.4825 34.4216 12.0291 29.9682C7.67883 25.6183 4.38444 20.8236 2.75247 16.4677C1.52745 13.1979 0.705535 8.66219 3.74582 5.62223L5.48161 3.88612L12.6619 14.4451L11.451 15.6566C10.7621 16.3443 10.5454 17.362 10.8893 18.2682C11.1482 19.3307 12.3396 21.5363 13.5415 23.1615C15.3103 25.5533 18.5207 28.8598 23.7704 31.0317C24.6929 31.4134 25.7449 31.2038 26.4512 30.4979L27.6397 29.3091L38.2528 37.2552L37.3053 38.2024C34.0461 41.4619 29.303 40.6627 25.8978 39.4185Z" fill="#C1A790"/>
</svg>
