<svg width="44" height="45" viewBox="0 0 44 45" fill="none" xmlns="http://www.w3.org/2000/svg">
<g clip-path="url(#clip0)">
<mask id="path-1-outside-1" maskUnits="userSpaceOnUse" x="-0.0546875" y="-0.848755" width="44" height="46" fill="black">
<rect fill="white" x="-0.0546875" y="-0.848755" width="44" height="46"/>
<path d="M42.9773 10.1074C42.896 9.95689 42.7583 9.84482 42.5943 9.79592L40.4501 9.15638L40.8354 7.86766C40.9446 7.50784 40.906 7.12653 40.7268 6.79396C40.6563 6.66316 40.5671 6.54697 40.4636 6.44685L41.1781 4.05865C41.5533 2.79666 40.8331 1.4648 39.5738 1.0902C38.9634 0.907495 38.317 0.974183 37.7542 1.27823C37.1921 1.58193 36.7828 2.08475 36.6019 2.6931L35.8873 5.08139C35.4218 5.16879 35.0163 5.48719 34.8357 5.94756L29.3074 0.681995L29.2106 0.58944C29.0949 0.478237 28.9862 0.375112 28.8606 0.296394C28.855 0.292526 28.8493 0.288745 28.8435 0.28505C28.8412 0.283675 28.839 0.282214 28.8368 0.280925C28.7872 0.249472 28.7332 0.224464 28.6756 0.207448C28.5788 0.172815 28.4707 0.151245 28.3413 0.151245H2.1658C1.49282 0.151245 0.945312 0.698495 0.945312 1.37113V19.8144C0.945312 20.1705 1.23389 20.459 1.58984 20.459C1.9458 20.459 2.23438 20.1705 2.23438 19.8144V1.44031H27.8474L27.8432 5.16226C27.8432 6.7961 29.1723 8.1253 30.8061 8.1253H34.1785L31.5284 16.9871C31.4264 17.3281 31.6202 17.6872 31.9613 17.7892C32.3024 17.8916 32.6614 17.6974 32.7634 17.3564L35.6538 7.69097C35.6593 7.67516 35.664 7.65917 35.6683 7.64285L36.0314 6.42838C36.0492 6.36848 36.1197 6.3323 36.181 6.35035L39.5229 7.34782C39.5604 7.35891 39.5812 7.38521 39.5919 7.40523C39.6027 7.42517 39.6131 7.45671 39.6011 7.49607L39.0314 9.40121C39.031 9.40267 39.0303 9.40405 39.0299 9.40551C39.0295 9.40697 39.0293 9.40843 39.0289 9.40981L32.0007 32.9141L30.8345 32.5662L28.4309 31.8491L31.9115 20.2113C32.0135 19.8702 31.8197 19.5111 31.4786 19.4091C31.1377 19.307 30.7785 19.5008 30.6765 19.8418L27.011 32.0976C27.0099 32.1013 27.0093 32.1052 27.0082 32.1091C27.006 32.1167 27.0044 32.1245 27.0025 32.1322C26.9986 32.1484 26.9953 32.1648 26.9927 32.1811C26.9914 32.1893 26.9902 32.1973 26.9892 32.2056C26.987 32.2235 26.9858 32.2413 26.9851 32.2593C26.9849 32.2657 26.9844 32.272 26.9843 32.2785C26.9841 32.303 26.9852 32.3274 26.9879 32.3518C26.988 32.3525 26.9879 32.3533 26.988 32.3541L27.3444 35.534L27.5993 37.785C27.355 37.6249 27.1715 37.3461 26.9513 36.9867C26.6808 36.5453 26.3101 35.941 25.6004 36.0743C25.0043 36.1893 24.724 36.6875 24.4528 37.1692C24.3121 37.4191 24.1667 37.6776 23.9639 37.9349C23.8141 38.1255 23.7129 38.1796 23.6804 38.1815C23.6545 38.1837 23.5046 38.1693 23.0821 37.749C21.9767 36.6522 21.1169 37.4004 20.7037 37.7598C20.5495 37.8941 20.3746 38.0462 20.2597 38.0669C20.151 38.0853 19.953 37.9746 19.7278 37.768C19.4654 37.5274 19.0578 37.545 18.8171 37.8075C18.5766 38.0699 18.5942 38.4776 18.8566 38.7182C20.1758 39.9279 21.1038 39.1205 21.5499 38.7323C21.6588 38.6375 21.8412 38.4789 21.9037 38.4672C21.9045 38.4673 21.9919 38.4832 22.1736 38.6634C22.5773 39.0652 23.0692 39.4707 23.6758 39.4707C23.7032 39.4707 23.7309 39.4699 23.7587 39.4683C24.2043 39.4413 24.6143 39.1934 24.977 38.7324C25.2412 38.397 25.4271 38.0668 25.5765 37.8014C25.63 37.7064 25.6939 37.5928 25.7525 37.4993C25.7869 37.5536 25.8218 37.6105 25.8526 37.6606C26.2145 38.2507 26.8831 39.3393 28.3694 39.2152C28.372 39.2152 28.3748 39.2158 28.3773 39.2158C28.4731 39.2158 28.5581 39.1936 28.6328 39.1603C28.6438 39.1557 28.6543 39.1504 28.665 39.1451C28.6671 39.144 28.6693 39.143 28.6715 39.1419C28.7029 39.126 28.7327 39.1078 28.7606 39.0873C28.852 39.0233 28.9202 38.9494 28.9645 38.9013C28.9719 38.8933 28.9791 38.8852 28.986 38.8767L32.9296 34.1277C32.9355 34.1206 32.9402 34.1128 32.9458 34.1056C32.9528 34.0963 32.9597 34.0871 32.9663 34.0775C32.9799 34.0575 32.9921 34.0368 33.0033 34.0156C33.0066 34.0092 33.0106 34.0032 33.0138 33.9967C33.0277 33.968 33.0389 33.9383 33.0484 33.9081C33.0492 33.9054 33.0505 33.9032 33.0513 33.9005L34.8642 27.8377V42.8622H2.23438V22.7937C2.23438 22.4377 1.9458 22.1492 1.58984 22.1492C1.23389 22.1492 0.945312 22.4377 0.945312 22.7937V42.929C0.945312 43.6029 1.49282 44.1512 2.1658 44.1512H34.9304C35.6048 44.1512 36.1533 43.6029 36.1533 42.9289V23.5265L40.0809 10.3914L41.6079 10.8469L38.9887 19.6054C38.8867 19.9464 39.0805 20.3056 39.4216 20.4076C39.4832 20.426 39.5453 20.4347 39.6065 20.4347C39.884 20.4347 40.1402 20.2541 40.2238 19.9746L43.0278 10.5982C43.0767 10.4344 43.0586 10.2578 42.9773 10.1074ZM37.8372 3.06152C37.9202 2.78265 38.1083 2.55208 38.3671 2.41235C38.6266 2.27201 38.9238 2.24116 39.2052 2.32529C39.7845 2.49768 40.1153 3.11042 39.9429 3.69015L39.2734 5.92796L37.1678 5.2995L37.8372 3.06152ZM29.1323 5.16295L29.1355 2.29796L33.8998 6.83615H30.806C29.8831 6.83615 29.1323 6.08523 29.1323 5.16295ZM28.8153 37.0645L28.3778 33.1784L31.3146 34.0545L28.8153 37.0645Z"/>
</mask>
<path d="M42.9773 10.1074C42.896 9.95689 42.7583 9.84482 42.5943 9.79592L40.4501 9.15638L40.8354 7.86766C40.9446 7.50784 40.906 7.12653 40.7268 6.79396C40.6563 6.66316 40.5671 6.54697 40.4636 6.44685L41.1781 4.05865C41.5533 2.79666 40.8331 1.4648 39.5738 1.0902C38.9634 0.907495 38.317 0.974183 37.7542 1.27823C37.1921 1.58193 36.7828 2.08475 36.6019 2.6931L35.8873 5.08139C35.4218 5.16879 35.0163 5.48719 34.8357 5.94756L29.3074 0.681995L29.2106 0.58944C29.0949 0.478237 28.9862 0.375112 28.8606 0.296394C28.855 0.292526 28.8493 0.288745 28.8435 0.28505C28.8412 0.283675 28.839 0.282214 28.8368 0.280925C28.7872 0.249472 28.7332 0.224464 28.6756 0.207448C28.5788 0.172815 28.4707 0.151245 28.3413 0.151245H2.1658C1.49282 0.151245 0.945312 0.698495 0.945312 1.37113V19.8144C0.945312 20.1705 1.23389 20.459 1.58984 20.459C1.9458 20.459 2.23438 20.1705 2.23438 19.8144V1.44031H27.8474L27.8432 5.16226C27.8432 6.7961 29.1723 8.1253 30.8061 8.1253H34.1785L31.5284 16.9871C31.4264 17.3281 31.6202 17.6872 31.9613 17.7892C32.3024 17.8916 32.6614 17.6974 32.7634 17.3564L35.6538 7.69097C35.6593 7.67516 35.664 7.65917 35.6683 7.64285L36.0314 6.42838C36.0492 6.36848 36.1197 6.3323 36.181 6.35035L39.5229 7.34782C39.5604 7.35891 39.5812 7.38521 39.5919 7.40523C39.6027 7.42517 39.6131 7.45671 39.6011 7.49607L39.0314 9.40121C39.031 9.40267 39.0303 9.40405 39.0299 9.40551C39.0295 9.40697 39.0293 9.40843 39.0289 9.40981L32.0007 32.9141L30.8345 32.5662L28.4309 31.8491L31.9115 20.2113C32.0135 19.8702 31.8197 19.5111 31.4786 19.4091C31.1377 19.307 30.7785 19.5008 30.6765 19.8418L27.011 32.0976C27.0099 32.1013 27.0093 32.1052 27.0082 32.1091C27.006 32.1167 27.0044 32.1245 27.0025 32.1322C26.9986 32.1484 26.9953 32.1648 26.9927 32.1811C26.9914 32.1893 26.9902 32.1973 26.9892 32.2056C26.987 32.2235 26.9858 32.2413 26.9851 32.2593C26.9849 32.2657 26.9844 32.272 26.9843 32.2785C26.9841 32.303 26.9852 32.3274 26.9879 32.3518C26.988 32.3525 26.9879 32.3533 26.988 32.3541L27.3444 35.534L27.5993 37.785C27.355 37.6249 27.1715 37.3461 26.9513 36.9867C26.6808 36.5453 26.3101 35.941 25.6004 36.0743C25.0043 36.1893 24.724 36.6875 24.4528 37.1692C24.3121 37.4191 24.1667 37.6776 23.9639 37.9349C23.8141 38.1255 23.7129 38.1796 23.6804 38.1815C23.6545 38.1837 23.5046 38.1693 23.0821 37.749C21.9767 36.6522 21.1169 37.4004 20.7037 37.7598C20.5495 37.8941 20.3746 38.0462 20.2597 38.0669C20.151 38.0853 19.953 37.9746 19.7278 37.768C19.4654 37.5274 19.0578 37.545 18.8171 37.8075C18.5766 38.0699 18.5942 38.4776 18.8566 38.7182C20.1758 39.9279 21.1038 39.1205 21.5499 38.7323C21.6588 38.6375 21.8412 38.4789 21.9037 38.4672C21.9045 38.4673 21.9919 38.4832 22.1736 38.6634C22.5773 39.0652 23.0692 39.4707 23.6758 39.4707C23.7032 39.4707 23.7309 39.4699 23.7587 39.4683C24.2043 39.4413 24.6143 39.1934 24.977 38.7324C25.2412 38.397 25.4271 38.0668 25.5765 37.8014C25.63 37.7064 25.6939 37.5928 25.7525 37.4993C25.7869 37.5536 25.8218 37.6105 25.8526 37.6606C26.2145 38.2507 26.8831 39.3393 28.3694 39.2152C28.372 39.2152 28.3748 39.2158 28.3773 39.2158C28.4731 39.2158 28.5581 39.1936 28.6328 39.1603C28.6438 39.1557 28.6543 39.1504 28.665 39.1451C28.6671 39.144 28.6693 39.143 28.6715 39.1419C28.7029 39.126 28.7327 39.1078 28.7606 39.0873C28.852 39.0233 28.9202 38.9494 28.9645 38.9013C28.9719 38.8933 28.9791 38.8852 28.986 38.8767L32.9296 34.1277C32.9355 34.1206 32.9402 34.1128 32.9458 34.1056C32.9528 34.0963 32.9597 34.0871 32.9663 34.0775C32.9799 34.0575 32.9921 34.0368 33.0033 34.0156C33.0066 34.0092 33.0106 34.0032 33.0138 33.9967C33.0277 33.968 33.0389 33.9383 33.0484 33.9081C33.0492 33.9054 33.0505 33.9032 33.0513 33.9005L34.8642 27.8377V42.8622H2.23438V22.7937C2.23438 22.4377 1.9458 22.1492 1.58984 22.1492C1.23389 22.1492 0.945312 22.4377 0.945312 22.7937V42.929C0.945312 43.6029 1.49282 44.1512 2.1658 44.1512H34.9304C35.6048 44.1512 36.1533 43.6029 36.1533 42.9289V23.5265L40.0809 10.3914L41.6079 10.8469L38.9887 19.6054C38.8867 19.9464 39.0805 20.3056 39.4216 20.4076C39.4832 20.426 39.5453 20.4347 39.6065 20.4347C39.884 20.4347 40.1402 20.2541 40.2238 19.9746L43.0278 10.5982C43.0767 10.4344 43.0586 10.2578 42.9773 10.1074ZM37.8372 3.06152C37.9202 2.78265 38.1083 2.55208 38.3671 2.41235C38.6266 2.27201 38.9238 2.24116 39.2052 2.32529C39.7845 2.49768 40.1153 3.11042 39.9429 3.69015L39.2734 5.92796L37.1678 5.2995L37.8372 3.06152ZM29.1323 5.16295L29.1355 2.29796L33.8998 6.83615H30.806C29.8831 6.83615 29.1323 6.08523 29.1323 5.16295ZM28.8153 37.0645L28.3778 33.1784L31.3146 34.0545L28.8153 37.0645Z" fill="#C1A790"/>
<path d="M42.9773 10.1074C42.896 9.95689 42.7583 9.84482 42.5943 9.79592L40.4501 9.15638L40.8354 7.86766C40.9446 7.50784 40.906 7.12653 40.7268 6.79396C40.6563 6.66316 40.5671 6.54697 40.4636 6.44685L41.1781 4.05865C41.5533 2.79666 40.8331 1.4648 39.5738 1.0902C38.9634 0.907495 38.317 0.974183 37.7542 1.27823C37.1921 1.58193 36.7828 2.08475 36.6019 2.6931L35.8873 5.08139C35.4218 5.16879 35.0163 5.48719 34.8357 5.94756L29.3074 0.681995L29.2106 0.58944C29.0949 0.478237 28.9862 0.375112 28.8606 0.296394C28.855 0.292526 28.8493 0.288745 28.8435 0.28505C28.8412 0.283675 28.839 0.282214 28.8368 0.280925C28.7872 0.249472 28.7332 0.224464 28.6756 0.207448C28.5788 0.172815 28.4707 0.151245 28.3413 0.151245H2.1658C1.49282 0.151245 0.945312 0.698495 0.945312 1.37113V19.8144C0.945312 20.1705 1.23389 20.459 1.58984 20.459C1.9458 20.459 2.23438 20.1705 2.23438 19.8144V1.44031H27.8474L27.8432 5.16226C27.8432 6.7961 29.1723 8.1253 30.8061 8.1253H34.1785L31.5284 16.9871C31.4264 17.3281 31.6202 17.6872 31.9613 17.7892C32.3024 17.8916 32.6614 17.6974 32.7634 17.3564L35.6538 7.69097C35.6593 7.67516 35.664 7.65917 35.6683 7.64285L36.0314 6.42838C36.0492 6.36848 36.1197 6.3323 36.181 6.35035L39.5229 7.34782C39.5604 7.35891 39.5812 7.38521 39.5919 7.40523C39.6027 7.42517 39.6131 7.45671 39.6011 7.49607L39.0314 9.40121C39.031 9.40267 39.0303 9.40405 39.0299 9.40551C39.0295 9.40697 39.0293 9.40843 39.0289 9.40981L32.0007 32.9141L30.8345 32.5662L28.4309 31.8491L31.9115 20.2113C32.0135 19.8702 31.8197 19.5111 31.4786 19.4091C31.1377 19.307 30.7785 19.5008 30.6765 19.8418L27.011 32.0976C27.0099 32.1013 27.0093 32.1052 27.0082 32.1091C27.006 32.1167 27.0044 32.1245 27.0025 32.1322C26.9986 32.1484 26.9953 32.1648 26.9927 32.1811C26.9914 32.1893 26.9902 32.1973 26.9892 32.2056C26.987 32.2235 26.9858 32.2413 26.9851 32.2593C26.9849 32.2657 26.9844 32.272 26.9843 32.2785C26.9841 32.303 26.9852 32.3274 26.9879 32.3518C26.988 32.3525 26.9879 32.3533 26.988 32.3541L27.3444 35.534L27.5993 37.785C27.355 37.6249 27.1715 37.3461 26.9513 36.9867C26.6808 36.5453 26.3101 35.941 25.6004 36.0743C25.0043 36.1893 24.724 36.6875 24.4528 37.1692C24.3121 37.4191 24.1667 37.6776 23.9639 37.9349C23.8141 38.1255 23.7129 38.1796 23.6804 38.1815C23.6545 38.1837 23.5046 38.1693 23.0821 37.749C21.9767 36.6522 21.1169 37.4004 20.7037 37.7598C20.5495 37.8941 20.3746 38.0462 20.2597 38.0669C20.151 38.0853 19.953 37.9746 19.7278 37.768C19.4654 37.5274 19.0578 37.545 18.8171 37.8075C18.5766 38.0699 18.5942 38.4776 18.8566 38.7182C20.1758 39.9279 21.1038 39.1205 21.5499 38.7323C21.6588 38.6375 21.8412 38.4789 21.9037 38.4672C21.9045 38.4673 21.9919 38.4832 22.1736 38.6634C22.5773 39.0652 23.0692 39.4707 23.6758 39.4707C23.7032 39.4707 23.7309 39.4699 23.7587 39.4683C24.2043 39.4413 24.6143 39.1934 24.977 38.7324C25.2412 38.397 25.4271 38.0668 25.5765 37.8014C25.63 37.7064 25.6939 37.5928 25.7525 37.4993C25.7869 37.5536 25.8218 37.6105 25.8526 37.6606C26.2145 38.2507 26.8831 39.3393 28.3694 39.2152C28.372 39.2152 28.3748 39.2158 28.3773 39.2158C28.4731 39.2158 28.5581 39.1936 28.6328 39.1603C28.6438 39.1557 28.6543 39.1504 28.665 39.1451C28.6671 39.144 28.6693 39.143 28.6715 39.1419C28.7029 39.126 28.7327 39.1078 28.7606 39.0873C28.852 39.0233 28.9202 38.9494 28.9645 38.9013C28.9719 38.8933 28.9791 38.8852 28.986 38.8767L32.9296 34.1277C32.9355 34.1206 32.9402 34.1128 32.9458 34.1056C32.9528 34.0963 32.9597 34.0871 32.9663 34.0775C32.9799 34.0575 32.9921 34.0368 33.0033 34.0156C33.0066 34.0092 33.0106 34.0032 33.0138 33.9967C33.0277 33.968 33.0389 33.9383 33.0484 33.9081C33.0492 33.9054 33.0505 33.9032 33.0513 33.9005L34.8642 27.8377V42.8622H2.23438V22.7937C2.23438 22.4377 1.9458 22.1492 1.58984 22.1492C1.23389 22.1492 0.945312 22.4377 0.945312 22.7937V42.929C0.945312 43.6029 1.49282 44.1512 2.1658 44.1512H34.9304C35.6048 44.1512 36.1533 43.6029 36.1533 42.9289V23.5265L40.0809 10.3914L41.6079 10.8469L38.9887 19.6054C38.8867 19.9464 39.0805 20.3056 39.4216 20.4076C39.4832 20.426 39.5453 20.4347 39.6065 20.4347C39.884 20.4347 40.1402 20.2541 40.2238 19.9746L43.0278 10.5982C43.0767 10.4344 43.0586 10.2578 42.9773 10.1074ZM37.8372 3.06152C37.9202 2.78265 38.1083 2.55208 38.3671 2.41235C38.6266 2.27201 38.9238 2.24116 39.2052 2.32529C39.7845 2.49768 40.1153 3.11042 39.9429 3.69015L39.2734 5.92796L37.1678 5.2995L37.8372 3.06152ZM29.1323 5.16295L29.1355 2.29796L33.8998 6.83615H30.806C29.8831 6.83615 29.1323 6.08523 29.1323 5.16295ZM28.8153 37.0645L28.3778 33.1784L31.3146 34.0545L28.8153 37.0645Z" stroke="#C1A790" stroke-width="0.4" mask="url(#path-1-outside-1)"/>
<path d="M9.00352 17.5496C9.00352 17.9608 9.33687 18.2941 9.74805 18.2941H27.2481C27.6593 18.2941 27.9926 17.9608 27.9926 17.5496C27.9926 17.1383 27.6593 16.805 27.2481 16.805H9.74805C9.33687 16.805 9.00352 17.1384 9.00352 17.5496Z" fill="#C1A790" stroke="#C1A790" stroke-width="0.2"/>
<path d="M9.74805 23.3041H26.1816C26.5928 23.3041 26.9261 22.9709 26.9261 22.5596C26.9261 22.1483 26.5928 21.815 26.1816 21.815H9.74805C9.33687 21.815 9.00352 22.1483 9.00352 22.5596C9.00352 22.9709 9.33687 23.3041 9.74805 23.3041Z" fill="#C1A790" stroke="#C1A790" stroke-width="0.2"/>
<path d="M9.74805 28.3142H24.9102C25.3213 28.3142 25.6547 27.981 25.6547 27.5697C25.6547 27.1584 25.3213 26.8252 24.9102 26.8252H9.74805C9.33687 26.8252 9.00352 27.1584 9.00352 27.5697C9.00352 27.981 9.33687 28.3142 9.74805 28.3142Z" fill="#C1A790" stroke="#C1A790" stroke-width="0.2"/>
<path d="M9.74805 33.3242H20.1319C20.543 33.3242 20.8764 32.991 20.8764 32.5797C20.8764 32.1684 20.543 31.8352 20.1319 31.8352H9.74805C9.33687 31.8352 9.00352 32.1684 9.00352 32.5797C9.00352 32.991 9.33687 33.3242 9.74805 33.3242Z" fill="#C1A790" stroke="#C1A790" stroke-width="0.2"/>
<path d="M25.098 13.34V13.3401H25.198C25.8508 13.3401 26.3819 12.8094 26.3819 12.1568V9.55794C26.3819 8.90531 25.8508 8.37461 25.198 8.37461H11.0145C10.3617 8.37461 9.83079 8.90532 9.83079 9.55794V12.1567C9.83079 12.8093 10.3617 13.34 11.0145 13.34H25.098ZM11.3198 9.86359H24.8929V11.851H11.3198V9.86359Z" fill="#C1A790" stroke="#C1A790" stroke-width="0.2"/>
</g>
<defs>
<clipPath id="clip0">
<rect width="44" height="44" fill="white" transform="translate(0 0.151245)"/>
</clipPath>
</defs>
</svg>
