<svg width="47" height="47" viewBox="0 0 47 47" fill="none" xmlns="http://www.w3.org/2000/svg">
<rect width="46.2188" height="46.2188" rx="4.07812" fill="#C1A790"/>
<g clip-path="url(#clip0)">
<path d="M23.1094 18.1391C20.3423 18.1391 18.0914 20.39 18.0914 23.1571C18.0914 25.9242 20.3423 28.1751 23.1094 28.1751C25.8764 28.1751 28.1274 25.9242 28.1274 23.1571C28.1274 20.39 25.8764 18.1391 23.1094 18.1391ZM23.1094 18.1391C20.3423 18.1391 18.0914 20.39 18.0914 23.1571C18.0914 25.9242 20.3423 28.1751 23.1094 28.1751C25.8764 28.1751 28.1274 25.9242 28.1274 23.1571C28.1274 20.39 25.8764 18.1391 23.1094 18.1391ZM31.7595 10.8749H14.4593C12.4808 10.8749 10.875 12.4807 10.875 14.4592V31.7594C10.875 33.7379 12.4808 35.3437 14.4593 35.3437H31.7595C33.738 35.3437 35.3438 33.7379 35.3438 31.7594V14.4592C35.3438 12.4807 33.738 10.8749 31.7595 10.8749ZM23.1094 29.6088C19.5538 29.6088 16.6577 26.7127 16.6577 23.1571C16.6577 19.6014 19.5538 16.7054 23.1094 16.7054C26.6649 16.7054 29.5611 19.6014 29.5611 23.1571C29.5611 26.7127 26.6649 29.6088 23.1094 29.6088ZM30.9948 16.7054C30.2063 16.7054 29.5611 16.0602 29.5611 15.2717C29.5611 14.4831 30.2063 13.838 30.9948 13.838C31.7834 13.838 32.4285 14.4831 32.4285 15.2717C32.4285 16.0602 31.7834 16.7054 30.9948 16.7054ZM23.1094 18.1391C20.3423 18.1391 18.0914 20.39 18.0914 23.1571C18.0914 25.9242 20.3423 28.1751 23.1094 28.1751C25.8764 28.1751 28.1274 25.9242 28.1274 23.1571C28.1274 20.39 25.8764 18.1391 23.1094 18.1391ZM23.1094 18.1391C20.3423 18.1391 18.0914 20.39 18.0914 23.1571C18.0914 25.9242 20.3423 28.1751 23.1094 28.1751C25.8764 28.1751 28.1274 25.9242 28.1274 23.1571C28.1274 20.39 25.8764 18.1391 23.1094 18.1391ZM23.1094 18.1391C20.3423 18.1391 18.0914 20.39 18.0914 23.1571C18.0914 25.9242 20.3423 28.1751 23.1094 28.1751C25.8764 28.1751 28.1274 25.9242 28.1274 23.1571C28.1274 20.39 25.8764 18.1391 23.1094 18.1391Z" fill="white"/>
</g>
<defs>
<clipPath id="clip0">
<rect width="24.4688" height="24.4688" fill="white" transform="translate(10.875 10.8749)"/>
</clipPath>
</defs>
</svg>
