<svg width="88" height="86" viewBox="0 0 88 86" fill="none" xmlns="http://www.w3.org/2000/svg">
<ellipse cx="44" cy="43" rx="44" ry="43" fill="#C1A790" fill-opacity="0.48"/>
<ellipse cx="44" cy="43" rx="35" ry="34" fill="#C1A790"/>
<g clip-path="url(#clip0)">
<path d="M52.631 27.7672H27.1398C25.9599 27.7672 25 28.7271 25 29.9069V45.2002C25 46.3801 25.9599 47.34 27.1398 47.34H28.7927V53.0333C28.7927 53.3958 29.0111 53.7227 29.3461 53.8615C29.457 53.9076 29.5735 53.9298 29.689 53.9298C29.9223 53.9298 30.1515 53.8387 30.3231 53.6672L36.6503 47.3401H37.9197C38.4148 47.3401 38.8161 46.9388 38.8161 46.4437C38.8161 45.9485 38.4147 45.5472 37.9197 45.5472C37.9197 45.5472 36.2357 45.5484 36.2181 45.5501C36.0094 45.5643 35.8046 45.6503 35.645 45.8098L30.5856 50.8692C30.5856 50.8692 30.584 46.387 30.5811 46.3637C30.5407 45.9061 30.1568 45.5472 29.6887 45.5472H27.1398C26.9485 45.5472 26.7929 45.3915 26.7929 45.2003V29.9069C26.7929 29.7156 26.9485 29.56 27.1398 29.56H52.631C52.8223 29.56 52.9779 29.7157 52.9779 29.9069V35.7743C52.9779 36.2694 53.3793 36.6707 53.8743 36.6707C54.3692 36.6707 54.7707 36.2694 54.7707 35.7743V29.9069C54.7707 28.7271 53.8108 27.7672 52.631 27.7672Z" fill="white"/>
<path d="M60.8603 38.7319H43.017C41.8371 38.7319 40.8772 39.6917 40.8772 40.8717V51.3046C40.8772 52.4845 41.8371 53.4444 43.017 53.4444H54.188L58.7139 57.9703C58.8854 58.1418 59.1146 58.2329 59.3479 58.2329C59.4634 58.2329 59.5799 58.2105 59.6908 58.1646C60.0257 58.0258 60.2442 57.699 60.2442 57.3364V53.4444H60.8603C62.0401 53.4444 63.0001 52.4845 63.0001 51.3046V40.8716C63.0001 39.6917 62.0403 38.7319 60.8603 38.7319ZM61.2073 51.3046C61.2073 51.4959 61.0517 51.6515 60.8604 51.6515H59.3481C58.8764 51.6515 58.4906 52.0161 58.4552 52.4788C58.4529 52.4984 58.4514 55.1722 58.4514 55.1722L55.1966 51.9174C55.1932 51.914 55.1896 51.9108 55.1862 51.9074C55.1735 51.8949 55.1614 51.8841 55.1499 51.8743C54.9922 51.736 54.786 51.6515 54.5598 51.6515H43.017C42.8257 51.6515 42.6701 51.4958 42.6701 51.3046V40.8716C42.6701 40.6803 42.8257 40.5247 43.017 40.5247H60.8604C61.0517 40.5247 61.2073 40.6803 61.2073 40.8716V51.3046Z" fill="white"/>
<path d="M51.9388 45.1917C51.444 45.1917 51.0424 45.5933 51.0424 46.0881C51.0424 46.5829 51.444 46.9845 51.9388 46.9845C52.4337 46.9845 52.8352 46.5829 52.8352 46.0881C52.8352 45.5933 52.4336 45.1917 51.9388 45.1917Z" fill="white"/>
<path d="M48.0429 33.6938H31.728C31.2329 33.6938 30.8315 34.0951 30.8315 34.5902C30.8315 35.0853 31.233 35.4866 31.728 35.4866H48.0429C48.5379 35.4866 48.9393 35.0853 48.9393 34.5902C48.9393 34.0951 48.5379 33.6938 48.0429 33.6938Z" fill="white"/>
<path d="M37.9197 39.6205H31.728C31.2329 39.6205 30.8315 40.0218 30.8315 40.5169C30.8315 41.012 31.233 41.4133 31.728 41.4133H37.9197C38.4148 41.4133 38.8161 41.012 38.8161 40.5169C38.8161 40.0218 38.4147 39.6205 37.9197 39.6205Z" fill="white"/>
<path d="M47.773 45.1917C47.2783 45.1917 46.8766 45.5933 46.8766 46.0881C46.8766 46.5829 47.2783 46.9845 47.773 46.9845C48.2679 46.9845 48.6694 46.5829 48.6694 46.0881C48.6694 45.5933 48.2679 45.1917 47.773 45.1917Z" fill="white"/>
<path d="M56.1037 45.1917C55.6089 45.1917 55.2073 45.5933 55.2073 46.0881C55.2073 46.5829 55.6089 46.9845 56.1037 46.9845C56.5986 46.9845 57.0001 46.5829 57.0001 46.0881C57.0001 45.5933 56.5985 45.1917 56.1037 45.1917Z" fill="white"/>
</g>
<defs>
<clipPath id="clip0">
<rect width="38" height="38" fill="white" transform="translate(25 24)"/>
</clipPath>
</defs>
</svg>
