<svg width="88" height="86" viewBox="0 0 88 86" fill="none" xmlns="http://www.w3.org/2000/svg">
<ellipse cx="44" cy="43" rx="35" ry="34" fill="#C1A790"/>
<ellipse cx="44" cy="43" rx="44" ry="43" fill="#C1A790" fill-opacity="0.48"/>
<path d="M53.636 55.6201L53.6359 55.6202C50.8459 57.5899 47.5601 58.631 44.1326 58.631C42.349 58.631 40.5942 58.3477 38.9171 57.789L38.917 57.7889C38.6749 57.7085 38.41 57.7353 38.1891 57.8628L33.9282 60.3228C33.9282 60.3228 33.9282 60.3228 33.9282 60.3228C33.7986 60.3976 33.6906 60.3566 33.6309 60.3216L33.6308 60.3216C33.5798 60.2916 33.4785 60.2132 33.4806 60.061V60.059V60.059V60.0589V60.0589V60.0589V60.0589V60.0589V60.0588V60.0588V60.0588V60.0588V60.0588V60.0587V60.0587V60.0587V60.0587V60.0587V60.0586V60.0586V60.0586V60.0586V60.0586V60.0585V60.0585V60.0585V60.0585V60.0585V60.0584V60.0584V60.0584V60.0584V60.0584V60.0583V60.0583V60.0583V60.0583V60.0582V60.0582V60.0582V60.0582V60.0582V60.0581V60.0581V60.0581V60.0581V60.0581V60.058V60.058V60.058V60.058V60.058V60.0579V60.0579V60.0579V60.0579V60.0579V60.0578V60.0578V60.0578V60.0578V60.0578V60.0577V60.0577V60.0577V60.0577V60.0577V60.0576V60.0576V60.0576V60.0576V60.0576V60.0575V60.0575V60.0575V60.0575V60.0575V60.0574V60.0574V60.0574V60.0574V60.0574V60.0573V60.0573V60.0573V60.0573V60.0573V60.0572V60.0572V60.0572V60.0572V60.0571V60.0571V60.0571V60.0571V60.0571V60.057V60.057V60.057V60.057V60.057V60.0569V60.0569V60.0569V60.0569V60.0569V60.0568V60.0568V60.0568V60.0568V60.0568V60.0567V60.0567V60.0567V60.0567V60.0567V60.0566V60.0566V60.0566V60.0566V60.0566V60.0565V60.0565V60.0565V60.0565V60.0565V60.0564V60.0564V60.0564V60.0564V60.0564V60.0563V60.0563V60.0563V60.0563V60.0563V60.0562V60.0562V60.0562V60.0562V60.0561V60.0561V60.0561V60.0561V60.0561V60.056V60.056V60.056V60.056V60.056V60.0559V60.0559V60.0559V60.0559V60.0559V60.0558V60.0558V60.0558V60.0558V60.0558V60.0557V60.0557V60.0557V60.0557V60.0557V60.0556V60.0556V60.0556V60.0556V60.0556V60.0555V60.0555V60.0555V60.0555V60.0555V60.0554V60.0554V60.0554V60.0554V60.0554V60.0553V60.0553V60.0553V60.0553V60.0553V60.0552V60.0552V60.0552V60.0552V60.0552V60.0551V60.0551V60.0551V60.0551V60.055V60.055V60.055V60.055V60.055V60.0549V60.0549V60.0549V60.0549V60.0549V60.0548V60.0548V60.0548V60.0548V60.0548V60.0547V60.0547V60.0547V60.0547V60.0547V60.0546V60.0546V60.0546V60.0546V60.0546V60.0545V60.0545V60.0545V60.0545V60.0545V60.0544V60.0544V60.0544V60.0544V60.0544V60.0543V60.0543V60.0543V60.0543V60.0543V60.0542V60.0542V60.0542V60.0542V60.0542V60.0541V60.0541V60.0541V60.0541V60.0541V60.054V60.054V60.054V60.054V60.0539V60.0539V60.0539V60.0539V60.0539V60.0538V60.0538V60.0538V60.0538V60.0538V60.0537V60.0537V60.0537V60.0537V60.0537V60.0536V60.0536V60.0536V60.0536V60.0536V60.0535V60.0535V60.0535V60.0535V60.0535V60.0534V60.0534V60.0534V60.0534V60.0534V60.0533V60.0533V60.0533V60.0533V60.0533V60.0532V60.0532V60.0532V60.0532V60.0532V60.0531V60.0531V60.0531V60.0531V60.0531V60.053V60.053V60.053V60.053V60.0529V60.0529V60.0529V60.0529V60.0529V60.0528V60.0528V60.0528V60.0528V60.0528V60.0527V60.0527V60.0527V60.0527V60.0527V60.0526V60.0526V60.0526V60.0526V60.0526V60.0525V60.0525V60.0525V60.0525V60.0525V60.0524V60.0524V60.0524V60.0524V60.0524V60.0523V60.0523V60.0523V60.0523V60.0523V60.0522V60.0522V60.0522V60.0522V60.0522V60.0521V60.0521V60.0521V60.0521V60.0521V60.052V60.052V60.052V60.052V60.052V60.0519V60.0519V60.0519V60.0519V60.0518V60.0518V60.0518V60.0518V60.0518V60.0517V60.0517V60.0517V60.0517V60.0517V60.0516V60.0516V60.0516V60.0516V60.0516V60.0515V60.0515V60.0515V60.0515V60.0515V60.0514V60.0514V60.0514V60.0514V60.0514V60.0513V60.0513V60.0513V60.0513V60.0513V60.0512V60.0512V60.0512V60.0512V60.0512V60.0511V60.0511V60.0511V60.0511V60.0511V60.051V60.051V60.051V60.051V60.051V60.0509V60.0509V60.0509V60.0509V60.0508V60.0508V60.0508V60.0508V60.0508V60.0507V60.0507V60.0507V60.0507V60.0507V60.0506V60.0506V60.0506V60.0506V60.0506V60.0505V60.0505V60.0505V60.0505V60.0505V60.0504V60.0504V60.0504V60.0504V60.0504V60.0503V60.0503V60.0503V60.0503V60.0503V60.0502V60.0502V60.0502V60.0502V60.0502V60.0501V60.0501V60.0501V60.0501V60.0501V60.05V60.05V60.05V60.05V60.05V60.0499V60.0499V60.0499V60.0499V60.0499V60.0498V60.0498V60.0498V60.0498V60.0497V60.0497V60.0497V60.0497V60.0497V60.0496V60.0496V60.0496V60.0496V60.0496V60.0495V60.0495V60.0495V60.0495V60.0495V60.0494V60.0494V60.0494V60.0494V60.0494V60.0493V60.0493V60.0493V60.0493V60.0493V60.0492V60.0492V60.0492V60.0492V60.0492V60.0491V60.0491V60.0491V60.0491V60.0491V60.049V60.049V60.049V60.049V60.049V60.0489V60.0489V60.0489V60.0489V60.0489V60.0488V60.0488V60.0488V60.0488V60.0487V60.0487V60.0487V60.0487V60.0487V60.0486V60.0486V60.0486V60.0486V60.0486V60.0485V55.1374C33.4806 54.8826 33.3715 54.6397 33.1808 54.4706C29.6559 51.3392 27.6344 46.8422 27.6344 42.1328C27.6344 38.7053 28.6755 35.4195 30.6452 32.6295L30.6453 32.6294C30.9293 32.227 30.8335 31.6704 30.431 31.3863C30.0284 31.1019 29.4718 31.1978 29.1875 31.6003L29.1874 31.6003C27.0041 34.6928 25.85 38.3351 25.85 42.1325C25.85 47.2165 27.9757 52.0769 31.6962 55.5323V60.0431C31.6884 60.7863 32.083 61.4817 32.7269 61.86L32.7269 61.86C33.0553 62.0528 33.4172 62.15 33.7802 62.15C34.1375 62.15 34.4944 62.056 34.8194 61.8687L34.8195 61.8687L38.7389 59.6056C40.481 60.1432 42.2935 60.4154 44.1326 60.4154C47.93 60.4154 51.5724 59.2613 54.6648 57.078L54.6648 57.0779C55.0672 56.7937 55.1635 56.2371 54.8791 55.8345C54.5951 55.4319 54.0384 55.3361 53.636 55.6201Z" fill="white" stroke="#F7F7F7" stroke-width="0.3"/>
<path d="M33.6001 27.1877L33.6001 27.1878C33.1976 27.4721 33.1017 28.0287 33.3857 28.4312C33.6698 28.8338 34.2267 28.9296 34.6292 28.6456L34.6292 28.6455C37.4195 26.6755 40.7053 25.6344 44.1326 25.6344C53.2297 25.6344 60.6311 33.0355 60.6311 42.1326C60.6311 45.5601 59.5899 48.8459 57.6199 51.6362L57.6199 51.6362C57.3359 52.0388 57.4317 52.5953 57.8342 52.8797L57.8344 52.8798C57.9905 52.9896 58.1701 53.0431 58.3481 53.0431C58.6279 53.0431 58.9038 52.9115 59.0777 52.6654L59.0777 52.6654C61.261 49.5724 62.4155 45.9301 62.4155 42.1329C62.4155 37.2494 60.5134 32.6578 57.0605 29.2049C53.6076 25.752 49.016 23.85 44.1326 23.85C40.3354 23.85 36.6931 25.0041 33.6001 27.1877Z" fill="white" stroke="#F7F7F7" stroke-width="0.3"/>
<path d="M40.2482 36.1809L40.2482 36.1809C41.2398 36.0021 42.3088 36.2738 43.1832 36.9183C43.1832 36.9183 43.1832 36.9183 43.1833 36.9183L47.2985 39.9503C47.3825 40.0057 47.4154 40.0037 47.4183 40.0035C47.4184 40.0035 47.4185 40.0035 47.4186 40.0035C47.4209 40.0034 47.4254 40.0031 47.4584 39.9774C47.4586 39.9772 47.4589 39.977 47.4591 39.9768L47.5514 40.0951C47.5528 40.094 47.5541 40.093 47.5554 40.0919C47.557 40.0907 47.5586 40.0895 47.5601 40.0884L40.2482 36.1809ZM40.2482 36.1809C39.3595 36.3412 38.6209 36.8377 38.1155 37.611L38.1155 37.6111L32.8598 45.6561C32.1363 46.7167 32.4134 47.7524 33.0387 48.3043L33.0387 48.3044C33.3869 48.6116 33.8173 48.7646 34.2535 48.7646C34.7051 48.7646 35.1609 48.6003 35.5373 48.2777L40.7953 44.297L40.7953 44.297L40.7985 44.2945C40.8017 44.2919 40.802 44.2917 40.802 44.2917L40.802 44.2918L40.8061 44.2887C40.8399 44.2623 40.8444 44.262 40.8467 44.2619C40.8468 44.2619 40.8469 44.2619 40.847 44.2619C40.8498 44.2616 40.8826 44.2596 40.9667 44.3151L45.0819 47.3472C45.0819 47.3472 45.082 47.3472 45.082 47.3472C45.9564 47.9917 47.0254 48.2634 48.017 48.0847L48.017 48.0847C48.9057 47.9243 49.644 47.4278 50.1497 46.6545L50.1497 46.6544L55.4054 38.6094C56.1286 37.5489 55.8519 36.5131 55.2265 35.9615C54.5144 35.3331 53.4681 35.3532 52.7279 35.9879L47.4712 39.9676L40.2482 36.1809ZM53.9287 37.6074L53.9287 37.6075C53.984 37.5272 54.026 37.4434 54.0427 37.376C54.0509 37.3427 54.0511 37.3208 54.0491 37.3087C54.0482 37.3032 54.0471 37.3008 54.0468 37.3003L54.0468 37.3002C54.0466 37.3 54.0466 37.2998 54.046 37.2993L54.0459 37.2992C54.0387 37.2928 54.0245 37.2852 54.0024 37.2862C53.9811 37.2872 53.9404 37.297 53.8847 37.3465C53.8846 37.3466 53.8845 37.3467 53.8844 37.3468L53.7847 37.2348C53.7699 37.2481 53.7545 37.2606 53.7389 37.2724L53.9287 37.6074ZM53.9287 37.6074L53.9263 37.611M53.9287 37.6074L53.9263 37.611M53.9263 37.611L53.9231 37.6159L53.9168 37.6253L53.9165 37.6258L48.656 45.6783L48.7816 45.7603L48.656 45.6783C48.4189 46.0412 48.0989 46.2565 47.7003 46.3285C47.208 46.4172 46.6225 46.2661 46.1404 45.9107L46.1404 45.9106M53.9263 37.611L46.1404 45.9106M46.1404 45.9106L42.0105 42.868M46.1404 45.9106L42.0105 42.868M42.0105 42.868C42.0015 42.8612 41.9925 42.8547 41.9833 42.8485M42.0105 42.868L34.4808 47.0308L34.3805 46.9193C34.3988 46.9028 34.4175 46.8877 34.4356 46.8739L34.4358 46.8738L39.7129 42.8783L39.8049 42.9969L39.7143 42.8773L39.7136 42.8778C40.3927 42.3515 41.246 42.3457 41.9833 42.8485M41.9833 42.8485C41.9833 42.8485 41.9834 42.8485 41.9835 42.8486L41.8989 42.9725L41.9833 42.8485Z" fill="white" stroke="#F7F7F7" stroke-width="0.3"/>
<path d="M32.4666 29.2046L32.4666 29.2047C32.8147 29.5531 32.8148 30.118 32.4666 30.4663C32.2925 30.6404 32.0637 30.7279 31.8355 30.7279C31.6072 30.7279 31.3786 30.6408 31.2047 30.4666L32.4666 29.2046ZM32.4666 29.2046C32.1181 28.8561 31.5532 28.8561 31.2047 29.2046L31.2044 29.2049L31.2043 29.205C30.8562 29.5535 30.8562 30.118 31.2046 30.4665L32.4666 29.2046Z" fill="white" stroke="#F7F7F7" stroke-width="0.3"/>
<path d="M55.7554 53.8446L55.7693 53.8292C56.1008 53.4647 56.665 53.4379 57.0296 53.7693C57.3941 54.1007 57.4209 54.6649 57.0896 55.0295L55.7554 53.8446ZM55.7554 53.8446L55.7547 53.846M55.7554 53.8446L55.7547 53.846M55.7547 53.846C55.4384 54.2109 55.4701 54.7632 55.8292 55.0897C55.8292 55.0897 55.8293 55.0898 55.8293 55.0898L55.7547 53.846Z" fill="white" stroke="#F7F7F7" stroke-width="0.3"/>
</svg>
