<svg width="102" height="102" viewBox="0 0 102 102" fill="none" xmlns="http://www.w3.org/2000/svg">
<circle cx="51" cy="51" r="51" fill="white"/>
<ellipse cx="50" cy="51" rx="44" ry="43" fill="#C1A790" fill-opacity="0.48"/>
<ellipse cx="50" cy="51" rx="35" ry="34" fill="#C1A790"/>
<path d="M73.485 38.0358L73.4851 38.0359C73.7404 38.1759 73.8992 38.4444 73.8992 38.7357V44.9794C73.8992 45.4204 73.5418 45.7778 73.1008 45.7778C72.6598 45.7778 72.3023 45.4204 72.3023 44.9794V40.2539V40.0849L72.1542 40.1662L66.9928 43.0001L66.941 43.0286V43.0878V48.6994C66.941 48.9904 66.7829 49.2583 66.5278 49.3986L66.576 49.4862L66.5277 49.3986L62.6887 51.5117L62.737 51.5993L62.6887 51.5117C62.5687 51.5778 62.4362 51.6105 62.3039 51.6105C62.1632 51.6105 62.0229 51.5734 61.8974 51.4995C61.6546 51.356 61.5055 51.0947 61.5055 50.8121V46.1824V46.0134L61.3573 46.0948L56.0388 49.0154L55.9869 49.0438V49.103V66.7275V66.8965L56.135 66.8152L72.2505 57.9661L72.3023 57.9376V57.8784V52.1664C72.3023 51.7254 72.6598 51.368 73.1008 51.368C73.5418 51.368 73.8992 51.7254 73.8992 52.1664V58.4101C73.8992 58.7014 73.7404 58.9696 73.485 59.11L55.5699 68.947L55.5698 68.9471C55.4505 69.0128 55.318 69.0456 55.1857 69.0456C55.0534 69.0456 54.9212 69.0128 54.8014 68.947L54.7533 69.0347L54.8014 68.947L50.9301 66.8213L50.8349 66.769L50.7907 66.8683C50.2071 68.1769 49.3824 69.3811 48.3385 70.4249C46.0626 72.7009 43.0262 73.8988 39.9486 73.8991C38.1846 73.8991 36.4077 73.5059 34.7515 72.6964L34.7514 72.6964C34.3551 72.5031 34.191 72.025 34.3847 71.6285L34.3847 71.6285C34.5781 71.2324 35.0562 71.0681 35.4522 71.2618L35.4523 71.2618C39.3865 73.1841 44.111 72.3941 47.2092 69.2959C49.1465 67.3586 50.2138 64.7824 50.2138 62.0428C50.2138 59.3031 49.1465 56.727 47.2095 54.7899C45.2721 52.8526 42.696 51.7853 39.9563 51.7853C37.2167 51.7853 34.6405 52.8526 32.7032 54.7899C29.605 57.8881 28.815 62.6126 30.7373 66.5468C30.9307 66.9429 30.7666 67.421 30.3702 67.6147L30.3702 67.6147C29.9741 67.8084 29.496 67.644 29.3027 67.248L29.3027 67.248C27.081 62.7012 27.9938 57.2409 31.5742 53.6609L31.5742 53.6609C32.948 52.2868 34.5999 51.2926 36.4023 50.7289L36.4725 50.707V50.6335V38.7357C36.4725 38.4441 36.6312 38.1759 36.8866 38.0359L36.8867 38.0358L47.6632 32.1182L47.6741 32.1122L47.6833 32.1036C47.781 32.0125 47.8992 31.9487 48.0262 31.9153L48.0381 31.9121L48.0489 31.9062L54.8014 28.1985C54.8014 28.1985 54.8014 28.1985 54.8014 28.1985C55.0406 28.0672 55.3307 28.0672 55.5699 28.1985C55.5699 28.1985 55.5699 28.1985 55.5699 28.1985L73.485 38.0358ZM55.2338 29.8354L55.1857 29.809L55.1375 29.8354L50.0751 32.6153L49.9155 32.7029L50.0751 32.7906L66.1235 41.6032L66.1717 41.6296L66.2198 41.6032L71.2822 38.8234L71.4418 38.7357L71.2822 38.6481L55.2338 29.8354ZM55.1375 47.6356L55.1857 47.6621L55.2338 47.6356L60.4822 44.7537L60.6418 44.666L60.4822 44.5783L44.4334 35.7661L44.3853 35.7397L44.3372 35.7661L39.0891 38.6481L38.9295 38.7357L39.0891 38.8234L55.1375 47.6356ZM62.2523 43.7289L62.3004 43.7553L62.3485 43.7289L64.3535 42.628L64.5131 42.5403L64.3535 42.4527L48.3047 33.6404L48.2566 33.614L48.2084 33.6404L46.2038 34.7413L46.0442 34.829L46.2038 34.9166L62.2523 43.7289ZM38.0693 50.2208V50.3368L38.1841 50.3197C38.7656 50.233 39.3573 50.1888 39.9563 50.1888C43.1227 50.1888 46.0993 51.4217 48.3385 53.6609C50.5774 55.8998 51.8103 58.8764 51.8103 62.0428C51.8103 63.1134 51.669 64.1624 51.3958 65.168L51.3752 65.244L51.4442 65.2819L54.2423 66.8184L54.3904 66.8997V66.7307V49.1062V49.047L54.3385 49.0185L38.2175 40.1663L38.0693 40.0849V40.2539V50.2208ZM65.2927 48.2561L65.3445 48.2276V48.1684V44.0747V43.9057L65.1964 43.987L63.1542 45.1083L63.1023 45.1368V45.1959V49.2925V49.4617L63.2505 49.3801L65.2927 48.2561Z" fill="white" stroke="white" stroke-width="0.2"/>
<path d="M72.5368 49.1328L72.5367 49.1327C72.3883 48.9844 72.3028 48.7782 72.3028 48.5686C72.3028 48.3586 72.3884 48.1524 72.5367 48.0041C72.685 47.8557 72.8915 47.7701 73.1012 47.7701C73.3108 47.7701 73.5174 47.8557 73.6657 48.0041C73.814 48.1524 73.8996 48.3586 73.8996 48.5686C73.8996 48.7782 73.814 48.9844 73.6657 49.1327L73.6656 49.1328C73.5174 49.2813 73.3109 49.3666 73.1012 49.3666C72.8915 49.3666 72.685 49.2813 72.5368 49.1328Z" fill="white" stroke="white" stroke-width="0.2"/>
<path d="M37.5003 61.4782L37.5003 61.4782C37.8122 61.7901 37.8122 62.2957 37.5003 62.6076C37.3448 62.7631 37.1403 62.8411 36.9358 62.8411C36.7314 62.8411 36.5273 62.7632 36.3713 62.6072L36.3713 62.6072L34.2152 60.4514C33.9036 60.1395 33.9036 59.6339 34.2152 59.322L36.3713 57.1658C36.6832 56.8542 37.1888 56.8543 37.5003 57.1658C37.8122 57.4777 37.8122 57.9832 37.5003 58.2951L37.5003 58.2952L36.8781 58.9177L36.7075 59.0884H36.9488H42.2586C44.4821 59.0884 46.2914 60.8974 46.2914 63.1208C46.2914 65.3443 44.4821 67.1532 42.2586 67.1532H39.1124C38.6714 67.1532 38.314 66.7958 38.314 66.3551C38.314 65.9141 38.6714 65.5567 39.1124 65.5567H42.2586C43.6018 65.5567 44.6945 64.464 44.6945 63.1208C44.6945 61.7776 43.6018 60.6849 42.2586 60.6849H36.9488H36.7075L36.8781 60.8556L37.5003 61.4782Z" fill="white" stroke="white" stroke-width="0.2"/>
<path d="M31.5284 70.3744L31.5282 70.3741C31.2444 70.0367 31.288 69.5333 31.6255 69.2495L31.6255 69.2494C31.9629 68.9654 32.4666 69.009 32.7504 69.3465C33.0341 69.6844 32.9911 70.1888 32.6539 70.4724C32.5037 70.5986 32.3213 70.6603 32.1398 70.6603C31.9126 70.6603 31.6874 70.5636 31.5299 70.3762L31.5284 70.3744L31.5284 70.3744Z" fill="white" stroke="white" stroke-width="0.2"/>
</svg>
