<svg width="102" height="102" viewBox="0 0 102 102" fill="none" xmlns="http://www.w3.org/2000/svg">
<circle cx="51" cy="51" r="51" fill="white"/>
<ellipse cx="51" cy="51" rx="44" ry="43" fill="#C1A790" fill-opacity="0.48"/>
<ellipse cx="51" cy="51" rx="35" ry="34" fill="#C1A790"/>
<path d="M69.8498 48.3346L68.6845 43.6734C69.0031 43.6057 69.2421 43.323 69.2421 42.9844V42.2328C69.2421 40.6011 67.9146 39.2736 66.2829 39.2736H60.975V37.7233C60.975 36.9204 60.3218 36.2672 59.5188 36.2672H32.4624C31.6594 36.2672 31.0062 36.9204 31.0062 37.7233V50.5C31.0062 50.8891 31.3217 51.2046 31.7108 51.2046C32.0999 51.2046 32.4154 50.8892 32.4154 50.5V37.7233C32.4154 37.6974 32.4365 37.6764 32.4624 37.6764H59.5187C59.5446 37.6764 59.5657 37.6974 59.5657 37.7233V50.5002C59.5657 50.8893 59.8811 51.2048 60.2703 51.2048C60.6594 51.2048 60.9749 50.8894 60.9749 50.5002V49.7014H69.2866C69.2873 49.7014 69.2878 49.7016 69.2885 49.7016C69.2892 49.7016 69.2898 49.7015 69.2904 49.7015C70.3132 49.7022 71.1816 50.3735 71.4799 51.2986H69.289C68.8999 51.2986 68.5844 51.614 68.5844 52.0032V53.5063C68.5844 54.7237 69.5747 55.714 70.7921 55.714H71.5907V58.8142H69.7483C69.1431 57.0667 67.4819 55.8079 65.5311 55.8079C63.5804 55.8079 61.9191 57.0667 61.314 58.8142H60.9747V53.5062C60.9747 53.1171 60.6593 52.8016 60.2701 52.8016C59.881 52.8016 59.5655 53.117 59.5655 53.5062V58.814H44.9468C44.3416 57.0665 42.6804 55.8077 40.7296 55.8077C38.7789 55.8077 37.1176 57.0665 36.5125 58.814H32.4624C32.4365 58.814 32.4154 58.793 32.4154 58.7671V57.2169H35.4687C35.8578 57.2169 36.1733 56.9015 36.1733 56.5123C36.1733 56.1231 35.8579 55.8077 35.4687 55.8077H28.7046C28.3155 55.8077 28 56.1231 28 56.5123C28 56.9015 28.3154 57.2169 28.7046 57.2169H31.0063V58.7671C31.0063 59.57 31.6595 60.2232 32.4625 60.2232H36.2685C36.2683 60.2389 36.2673 60.2544 36.2673 60.2702C36.2673 62.7308 38.2691 64.7326 40.7296 64.7326C43.1901 64.7326 45.192 62.7308 45.192 60.2702C45.192 60.2544 45.191 60.2389 45.1908 60.2232H61.07C61.0698 60.2389 61.0688 60.2544 61.0688 60.2702C61.0688 62.7308 63.0706 64.7326 65.5311 64.7326C67.9916 64.7326 69.9935 62.7308 69.9935 60.2702C69.9935 60.2544 69.9925 60.2389 69.9923 60.2232H72.2953C72.6844 60.2232 72.9999 59.9078 72.9999 59.5186V52.003C73 50.1475 71.6309 48.6058 69.8498 48.3346ZM60.975 40.6827H66.2829C67.1376 40.6827 67.833 41.3781 67.833 42.2328V42.2798H60.975V40.6827ZM60.975 48.2923V43.6889H67.2359L68.3867 48.2923H60.975ZM40.7296 63.3236C39.0461 63.3236 37.6764 61.954 37.6764 60.2704C37.6764 58.5867 39.0461 57.2171 40.7296 57.2171C42.4132 57.2171 43.7829 58.5867 43.7829 60.2704C43.7829 61.954 42.4132 63.3236 40.7296 63.3236ZM65.5313 63.3236C63.8478 63.3236 62.4781 61.954 62.4781 60.2704C62.4781 58.5867 63.8478 57.2171 65.5313 57.2171C67.2149 57.2171 68.5845 58.5867 68.5845 60.2704C68.5845 61.954 67.2149 63.3236 65.5313 63.3236ZM71.5908 54.3048H70.7923C70.3519 54.3048 69.9937 53.9465 69.9937 53.5062V52.7076H71.5908V54.3048H71.5908Z" fill="white"/>
<path d="M40.7296 58.8142C39.9266 58.8142 39.2734 59.4674 39.2734 60.2704C39.2734 61.0733 39.9266 61.7265 40.7296 61.7265C41.5326 61.7265 42.1858 61.0733 42.1858 60.2704C42.1858 59.4674 41.5326 58.8142 40.7296 58.8142Z" fill="white"/>
<path d="M65.5313 58.8142C64.7283 58.8142 64.0751 59.4674 64.0751 60.2704C64.0751 61.0733 64.7283 61.7265 65.5313 61.7265C66.3342 61.7265 66.9874 61.0733 66.9874 60.2704C66.9874 59.4674 66.3342 58.8142 65.5313 58.8142Z" fill="white"/>
<path d="M57.264 55.808H46.7421C46.353 55.808 46.0375 56.1234 46.0375 56.5126C46.0375 56.9018 46.3529 57.2172 46.7421 57.2172H57.264C57.6531 57.2172 57.9686 56.9018 57.9686 56.5126C57.9686 56.1234 57.6532 55.808 57.264 55.808Z" fill="white"/>
<path d="M39.2265 52.8017H30.2077C29.8186 52.8017 29.5031 53.1171 29.5031 53.5063C29.5031 53.8955 29.8185 54.2109 30.2077 54.2109H39.2265C39.6156 54.2109 39.9311 53.8955 39.9311 53.5063C39.9311 53.1171 39.6156 52.8017 39.2265 52.8017Z" fill="white"/>
<path d="M52.5013 43.2376C52.2262 42.9625 51.78 42.9625 51.5049 43.2377L45.239 49.5035L41.9794 46.2439C41.7042 45.9687 41.2581 45.9687 40.983 46.2439C40.7078 46.5191 40.7078 46.9651 40.983 47.2403L44.7409 50.9982C44.8784 51.1358 45.0588 51.2045 45.239 51.2045C45.4193 51.2045 45.5997 51.1358 45.7372 50.9982L52.5012 44.2341C52.7764 43.9588 52.7764 43.5128 52.5013 43.2376Z" fill="white"/>
</svg>
