<svg width="33" height="33" viewBox="0 0 33 33" fill="none" xmlns="http://www.w3.org/2000/svg">
<g clip-path="url(#clip0)">
<path d="M27.1221 10.894L25.6217 9.0737C25.4157 8.8238 25.2904 8.52148 25.2597 8.19941L25.0334 5.85129C24.9159 4.63128 23.945 3.66044 22.725 3.54292L20.3769 3.31691C20.0549 3.28595 19.7525 3.16063 19.5026 2.95486L17.6824 1.45422C16.7366 0.674766 15.3637 0.674766 14.418 1.45422L12.5977 2.95486C12.3481 3.16063 12.0458 3.28595 11.7235 3.31691L9.37534 3.54292C8.15533 3.66044 7.18473 4.63128 7.06697 5.85129L6.84096 8.19941C6.80999 8.52148 6.68468 8.8238 6.4789 9.0737L4.97827 10.894C4.19881 11.8397 4.19881 13.2126 4.97827 14.1583L6.4789 15.9786C6.68468 16.2285 6.80999 16.5308 6.84096 16.8529L7.06697 19.201C7.18448 20.421 8.15533 21.3916 9.37534 21.5094L10.8106 21.6476L7.4005 29.7964C7.30809 30.0183 7.34978 30.2679 7.50948 30.4478C7.66917 30.6275 7.91176 30.6987 8.1424 30.6331L11.101 29.7979C11.1139 29.7942 11.1264 29.7998 11.1322 29.8103L12.6138 32.5044C12.724 32.705 12.9301 32.8259 13.1568 32.8259C13.1675 32.8259 13.1783 32.8257 13.1892 32.8252C13.4289 32.813 13.6361 32.6682 13.731 32.4449L17.3313 23.8409C17.4534 23.7707 17.5709 23.69 17.6826 23.5981L19.5029 22.0977C19.7333 21.9075 20.009 21.7873 20.3033 21.7454L23.5642 29.5372L21.2566 28.8858C20.8177 28.7622 20.3581 28.9545 20.138 29.3536L18.9826 31.4545L17.4517 27.7962C17.3505 27.5546 17.0731 27.441 16.8315 27.5419C16.5901 27.6428 16.4762 27.9205 16.5774 28.1619L18.3706 32.4473C18.4645 32.6682 18.6715 32.813 18.9114 32.8252C18.9224 32.8257 18.9331 32.8262 18.9438 32.8262C19.1706 32.8262 19.3766 32.705 19.4868 32.5044L20.9682 29.8108C20.9743 29.7998 20.9869 29.7947 20.9994 29.7979L23.9575 30.6331C24.1886 30.6985 24.4314 30.6275 24.5909 30.4478C24.7506 30.2679 24.7923 30.0185 24.6996 29.7959L21.2897 21.6474L22.725 21.5091C23.945 21.3916 24.9159 20.421 25.0334 19.201L25.2597 16.8526C25.2904 16.5306 25.4157 16.2285 25.6217 15.9786L27.1221 14.1583C27.9018 13.2126 27.9018 11.8397 27.1221 10.894ZM13.118 31.4545L11.9624 29.3531C11.7425 28.9543 11.2824 28.7619 10.8438 28.8858L8.5364 29.537L11.7971 21.7454C12.0916 21.7873 12.3673 21.9075 12.5977 22.0974L14.418 23.5981C14.891 23.9879 15.4705 24.1827 16.0503 24.1827C16.0876 24.1827 16.1247 24.1817 16.162 24.18L13.118 31.4545ZM26.3909 13.5556L24.8905 15.3759C24.5638 15.7718 24.3654 16.2512 24.3161 16.7619L24.0901 19.11C24.016 19.8795 23.4038 20.4917 22.6343 20.5658L20.5717 20.7645C20.5637 20.765 20.5554 20.7657 20.5473 20.767L20.2862 20.7921C19.7752 20.8413 19.2959 21.0398 18.8999 21.3662L17.0797 22.8666C16.4833 23.3584 15.6173 23.3584 15.021 22.8666L13.2007 21.3662C12.8047 21.0398 12.3254 20.8411 11.8144 20.7921L11.5521 20.7667C11.5447 20.7657 11.5377 20.7653 11.5304 20.7648L9.46628 20.5658C8.69682 20.4917 8.08462 19.8795 8.0105 19.11L7.78449 16.7622C7.73524 16.2512 7.53679 15.7718 7.21008 15.3759L5.70969 13.5556C5.21793 12.959 5.21793 12.093 5.70969 11.4967L7.21008 9.67639C7.53679 9.28045 7.73524 8.80112 7.78449 8.2901L8.0105 5.94199C8.08462 5.17253 8.69682 4.56033 9.46628 4.48621L11.8144 4.2602C12.3254 4.21095 12.8047 4.01249 13.2007 3.68604L15.021 2.18564C15.3191 1.93988 15.6848 1.81676 16.0503 1.81676C16.4158 1.81676 16.7815 1.93964 17.0797 2.18564L18.8999 3.68604C19.2959 4.01249 19.7752 4.2112 20.2862 4.2602L22.6343 4.48621C23.4038 4.56033 24.016 5.17253 24.0901 5.94199L24.3161 8.2901C24.3654 8.80112 24.5638 9.28045 24.8905 9.67639L26.3909 11.4967C26.8824 12.0933 26.8824 12.959 26.3909 13.5556Z" fill="#C1A790"/>
<path d="M16.0503 5.12354C15.7339 5.12354 15.4154 5.14353 15.1034 5.18351C14.844 5.21667 14.6604 5.45414 14.6935 5.71355C14.7267 5.97321 14.9644 6.15655 15.2236 6.12363C15.4957 6.08877 15.7738 6.07122 16.0503 6.07122C19.6097 6.07122 22.5054 8.96692 22.5054 12.5263C22.5054 16.0856 19.6094 18.9811 16.0503 18.9811C12.491 18.9811 9.59526 16.0854 9.59526 12.526C9.59526 9.98726 11.0922 7.67474 13.4089 6.63441C13.6476 6.52738 13.7544 6.24676 13.6471 6.00807C13.5398 5.76914 13.2592 5.66259 13.0208 5.76987C10.364 6.96282 8.64758 9.61472 8.64758 12.526C8.64758 16.6081 11.9685 19.9288 16.0503 19.9288C20.1321 19.9288 23.4531 16.6081 23.4531 12.526C23.4531 8.4442 20.1321 5.12354 16.0503 5.12354Z" fill="#C1A790"/>
<path d="M11.3441 11.9772C10.7792 12.5421 10.7792 13.4615 11.3441 14.0264L13.4138 16.0964C13.6876 16.3699 14.0513 16.5206 14.4385 16.5206C14.8254 16.5206 15.1894 16.3699 15.4632 16.0964L19.9813 11.5781C20.5462 11.013 20.5462 10.0938 19.9813 9.52866C19.4164 8.96375 18.497 8.96375 17.9318 9.52866L14.4385 13.0222L13.3933 11.9772C12.8284 11.4123 11.909 11.4123 11.3441 11.9772ZM14.4385 14.1664C14.5641 14.1664 14.6845 14.1164 14.7735 14.0274L18.602 10.1989C18.7976 10.0034 19.1155 10.0036 19.311 10.1989C19.5066 10.3944 19.5066 10.7126 19.311 10.9079L14.793 15.4262C14.6984 15.5208 14.5724 15.5729 14.4385 15.5729C14.3044 15.5729 14.1786 15.5208 14.084 15.4262L12.0141 13.3565C11.8188 13.1609 11.8188 12.8428 12.0141 12.6475C12.1118 12.5497 12.2403 12.5007 12.3688 12.5007C12.4971 12.5007 12.6255 12.5497 12.7231 12.6472L14.1033 14.0274C14.1923 14.1164 14.3127 14.1664 14.4385 14.1664Z" fill="#C1A790"/>
</g>
<defs>
<clipPath id="clip0">
<rect width="31.9565" height="31.9565" fill="white" transform="translate(0.0869141 0.869629)"/>
</clipPath>
</defs>
</svg>
