<svg width="35" height="32" viewBox="0 0 35 32" fill="none" xmlns="http://www.w3.org/2000/svg">
<path d="M32.7656 16.7794L32.7656 16.7795C33.0231 16.9273 33.112 17.2559 32.9642 17.5134L32.9246 17.4906L32.9642 17.5134C32.601 18.1459 32.1748 18.7436 31.6944 19.2945C32.4115 20.7358 33.278 21.9493 34.2728 22.906L34.2412 22.9389L34.2728 22.906L32.7656 16.7794ZM32.7656 16.7794C32.5081 16.6317 32.1796 16.7205 32.0318 16.978C31.6481 17.6462 31.1865 18.2716 30.6597 18.8367C30.5097 18.9975 30.4729 19.2335 30.5667 19.4325L30.5667 19.4325C31.1475 20.6646 31.8305 21.7548 32.6057 22.6877C31.3897 22.569 29.4331 22.2479 27.281 21.3842L27.264 21.4266L27.281 21.3842C27.1554 21.3338 27.0152 21.3327 26.8887 21.381L26.8887 21.381C26.0138 21.7157 25.0948 21.9259 24.1576 22.0058L24.1576 22.0057L24.156 22.0059C23.451 22.0907 23.5376 23.1123 24.2472 23.0772L24.2472 23.0772L24.2488 23.077C25.2159 22.9947 26.1655 22.7868 27.0747 22.4588C30.4092 23.7573 33.2021 23.832 33.7998 23.832C33.8624 23.832 33.9011 23.8312 33.9139 23.8309M32.7656 16.7794L34.4013 23.4879C34.3228 23.6901 34.1306 23.8253 33.9139 23.8309M33.9139 23.8309L33.9127 23.7853L33.9139 23.8309C33.9139 23.8309 33.9139 23.8309 33.9139 23.8309Z" fill="#C1A790" stroke="#C1A790" stroke-width="0.0913043"/>
<path d="M25.4025 2.12062L25.4025 2.12062C25.1121 2.05869 24.9269 1.77314 24.9889 1.48277L25.4025 2.12062ZM25.4025 2.12062L25.4032 2.12075M25.4025 2.12062L25.4032 2.12075M25.4032 2.12075C31.1521 3.25991 34.7905 9.62505 32.8482 15.1586L32.848 15.1593M25.4032 2.12075L32.848 15.1593M32.848 15.1593C32.7541 15.4408 32.9062 15.7452 33.1877 15.8392M32.848 15.1593L33.1877 15.8392M33.1877 15.8392C33.4621 15.9329 33.7744 15.7839 33.8679 15.4995C35.9989 9.29468 32.0463 2.38275 25.6265 1.06908C25.3363 1.00705 25.0507 1.19249 24.9889 1.48276L33.1877 15.8392Z" fill="#C1A790" stroke="#C1A790" stroke-width="0.0913043"/>
<path d="M23.2924 0.824004L23.2924 0.823977H23.2909C19.2776 0.823977 15.5568 2.99655 13.5803 6.49384C13.4342 6.75228 13.5253 7.08018 13.7837 7.22627C14.0376 7.37109 14.3694 7.28377 14.5163 7.02282C16.3024 3.86243 19.6648 1.89914 23.2909 1.89916L23.2925 1.89911C24.0007 1.87525 24.0038 0.848556 23.2924 0.824004Z" fill="#C1A790" stroke="#C1A790" stroke-width="0.0913043"/>
<path d="M18.263 11.369L18.2629 11.3689C18.0326 11.1815 17.9978 10.8429 18.1852 10.6126C18.3724 10.3825 18.7109 10.3475 18.9414 10.5348C26.798 16.8854 22.6429 29.7619 12.5459 30.3147L18.263 11.369ZM18.263 11.369C25.3642 17.109 21.6034 28.7433 12.4855 29.2412L12.4854 29.2412C12.1891 29.2578 11.9622 29.5116 11.9789 29.808M18.263 11.369L11.9789 29.808M11.9789 29.808C11.9948 30.1051 12.2523 30.332 12.5457 30.3147L11.9789 29.808Z" fill="#C1A790" stroke="#C1A790" stroke-width="0.0913043"/>
<path d="M7.92128 28.599L7.93827 28.6414L7.92127 28.599C5.76897 29.4628 3.81221 29.7838 2.59644 29.9025C3.37164 28.9696 4.05476 27.8794 4.63551 26.6473C4.72921 26.4485 4.69247 26.2128 4.54277 26.0519C-3.0056 17.6402 6.45487 5.22642 16.569 10.2533L16.5696 10.2535C17.2106 10.5607 17.6849 9.65065 17.0673 9.30063L17.0674 9.30057L17.0652 9.29949C6.05062 3.80816 -4.40755 17.1177 3.50806 26.5089C2.7909 27.9504 1.92436 29.1639 0.929392 30.1208L0.961037 30.1537L0.929389 30.1208C0.773132 30.2711 0.722458 30.5006 0.800872 30.7028L0.800877 30.7028C0.879358 30.9049 1.07152 31.0402 1.28829 31.0457L1.28961 31.0457C2.05419 31.0429 4.66825 31.0008 8.12739 29.6735C8.78806 29.9119 9.47353 30.0877 10.1681 30.1968L10.1681 30.1968C10.4614 30.2427 10.7365 30.0424 10.7826 29.7492L10.7375 29.7421L10.7826 29.7492C10.8286 29.456 10.6282 29.1808 10.3349 29.1347C9.64487 29.0263 8.96484 28.845 8.31356 28.5959C8.18699 28.5475 8.04693 28.5486 7.92128 28.599Z" fill="#C1A790" stroke="#C1A790" stroke-width="0.0913043"/>
<path d="M18.6268 18.8407L18.6291 18.7951C18.9256 18.8101 19.1539 19.0625 19.1389 19.3591C19.1239 19.6555 18.8729 19.8842 18.5749 19.8688M18.6268 18.8407L5.6372 18.7952M18.6268 18.8407L18.6291 18.7951C11.9538 18.4586 5.70011 18.7917 5.6372 18.7952M18.6268 18.8407L5.6372 18.7952M18.5749 19.8688L18.5773 19.8232L18.575 19.8688C18.5749 19.8688 18.5749 19.8688 18.5749 19.8688ZM18.5749 19.8688C11.9578 19.5352 5.75714 19.8653 5.69578 19.8687L5.69327 19.8231L5.69591 19.8687C5.40235 19.8857 5.14517 19.6583 5.12972 19.3612C5.11356 19.0648 5.34077 18.8114 5.6372 18.7952" fill="#C1A790" stroke="#C1A790" stroke-width="0.0913043"/>
<path d="M19.1389 16.4074C19.154 16.111 18.9257 15.8585 18.6292 15.8435L18.6269 15.8891L18.6292 15.8435C16.2846 15.7253 13.7495 15.676 11.0944 15.6967L11.0944 15.6967L11.0929 15.6968C10.9183 15.7039 10.7847 15.773 10.6953 15.8754C10.6066 15.9771 10.5636 16.1091 10.5647 16.2396C10.5658 16.37 10.6109 16.5012 10.7013 16.6011C10.7923 16.7018 10.927 16.7682 11.1015 16.7718L11.1015 16.7718L11.1028 16.7718C13.7376 16.7514 16.2514 16.8002 18.5749 16.9173M19.1389 16.4074C19.1247 16.7046 18.8688 16.933 18.5749 16.9173M19.1389 16.4074C19.1389 16.4075 19.1389 16.4075 19.1389 16.4075L19.0933 16.4052M19.1389 16.4074C19.1389 16.4074 19.1389 16.4074 19.1389 16.4074L19.0933 16.4052M18.5749 16.9173C18.5749 16.9173 18.5749 16.9173 18.5748 16.9173L18.5773 16.8717M18.5749 16.9173C18.5749 16.9173 18.575 16.9173 18.575 16.9173L18.5773 16.8717M18.5773 16.8717C16.2528 16.7545 13.738 16.7057 11.1025 16.7262L19.0933 16.4052M18.5773 16.8717C18.8461 16.8861 19.0804 16.6769 19.0933 16.4052" fill="#C1A790" stroke="#C1A790" stroke-width="0.0913043"/>
<path d="M8.20421 16.8228L8.20421 16.8228L8.20581 16.8227C8.91665 16.7782 8.88462 15.7541 8.17646 15.748L8.17482 15.7481C6.62053 15.7906 5.65007 15.8431 5.63727 15.8437L5.63722 15.8437L5.6372 15.8437C5.34075 15.8599 5.11352 16.1134 5.12972 16.4098C5.14535 16.6963 5.38253 16.9181 5.66605 16.9181C5.67576 16.9181 5.6857 16.9178 5.69594 16.9173L5.69334 16.8717L5.69585 16.9173C5.705 16.9168 6.6618 16.865 8.20421 16.8228Z" fill="#C1A790" stroke="#C1A790" stroke-width="0.0913043"/>
<path d="M16.5135 22.7361L16.5133 22.7361C10.73 22.5515 5.74474 22.8178 5.69549 22.8204L5.69303 22.7748L5.69567 22.8204C5.4021 22.8374 5.14493 22.61 5.12947 22.3129M16.5135 22.7361L5.63694 21.7469C5.34052 21.7631 5.11331 22.0164 5.12947 22.3129M16.5135 22.7361C16.8112 22.7443 17.0583 22.5128 17.0677 22.2159M16.5135 22.7361L17.0677 22.2159M5.12947 22.3129C5.12947 22.3129 5.12947 22.3128 5.12947 22.3128L5.17506 22.3104L5.12948 22.3129C5.12948 22.3129 5.12948 22.3129 5.12947 22.3129ZM17.0677 22.2159C17.0772 21.9192 16.8443 21.6709 16.5476 21.6615M17.0677 22.2159L16.5476 21.6615M16.5476 21.6615C10.7165 21.4755 5.68847 21.7441 5.63695 21.7469L16.5476 21.6615Z" fill="#C1A790" stroke="#C1A790" stroke-width="0.0913043"/>
</svg>
