<svg width="9" height="8" viewBox="0 0 9 8" fill="none" xmlns="http://www.w3.org/2000/svg">
<path d="M5.57894 4L8.65266 1.00859C8.73721 0.926239 8.78386 0.816378 8.784 0.699232C8.784 0.582022 8.73734 0.472031 8.65266 0.389814L8.38331 0.127748C8.29862 0.0452062 8.18573 0 8.06523 0C7.94492 0 7.83203 0.0452062 7.74735 0.127748L4.67363 3.11897L1.59977 0.127748C1.51522 0.0452062 1.40227 0 1.28183 0C1.16152 0 1.04856 0.0452062 0.964013 0.127748L0.694524 0.389814C0.519143 0.560492 0.519143 0.838103 0.694524 1.00859L3.76831 4L0.694524 6.99128C0.609908 7.07376 0.563322 7.18362 0.563322 7.30077C0.563322 7.41791 0.609908 7.52777 0.694524 7.61019L0.963946 7.87225C1.0485 7.95473 1.16152 8 1.28176 8C1.4022 8 1.51515 7.95473 1.5997 7.87225L4.67356 4.88097L7.74728 7.87225C7.83196 7.95473 7.94485 8 8.06516 8H8.06529C8.18567 8 8.29856 7.95473 8.38324 7.87225L8.65259 7.61019C8.73714 7.52784 8.7838 7.41791 8.7838 7.30077C8.7838 7.18362 8.73714 7.07376 8.65259 6.99135L5.57894 4Z" fill="black"/>
</svg>
