<svg width="18" height="18" viewBox="0 0 18 18" fill="none" xmlns="http://www.w3.org/2000/svg">
<g clip-path="url(#clip0)">
<path d="M6.60483 7.79921C7.64954 8.00323 8.7075 7.53918 8.7075 7.04234C8.7075 6.66175 8.0317 6.23608 7.12725 6.23608C6.28094 6.23608 5.547 6.63337 5.547 7.04234C5.547 7.35635 6.00179 7.68176 6.60483 7.79921Z" fill="#9F5025"/>
<path d="M11.724 10.1706H13.5448V9.00342C13.026 9.49413 12.3721 9.87765 11.724 10.1706Z" fill="#9F5025"/>
<path d="M2.14033 8.79014C3.03646 9.34013 4.24261 9.78686 5.44944 10.0158C9.13787 10.7166 13.545 8.86676 13.545 7.04228C13.545 5.90225 12.8453 4.84848 11.5747 4.07506C10.3792 3.34734 8.7997 2.94653 7.12725 2.94653C3.68375 2.94653 0.677246 4.67842 0.677246 7.04228C0.677246 7.60314 1.21766 8.22386 2.14033 8.79014ZM4.60078 6.80773C4.76284 5.91621 5.82544 5.26853 7.12725 5.26853C8.55589 5.26853 9.675 6.04766 9.675 7.04228C9.675 8.03691 8.55589 8.81603 7.12725 8.81603C6.88634 8.81603 6.64827 8.79343 6.41965 8.74876C5.31909 8.53443 4.5795 7.8486 4.5795 7.04228C4.5795 6.96366 4.58669 6.88471 4.60078 6.80773Z" fill="#9F5025"/>
<path d="M7.12725 11.1381C6.49382 11.1381 5.86863 11.0803 5.269 10.9664C3.75035 10.6783 1.81625 9.97831 0.677246 8.92603V11.9443C0.677246 12.8663 1.33576 13.7154 2.47302 14.3354C3.11486 14.6851 3.82472 14.9042 4.58291 14.9866C4.61945 14.9906 4.58953 14.9893 5.35353 14.9905V13.248C5.35353 12.9875 5.5537 12.7634 5.8139 12.7511C6.09167 12.738 6.321 12.9594 6.321 13.2343V14.992L7.9335 14.9945V13.248C7.9335 12.9875 8.13367 12.7634 8.39386 12.7511C8.67167 12.738 8.901 12.9594 8.901 13.2343V14.996L10.5135 14.9985V13.248C10.5135 12.9875 10.7137 12.7634 10.9739 12.7511C11.2517 12.738 11.481 12.9594 11.481 13.2343V15L13.0935 15.0025V13.248C13.0935 12.9875 13.2937 12.7634 13.5539 12.7511C13.8317 12.738 14.061 12.9594 14.061 13.2343V15.004L16.7048 15.0081C16.9579 15.0081 17.1892 14.8098 17.1892 14.516V11.6218C17.1892 11.3546 16.9727 11.1381 16.7055 11.1381H7.12725Z" fill="#9F5025"/>
</g>
<defs>
<clipPath id="clip0">
<rect width="16.512" height="16.512" fill="white" transform="translate(0.677246 0.721191)"/>
</clipPath>
</defs>
</svg>
