<?xml version="1.0" standalone="no"?>
<!DOCTYPE svg PUBLIC "-//W3C//DTD SVG 20010904//EN"
 "http://www.w3.org/TR/2001/REC-SVG-20010904/DTD/svg10.dtd">
<svg version="1.0" xmlns="http://www.w3.org/2000/svg"
 width="6250.000000pt" height="2084.000000pt" viewBox="0 0 6250.000000 2084.000000"
 preserveAspectRatio="xMidYMid meet">
<metadata>
Created by potrace 1.16, written by Peter Selinger 2001-2019
</metadata>
<g transform="translate(0.000000,2084.000000) scale(0.100000,-0.100000)"
fill="#000000" stroke="none">
<path d="M4935 15550 c-389 -8 -421 -12 -527 -76 -157 -95 -217 -242 -205
-498 7 -136 31 -258 79 -403 21 -64 140 -313 343 -718 438 -873 645 -1323 734
-1599 117 -359 221 -867 253 -1231 16 -191 16 -1004 0 -1200 -24 -275 -78
-579 -164 -920 -117 -462 -236 -740 -800 -1864 -169 -338 -325 -660 -347 -715
-85 -219 -123 -507 -87 -667 9 -41 27 -98 41 -126 51 -111 188 -202 340 -225
111 -18 4791 -19 4907 -1 88 13 191 56 254 108 60 50 101 120 125 216 19 73
21 102 16 229 -11 291 -47 392 -347 985 -360 712 -622 1263 -739 1558 -150
377 -292 1019 -320 1447 -27 411 -20 1023 14 1310 41 350 147 830 252 1140 96
284 409 948 900 1910 183 358 243 561 243 819 0 220 -53 346 -184 431 -118 78
-136 80 -616 90 -484 10 -3636 10 -4165 0z m3672 -1094 c8 -8 -55 -181 -116
-319 -218 -492 -428 -1064 -566 -1542 -371 -1285 -429 -2373 -189 -3575 142
-712 410 -1535 748 -2294 74 -165 131 -324 121 -334 -9 -10 -3016 -14 -3070
-5 l-44 8 29 85 c15 47 67 175 115 285 403 928 673 1817 794 2610 97 634 106
1290 26 1920 -104 816 -376 1751 -788 2710 -66 154 -132 318 -148 365 l-27 85
371 6 c398 6 2737 2 2744 -5z"/>
<path d="M2280 15071 c-128 -41 -225 -118 -276 -218 -27 -54 -29 -66 -29 -173
0 -176 1 -177 370 -545 406 -405 622 -646 872 -975 509 -671 845 -1370 1002
-2086 50 -231 62 -345 68 -664 10 -542 -29 -826 -173 -1258 -151 -452 -378
-876 -694 -1297 -292 -388 -606 -717 -1120 -1171 -377 -333 -452 -430 -466
-609 -12 -140 25 -246 117 -337 121 -119 304 -176 476 -150 109 17 164 47 289
160 917 829 1657 2080 1990 3367 195 757 189 1759 -16 2571 -261 1031 -814
2027 -1624 2924 -241 266 -419 418 -541 461 -69 24 -171 24 -245 0z"/>
<path d="M11650 15084 c-60 -12 -100 -30 -169 -78 -89 -61 -318 -280 -475
-455 -893 -994 -1450 -2063 -1675 -3211 -69 -350 -85 -533 -85 -990 0 -483 21
-725 89 -1045 199 -928 672 -1950 1272 -2750 271 -361 721 -837 875 -924 166
-95 451 -44 612 107 84 81 120 172 119 307 -1 203 -86 319 -508 690 -626 550
-1077 1086 -1401 1663 -243 435 -419 935 -468 1331 -40 317 -44 750 -10 1041
90 794 509 1693 1181 2537 242 306 489 568 801 851 296 269 342 333 350 485 5
96 -10 192 -38 247 -37 73 -124 138 -228 170 -63 20 -196 33 -242 24z"/>
<path d="M39960 10320 l0 -4760 10555 0 10555 0 0 4760 0 4760 -10555 0
-10555 0 0 -4760z m2865 2600 c379 -34 678 -104 953 -220 l102 -44 0 -552 0
-552 -134 44 c-437 140 -786 201 -1211 211 -199 4 -271 2 -352 -11 -351 -54
-506 -208 -491 -490 8 -141 52 -223 159 -295 121 -81 275 -126 683 -201 149
-27 326 -63 392 -79 266 -66 507 -163 679 -275 99 -64 245 -201 316 -296 192
-256 293 -677 275 -1145 -13 -341 -69 -576 -197 -826 -270 -524 -817 -824
-1623 -889 -164 -13 -504 -13 -716 0 -536 34 -966 124 -1272 267 l-98 46 0
559 c0 307 2 558 5 558 2 0 55 -18 117 -41 167 -60 463 -143 633 -179 517
-107 1100 -112 1367 -10 74 27 169 91 208 138 73 88 108 217 96 354 -12 146
-59 234 -158 298 -117 76 -225 107 -753 216 -682 140 -929 252 -1183 539 -222
249 -342 661 -342 1171 0 517 144 909 444 1210 290 289 694 452 1251 503 125
12 690 6 850 -9z m10572 9 c834 -68 1468 -411 1868 -1009 114 -172 243 -459
310 -695 36 -124 80 -353 102 -520 15 -115 18 -215 18 -565 0 -437 -4 -503
-46 -755 -75 -450 -245 -857 -491 -1177 -94 -122 -289 -315 -408 -404 -388
-291 -854 -458 -1409 -505 -175 -15 -525 -7 -699 16 -1211 156 -1958 914
-2116 2150 -50 391 -48 919 5 1290 73 511 254 953 532 1300 93 116 296 309
417 396 371 269 831 432 1350 478 140 12 421 13 567 0z m-6907 -1134 l0 -1055
840 0 840 0 0 1055 0 1055 760 0 760 0 0 -2735 0 -2735 -760 0 -760 0 0 1130
0 1130 -840 0 -840 0 0 -1130 0 -1130 -760 0 -760 0 0 2735 0 2735 760 0 760
0 0 -1055z m12770 1027 c321 -46 551 -113 780 -228 480 -241 752 -644 825
-1223 24 -190 17 -562 -15 -741 -143 -806 -664 -1275 -1560 -1404 -182 -26
-412 -36 -847 -36 l-423 0 0 -905 0 -905 -755 0 -755 0 0 2735 0 2736 1298 -4
c1274 -3 1300 -4 1452 -25z"/>
<path d="M52920 11814 c-277 -50 -455 -163 -594 -376 -170 -260 -239 -574
-252 -1138 -13 -538 27 -953 117 -1230 112 -345 312 -551 614 -631 115 -30
384 -38 510 -14 377 70 623 349 729 825 56 252 61 324 61 850 0 527 -8 634
-61 880 -102 464 -313 722 -665 811 -66 16 -122 22 -259 24 -96 2 -186 1 -200
-1z"/>
<path d="M58020 10990 l0 -812 378 4 c348 4 383 6 457 26 234 64 366 197 426
429 32 126 45 319 31 486 -21 260 -70 395 -182 507 -72 73 -139 110 -258 142
-71 20 -109 22 -464 26 l-388 4 0 -812z"/>
<path d="M1643 13200 c-84 -18 -149 -65 -186 -135 -16 -31 -21 -59 -21 -121
-1 -72 2 -85 28 -124 16 -24 122 -139 235 -255 244 -249 330 -345 462 -521
308 -410 485 -827 550 -1294 31 -223 11 -635 -43 -865 -46 -199 -167 -480
-293 -685 -142 -228 -371 -495 -606 -705 -283 -252 -329 -312 -337 -442 -5
-77 17 -129 85 -197 111 -113 258 -132 405 -54 136 72 538 536 728 840 84 135
252 467 323 641 107 263 192 537 229 747 18 102 18 694 0 845 -61 514 -303
1080 -674 1580 -243 327 -582 679 -705 731 -42 18 -128 25 -180 14z"/>
<path d="M12299 13050 c-25 -4 -68 -19 -95 -33 -136 -69 -472 -430 -702 -754
-334 -471 -566 -1032 -634 -1533 -20 -147 -17 -674 5 -820 33 -224 123 -524
240 -800 209 -495 486 -909 867 -1291 169 -169 212 -194 340 -194 73 0 93 4
142 28 64 32 137 97 164 148 24 45 24 140 1 201 -28 72 -90 145 -258 301 -219
205 -441 436 -534 557 -179 234 -354 582 -419 833 -45 174 -51 241 -51 612 0
317 2 361 22 470 54 292 212 666 410 970 150 228 273 374 574 680 130 132 243
254 253 272 25 49 22 184 -5 240 -46 96 -168 139 -320 113z"/>
<path d="M32795 12910 c-744 -75 -1246 -374 -1485 -882 -120 -257 -167 -524
-157 -893 10 -357 62 -605 175 -830 62 -124 112 -196 210 -297 101 -105 223
-191 375 -263 194 -93 349 -137 792 -225 533 -106 660 -150 766 -268 54 -60
78 -126 86 -239 14 -189 -56 -339 -198 -429 -59 -37 -178 -79 -285 -101 -126
-26 -606 -25 -809 1 -311 39 -590 103 -892 205 -98 32 -186 62 -196 66 -16 7
-17 -22 -15 -546 l3 -554 75 -37 c97 -48 343 -129 490 -162 582 -130 1360
-153 1863 -56 961 185 1458 820 1424 1815 -12 332 -57 554 -156 761 -126 264
-305 441 -591 584 -227 114 -438 173 -965 270 -475 87 -653 167 -732 329 -26
52 -28 65 -28 181 0 116 2 129 28 185 31 66 101 143 162 179 69 40 179 74 297
92 91 13 158 15 343 11 404 -10 736 -66 1140 -193 83 -25 158 -49 168 -51 16
-5 17 25 17 538 l0 544 -100 43 c-251 108 -539 175 -905 212 -143 15 -783 21
-900 10z"/>
<path d="M15865 12803 c3 -16 288 -1229 633 -2698 l627 -2670 755 -3 756 -2
409 1656 c226 910 413 1661 417 1667 5 8 10 8 16 2 5 -6 186 -756 403 -1667
l394 -1658 750 0 751 0 633 2681 c348 1475 636 2690 638 2700 5 18 -12 19
-645 19 -611 0 -651 -1 -656 -17 -3 -10 -170 -772 -371 -1693 -202 -921 -371
-1679 -376 -1684 -5 -5 -11 -8 -13 -5 -3 2 -193 767 -423 1699 l-419 1695
-604 3 -605 2 -425 -1700 c-340 -1360 -428 -1700 -440 -1698 -12 3 -94 386
-357 1668 -188 916 -344 1680 -348 1698 l-6 32 -750 0 -751 0 7 -27z"/>
<path d="M24765 12813 c-3 -10 -421 -1219 -927 -2688 -506 -1468 -923 -2676
-925 -2682 -4 -10 134 -13 670 -13 l676 0 36 118 c111 356 277 891 286 920
l11 32 871 -2 872 -3 178 -532 179 -533 760 0 c719 0 760 1 756 18 -4 12
-1734 5076 -1825 5340 l-15 42 -798 0 c-751 0 -798 -1 -805 -17z m714 -1575
c61 -193 551 -1759 551 -1763 0 -3 -259 -5 -575 -5 -316 0 -575 3 -575 6 0 3
117 380 261 838 144 457 270 859 280 894 22 69 42 80 58 30z"/>
<path d="M28860 10130 l0 -2700 750 0 750 0 0 2700 0 2700 -750 0 -750 0 0
-2700z"/>
<path d="M35480 12290 l0 -540 700 0 700 0 0 -2160 0 -2160 750 0 750 0 0
2160 0 2160 700 0 700 0 0 540 0 540 -2150 0 -2150 0 0 -540z"/>
</g>
</svg>
