<svg width="181" height="61" viewBox="0 0 181 61" fill="none" xmlns="http://www.w3.org/2000/svg">
<path d="M49.6014 39.2704H53.9651L56.3537 29.5193H56.4227L58.7194 39.2704H63.0602L66.7577 23.4424H62.9912L60.8323 33.4056H60.7633L58.3289 23.4424H54.838L52.3804 33.4056H52.2884L50.2674 23.4424H45.9268L49.6014 39.2704Z" fill="#231F20"/>
<path d="M73.6709 28.0353H73.7628L75.3935 33.2876H72.0402L73.6709 28.0353H73.6709ZM66.3444 39.2702H70.2488L71.2133 36.1376H76.2663L77.2996 39.2702H81.7093L76.358 23.4421H71.7416L66.3444 39.2702Z" fill="#231F20"/>
<path d="M83.5697 39.2704H87.9106V23.4424H83.5697V39.2704Z" fill="#231F20"/>
<path d="M95.306 39.5296C99.3024 39.5296 101.415 37.6924 101.415 34.3006C101.415 31.0973 99.9223 29.9904 97.1893 29.4486L96.041 29.2365C94.686 28.9539 94.2265 28.6243 94.2265 27.7999C94.2265 26.8812 94.9386 26.4338 96.3395 26.4338C97.758 26.4393 99.1646 26.6944 100.497 27.1874V24.0078C99.5778 23.5601 98.3835 23.1831 95.9262 23.1831C92.0218 23.1831 90.2073 25.1381 90.2073 28.1295C90.2073 31.4506 91.7001 32.5575 94.1577 33.0286L95.306 33.2641C96.7988 33.5704 97.1893 33.8529 97.1893 34.7717C97.1893 35.7138 96.5234 36.2556 94.8008 36.2556C93.0094 36.2556 91.6082 35.8786 90.2304 35.3605V38.5875C91.3327 39.1997 93.1473 39.5296 95.306 39.5296L95.306 39.5296Z" fill="#231F20"/>
<path d="M106.813 39.2704H111.153V26.6219H115.196V23.4424H102.747V26.6219H106.813V39.2704Z" fill="#231F20"/>
<path fill-rule="evenodd" clip-rule="evenodd" d="M176.872 16.8538V44.7325H115.72V16.8538" fill="#B82361"/>
<path fill-rule="evenodd" clip-rule="evenodd" d="M121.814 39.6711C125.857 39.6711 127.994 37.8128 127.994 34.3822C127.994 31.142 126.484 30.0222 123.719 29.4743L122.558 29.2598C121.187 28.9741 120.722 28.6403 120.722 27.8066C120.722 26.8774 121.443 26.4247 122.86 26.4247C124.294 26.4305 125.717 26.6884 127.064 27.1871V23.971C126.135 23.5183 124.927 23.137 122.442 23.137C118.492 23.137 116.657 25.1144 116.657 28.1401C116.657 31.4994 118.167 32.6192 120.653 33.0955L121.814 33.3337C123.324 33.6434 123.719 33.9295 123.719 34.8585C123.719 35.8114 123.046 36.3596 121.303 36.3596C119.491 36.3596 118.074 35.9783 116.68 35.454V38.7181C117.795 39.3376 119.631 39.6711 121.814 39.6711L121.814 39.6711Z" fill="white"/>
<path fill-rule="evenodd" clip-rule="evenodd" d="M153.711 39.6713C157.706 39.6713 161.307 37.3128 161.307 31.6186V31.0947C161.307 25.4957 157.985 23.1372 153.827 23.1372C149.831 23.1372 146.23 25.4957 146.23 31.1899V31.7139C146.23 37.3128 149.529 39.6713 153.711 39.6713V39.6713Z" fill="white"/>
<path fill-rule="evenodd" clip-rule="evenodd" d="M170.135 23.3992H163.654V39.409H168.021V34.0962H170.251C174.177 34.0962 176.314 32.2379 176.314 28.6168C176.314 25.2574 174.293 23.3992 170.135 23.3992Z" fill="white"/>
<path fill-rule="evenodd" clip-rule="evenodd" d="M134.615 23.3992H130.247V39.409H134.615V32.7858H139.516V39.409H143.907V23.3992H139.516V29.5697H134.615V23.3992Z" fill="white"/>
<path fill-rule="evenodd" clip-rule="evenodd" d="M153.803 36.4073C151.806 36.4073 150.807 35.1446 150.807 31.69V30.88C150.807 27.8543 151.806 26.4011 153.734 26.4011C155.778 26.4011 156.707 27.7591 156.707 31.0945V31.9045C156.707 34.9538 155.708 36.4073 153.803 36.4073V36.4073Z" fill="#B82361"/>
<path fill-rule="evenodd" clip-rule="evenodd" d="M169.624 31.2134H168.021V26.4724H169.717C171.134 26.4724 171.784 27.068 171.784 28.8549C171.784 30.451 171.227 31.2134 169.624 31.2134V31.2134Z" fill="#B82361"/>
<path d="M13.1421 45.417C12.9627 45.3707 12.7955 45.2853 12.6523 45.1666C12.5091 45.0479 12.3935 44.8989 12.3134 44.7301C12.179 44.4661 12.1567 44.3301 12.194 43.7792C12.2388 42.9868 12.3732 42.5566 12.933 41.4773C13.7617 39.8697 14.9859 37.3111 15.2695 36.6092C15.6204 35.7262 16.0086 34.1865 16.1728 33.0092C16.337 31.8998 16.3594 29.2959 16.2176 28.1487C16.0608 26.8807 15.7099 25.3864 15.374 24.5637C15.0605 23.809 13.6273 20.8203 12.9256 19.4768C12.4105 18.4881 12.1716 17.7183 12.1716 17.0617C12.1716 16.2542 12.3658 15.8843 12.9554 15.6126C13.2391 15.4767 13.6124 15.4692 20.3083 15.4692C24.9365 15.4692 27.4597 15.4994 27.6388 15.5447C28.2435 15.7183 28.6615 16.3145 28.6689 17.0088C28.6689 17.7636 28.445 18.3901 27.4373 20.4127C26.4295 22.4354 25.5785 24.3146 25.2576 25.2431C25.0111 25.9373 24.6678 27.6883 24.5708 28.7073C24.3841 30.6394 24.5185 33.0167 24.9141 34.6696C25.2202 35.9678 26.0712 37.9074 27.915 41.5075C28.9079 43.4245 28.9079 44.6849 27.9374 45.266C27.8292 45.3483 27.7113 45.4167 27.5865 45.4698L20.4949 45.4849C15.9339 45.4924 13.3137 45.4698 13.1421 45.417L13.1421 45.417ZM24.9589 42.2924C24.8913 42.006 24.7937 41.7277 24.6678 41.4622C23.1076 38.0206 22.1671 34.3375 22.0476 31.2431C21.9282 27.96 22.7866 24.0882 24.526 20.1184C24.7648 19.5825 24.9589 19.0391 24.9663 18.9108L24.9739 18.6768L20.4277 18.6541L15.8817 18.6391L15.919 18.9259C16.0403 19.3504 16.195 19.7643 16.3817 20.1637C17.8076 23.4391 18.6138 26.5487 18.8154 29.5828C19.0467 32.994 18.1436 37.0772 16.1728 41.5453C16.046 41.8029 15.9556 42.0773 15.9041 42.3603V42.5641L20.4427 42.549L24.9739 42.5263L24.9589 42.2924H24.9589Z" fill="#231F20"/>
<path d="M27.6985 45.417C27.8779 45.3707 28.045 45.2853 28.1882 45.1666C28.3314 45.0479 28.4471 44.8989 28.5271 44.7301C28.6615 44.4661 28.6839 44.3301 28.6465 43.7792C28.6018 42.9868 28.4674 42.5566 27.9076 41.4773C27.0789 39.8697 25.8546 37.3111 25.5711 36.6092C25.2202 35.7262 24.8319 34.1865 24.6678 33.0092C24.5036 31.8998 24.4812 29.2959 24.623 28.1487C24.7797 26.8807 25.1306 25.3864 25.4665 24.5637C25.78 23.809 27.2133 20.8203 27.915 19.4768C28.43 18.4881 28.6689 17.7183 28.6689 17.0617C28.6689 16.2542 28.4748 15.8843 27.8851 15.6126C27.6015 15.4767 27.2282 15.4692 20.5322 15.4692C15.9041 15.4692 13.3809 15.4994 13.2017 15.5447C12.5971 15.7183 12.1791 16.3145 12.1716 17.0088C12.1716 17.7636 12.3956 18.3901 13.4034 20.4127C14.4111 22.4354 15.2621 24.3146 15.5831 25.2431C15.8295 25.9373 16.1728 27.6883 16.2698 28.7073C16.4565 30.6394 16.3221 33.0167 15.9265 34.6696C15.6204 35.9678 14.7694 37.9074 12.9256 41.5075C11.9327 43.4245 11.9327 44.6849 12.9032 45.266C13.0114 45.3483 13.1293 45.4167 13.2541 45.4698L20.3457 45.4849C24.9067 45.4924 27.5269 45.4698 27.6985 45.417L27.6985 45.417ZM15.8817 42.2924C15.9493 42.006 16.0469 41.7277 16.1728 41.4622C17.7329 38.0206 18.6735 34.3375 18.793 31.2431C18.9124 27.96 18.054 24.0882 16.3146 20.1184C16.0758 19.5825 15.8817 19.0391 15.8743 18.9108L15.8667 18.6768L20.4129 18.6541L24.9589 18.6391L24.9215 18.9259C24.8003 19.3504 24.6456 19.7643 24.4588 20.1637C23.033 23.4391 22.2267 26.5487 22.0252 29.5828C21.7938 32.994 22.697 37.0772 24.6678 41.5453C24.7945 41.8029 24.885 42.0773 24.9365 42.3603V42.5641L20.3979 42.549L15.8667 42.5263L15.8817 42.2924H15.8817Z" fill="#231F20"/>
<path d="M13.1421 15.583C12.9627 15.6292 12.7955 15.7147 12.6523 15.8334C12.5091 15.9521 12.3935 16.1011 12.3134 16.2699C12.179 16.534 12.1567 16.6699 12.194 17.2208C12.2388 18.0132 12.3732 18.4434 12.933 19.5227C13.7617 21.1303 14.9859 23.6889 15.2695 24.3907C15.6204 25.2737 16.0086 26.8135 16.1728 27.9908C16.337 29.1002 16.3594 31.7041 16.2176 32.8512C16.0608 34.1193 15.7099 35.6136 15.374 36.4363C15.0605 37.191 13.6273 40.1797 12.9256 41.5232C12.4105 42.5119 12.1716 43.2817 12.1716 43.9382C12.1716 44.7458 12.3658 45.1157 12.9554 45.3874C13.2391 45.5232 13.6124 45.5307 20.3083 45.5307C24.9365 45.5307 27.4597 45.5006 27.6388 45.4553C28.2435 45.2817 28.6615 44.6855 28.6689 43.9912C28.6689 43.2364 28.445 42.6099 27.4373 40.5872C26.4295 38.5646 25.5785 36.6853 25.2576 35.7571C25.0111 35.0627 24.6678 33.3117 24.5708 32.2927C24.3841 30.3607 24.5185 27.9833 24.9141 26.3304C25.2202 25.0323 26.0712 23.0926 27.915 19.4925C28.9079 17.5755 28.9079 16.3151 27.9374 15.734C27.8292 15.6517 27.7113 15.5833 27.5865 15.5302L20.4949 15.5151C15.9339 15.5076 13.3137 15.5302 13.1421 15.583L13.1421 15.583ZM24.9589 18.7076C24.8913 18.994 24.7937 19.2723 24.6678 19.5378C23.1076 22.9794 22.1671 26.6625 22.0476 29.7569C21.9282 33.04 22.7866 36.9118 24.526 40.8816C24.7648 41.4174 24.9589 41.9608 24.9663 42.0892L24.9739 42.3232L20.4277 42.3459L15.8817 42.3609L15.919 42.074C16.0403 41.6496 16.195 41.2357 16.3817 40.8363C17.8076 37.5608 18.6138 34.4513 18.8154 31.4174C19.0467 28.0059 18.1436 23.9228 16.1728 19.4547C16.046 19.1971 15.9556 18.9227 15.9041 18.6397V18.4359L20.4427 18.451L24.9739 18.4737L24.9589 18.7076L24.9589 18.7076Z" fill="#231F20"/>
<path d="M27.6985 15.583C27.8779 15.6292 28.045 15.7147 28.1882 15.8334C28.3314 15.9521 28.4471 16.1011 28.5271 16.2699C28.6615 16.534 28.6839 16.6699 28.6465 17.2208C28.6018 18.0132 28.4674 18.4434 27.9076 19.5227C27.0789 21.1303 25.8546 23.6889 25.5711 24.3907C25.2202 25.2737 24.8319 26.8135 24.6678 27.9908C24.5036 29.1002 24.4812 31.7041 24.623 32.8512C24.7797 34.1193 25.1306 35.6136 25.4665 36.4363C25.78 37.191 27.2133 40.1797 27.915 41.5232C28.43 42.5119 28.6689 43.2817 28.6689 43.9382C28.6689 44.7458 28.4748 45.1157 27.8851 45.3874C27.6015 45.5232 27.2282 45.5307 20.5322 45.5307C15.9041 45.5307 13.3809 45.5006 13.2017 45.4553C12.5971 45.2817 12.1791 44.6855 12.1716 43.9912C12.1716 43.2364 12.3956 42.6099 13.4034 40.5872C14.4111 38.5646 15.2621 36.6853 15.5831 35.7571C15.8295 35.0627 16.1728 33.3117 16.2698 32.2927C16.4565 30.3607 16.3221 27.9833 15.9265 26.3304C15.6204 25.0323 14.7694 23.0926 12.9256 19.4925C11.9327 17.5755 11.9327 16.3151 12.9032 15.734C13.0114 15.6517 13.1293 15.5833 13.2541 15.5302L20.3457 15.5151C24.9067 15.5076 27.5269 15.5302 27.6985 15.583L27.6985 15.583ZM15.8817 18.7076C15.9493 18.994 16.0469 19.2723 16.1728 19.5378C17.7329 22.9794 18.6735 26.6625 18.793 29.7569C18.9124 33.04 18.054 36.9118 16.3146 40.8816C16.0758 41.4174 15.8817 41.9608 15.8743 42.0892L15.8667 42.3232L20.4129 42.3459L24.9589 42.3609L24.9215 42.074C24.8003 41.6496 24.6456 41.2357 24.4588 40.8363C23.033 37.5608 22.2267 34.4513 22.0252 31.4174C21.7938 28.0059 22.697 23.9228 24.6678 19.4547C24.7945 19.1971 24.885 18.9227 24.9365 18.6397V18.4359L20.3979 18.451L15.8667 18.4737L15.8817 18.7076L15.8817 18.7076Z" fill="#231F20"/>
<path d="M6.09529 44.5263C5.54287 44.2471 5.30396 43.8923 5.30396 43.3565C5.30396 42.7527 5.53544 42.4357 6.75212 41.3716C9.8725 38.6394 11.6192 35.9677 12.2612 32.9563C12.4777 31.9374 12.4927 29.9676 12.291 28.9411C11.6342 25.5222 9.72317 22.3901 6.37143 19.2202C5.77422 18.6541 5.62502 18.3371 5.72201 17.7862C5.81159 17.2503 6.3864 16.8276 7.02084 16.8276C7.37171 16.8353 7.80474 17.1145 8.372 17.7031C11.0146 20.4655 12.8062 23.6202 13.6198 26.9486C14.1648 29.1827 14.1796 32.1638 13.6571 34.2242C12.7762 37.7186 10.9698 41.0017 8.5811 43.4848C8.11083 43.9678 7.61062 44.4357 7.46884 44.5188C7.12539 44.7226 6.49837 44.7301 6.09528 44.5263H6.09529Z" fill="#231F20"/>
<path d="M33.2225 44.5188C32.8941 44.315 31.737 43.1225 31.095 42.315C29.0795 39.7942 27.4895 36.3375 26.9371 33.2808C26.7281 32.1185 26.7057 29.7185 26.8997 28.5034C27.4521 24.9788 28.9974 21.7636 31.5504 18.7899C32.4612 17.7258 33.215 17.0164 33.551 16.9032C34.0585 16.7371 34.7603 16.9333 35.0514 17.3334C35.1572 17.5254 35.216 17.7401 35.2231 17.9598C35.2529 18.5107 35.1036 18.7446 34.1929 19.5598C31.834 21.6806 29.8334 24.6165 28.9675 27.2354C28.5192 28.5206 28.324 29.882 28.3928 31.243C28.4376 32.6016 28.5346 33.1902 28.9303 34.3827C29.6991 36.7299 31.4757 39.2055 33.8944 41.3036C35.1559 42.3904 35.4471 42.8282 35.3649 43.5074C35.3201 43.9528 35.0664 44.2847 34.611 44.4961C34.1183 44.7301 33.5808 44.7377 33.2225 44.5188L33.2225 44.5188Z" fill="#231F20"/>
<path d="M35.2007 38.5791C34.8274 38.3451 33.7823 37.1678 33.2971 36.4356C32.465 35.1864 31.8701 33.7916 31.5428 32.3223C31.3786 31.5374 31.3786 29.9676 31.5428 29.1676C31.9459 27.175 32.9238 25.3411 34.5063 23.6505C35.2007 22.9184 35.3946 22.79 35.865 22.79C36.3577 22.79 36.6189 23.0391 36.6189 23.4995C36.6189 23.8392 36.604 23.8618 35.9023 24.5487C34.7154 25.7034 33.9316 26.8053 33.4165 28.043C32.991 29.0619 32.8866 29.6355 32.8866 30.8658C32.8866 32.1715 33.006 32.7526 33.4912 33.779C34.0137 34.8885 34.5661 35.5677 36.1114 36.9866C36.7682 37.5904 36.7982 38.1413 36.2158 38.5414C36.0677 38.6448 35.8935 38.7033 35.7137 38.71C35.5338 38.7167 35.3558 38.6713 35.2007 38.5791Z" fill="#231F20"/>
<path d="M4.63214 38.2094C4.46823 38.1104 4.33005 37.9732 4.22906 37.8094C4.10967 37.583 4.10211 37.5 4.17685 37.2358C4.24403 36.9868 4.37839 36.8132 4.84111 36.4131C6.01312 35.3791 6.7745 34.4207 7.27471 33.3565C7.69277 32.4508 7.84952 31.8094 7.89431 30.715C7.99131 28.4507 7.0582 26.3601 5.04277 24.3451C4.17684 23.4696 4.1469 23.4318 4.1469 23.1223C4.1469 22.6996 4.40079 22.4204 4.83368 22.36C5.25916 22.3072 5.47567 22.4431 6.28184 23.3035C7.87192 24.994 8.88705 26.9035 9.22309 28.8281C9.3499 29.5753 9.37229 31.0924 9.2529 31.7414C9.03638 32.9942 8.23764 34.9037 7.44644 36.066C6.9836 36.7453 6.07288 37.8019 5.722 38.0736C5.57323 38.2012 5.3908 38.2821 5.19716 38.3062C5.00351 38.3303 4.80712 38.2967 4.63214 38.2094V38.2094Z" fill="#231F20"/>
</svg>
