<svg width="34" height="34" viewBox="0 0 34 34" fill="none" xmlns="http://www.w3.org/2000/svg">
<rect width="34" height="34" rx="3" fill="#C1A790"/>
<path d="M25.8244 12.7646C24.7401 12.7646 23.7396 12.4054 22.9362 11.7994C22.0148 11.1047 21.3528 10.0857 21.119 8.91121C21.0611 8.62102 21.0299 8.32154 21.0269 8.01465H17.9294V16.4786L17.9257 21.1146C17.9257 22.3541 17.1186 23.405 15.9997 23.7746C15.675 23.8819 15.3243 23.9327 14.9592 23.9127C14.4931 23.8871 14.0563 23.7464 13.6767 23.5193C12.8688 23.0362 12.3211 22.1596 12.3062 21.1569C12.2829 19.5898 13.5498 18.3121 15.1158 18.3121C15.4249 18.3121 15.7218 18.3626 15.9997 18.4543V16.1409V15.3092C15.7066 15.2658 15.4082 15.2432 15.1065 15.2432C13.3924 15.2432 11.7893 15.9557 10.6434 17.2393C9.77723 18.2093 9.2577 19.4469 9.17754 20.7446C9.07252 22.4495 9.69633 24.07 10.9061 25.2657C11.0838 25.4412 11.2705 25.6041 11.4657 25.7544C12.5029 26.5526 13.7709 26.9853 15.1065 26.9853C15.4082 26.9853 15.7066 26.9631 15.9997 26.9196C17.2473 26.7348 18.3985 26.1637 19.3069 25.2657C20.4232 24.1624 21.0399 22.6977 21.0466 21.1387L21.0306 14.2156C21.5632 14.6264 22.1454 14.9663 22.7703 15.2302C23.7422 15.6403 24.7728 15.8481 25.8333 15.8477V13.5985V12.7639C25.8341 12.7646 25.8252 12.7646 25.8244 12.7646Z" fill="white"/>
</svg>
