<svg width="34" height="34" viewBox="0 0 34 34" fill="none" xmlns="http://www.w3.org/2000/svg">
<rect width="34" height="34" rx="3" fill="#C1A790"/>
<path d="M17.0025 7H16.9975C11.4838 7 7 11.485 7 17C7 19.1875 7.705 21.215 8.90375 22.8612L7.6575 26.5763L11.5013 25.3475C13.0825 26.395 14.9688 27 17.0025 27C22.5162 27 27 22.5138 27 17C27 11.4863 22.5162 7 17.0025 7ZM22.8212 21.1213C22.58 21.8025 21.6225 22.3675 20.8587 22.5325C20.3363 22.6437 19.6537 22.7325 17.3562 21.78C14.4175 20.5625 12.525 17.5763 12.3775 17.3825C12.2362 17.1887 11.19 15.8013 11.19 14.3663C11.19 12.9313 11.9188 12.2325 12.2125 11.9325C12.4538 11.6863 12.8525 11.5738 13.235 11.5738C13.3587 11.5738 13.47 11.58 13.57 11.585C13.8637 11.5975 14.0113 11.615 14.205 12.0788C14.4462 12.66 15.0337 14.095 15.1038 14.2425C15.175 14.39 15.2463 14.59 15.1462 14.7838C15.0525 14.9838 14.97 15.0725 14.8225 15.2425C14.675 15.4125 14.535 15.5425 14.3875 15.725C14.2525 15.8837 14.1 16.0538 14.27 16.3475C14.44 16.635 15.0275 17.5937 15.8925 18.3637C17.0087 19.3575 17.9137 19.675 18.2375 19.81C18.4787 19.91 18.7662 19.8863 18.9425 19.6988C19.1663 19.4575 19.4425 19.0575 19.7238 18.6638C19.9237 18.3813 20.1763 18.3462 20.4412 18.4462C20.7113 18.54 22.14 19.2462 22.4338 19.3925C22.7275 19.54 22.9212 19.61 22.9925 19.7338C23.0625 19.8575 23.0625 20.4388 22.8212 21.1213Z" fill="white"/>
</svg>
