<svg width="34" height="34" viewBox="0 0 34 34" fill="none" xmlns="http://www.w3.org/2000/svg">
<rect width="34" height="34" rx="3" fill="#C1A790"/>
<path d="M26.8768 12.8448C26.6391 11.9613 25.9424 11.2647 25.059 11.0268C23.445 10.5852 16.989 10.5852 16.989 10.5852C16.989 10.5852 10.5332 10.5852 8.91927 11.0101C8.05281 11.2477 7.33916 11.9614 7.10149 12.8448C6.67676 14.4587 6.67676 17.8056 6.67676 17.8056C6.67676 17.8056 6.67676 21.1694 7.10149 22.7663C7.33942 23.6498 8.03581 24.3463 8.9194 24.5842C10.5502 25.026 16.9893 25.026 16.9893 25.026C16.9893 25.026 23.445 25.026 25.059 24.6011C25.9426 24.3633 26.6391 23.6668 26.877 22.7833C27.3016 21.1694 27.3016 17.8226 27.3016 17.8226C27.3016 17.8226 27.3186 14.4587 26.8768 12.8448ZM14.9336 20.8976V14.7136L20.302 17.8056L14.9336 20.8976Z" fill="white"/>
</svg>
