<svg width="34" height="34" viewBox="0 0 34 34" fill="none" xmlns="http://www.w3.org/2000/svg">
<rect width="34" height="34" rx="3" fill="white"/>
<path d="M17 13.3438C14.9645 13.3438 13.3086 14.9996 13.3086 17.0352C13.3086 19.0707 14.9645 20.7266 17 20.7266C19.0355 20.7266 20.6914 19.0707 20.6914 17.0352C20.6914 14.9996 19.0355 13.3438 17 13.3438ZM17 13.3438C14.9645 13.3438 13.3086 14.9996 13.3086 17.0352C13.3086 19.0707 14.9645 20.7266 17 20.7266C19.0355 20.7266 20.6914 19.0707 20.6914 17.0352C20.6914 14.9996 19.0355 13.3438 17 13.3438ZM23.3633 8H10.6367C9.18125 8 8 9.18125 8 10.6367V23.3633C8 24.8188 9.18125 26 10.6367 26H23.3633C24.8188 26 26 24.8188 26 23.3633V10.6367C26 9.18125 24.8188 8 23.3633 8ZM17 21.7812C14.3844 21.7812 12.2539 19.6507 12.2539 17.0352C12.2539 14.4195 14.3844 12.2891 17 12.2891C19.6156 12.2891 21.7461 14.4195 21.7461 17.0352C21.7461 19.6507 19.6156 21.7812 17 21.7812ZM22.8008 12.2891C22.2207 12.2891 21.7461 11.8145 21.7461 11.2344C21.7461 10.6543 22.2207 10.1797 22.8008 10.1797C23.3809 10.1797 23.8555 10.6543 23.8555 11.2344C23.8555 11.8145 23.3809 12.2891 22.8008 12.2891ZM17 13.3438C14.9645 13.3438 13.3086 14.9996 13.3086 17.0352C13.3086 19.0707 14.9645 20.7266 17 20.7266C19.0355 20.7266 20.6914 19.0707 20.6914 17.0352C20.6914 14.9996 19.0355 13.3438 17 13.3438ZM17 13.3438C14.9645 13.3438 13.3086 14.9996 13.3086 17.0352C13.3086 19.0707 14.9645 20.7266 17 20.7266C19.0355 20.7266 20.6914 19.0707 20.6914 17.0352C20.6914 14.9996 19.0355 13.3438 17 13.3438ZM17 13.3438C14.9645 13.3438 13.3086 14.9996 13.3086 17.0352C13.3086 19.0707 14.9645 20.7266 17 20.7266C19.0355 20.7266 20.6914 19.0707 20.6914 17.0352C20.6914 14.9996 19.0355 13.3438 17 13.3438Z" fill="#C1A790"/>
</svg>
