<svg width="34" height="34" viewBox="0 0 34 34" fill="none" xmlns="http://www.w3.org/2000/svg">
<rect width="34" height="34" rx="3" fill="white"/>
<path d="M25.8244 12.7645C24.7401 12.7645 23.7396 12.4053 22.9362 11.7993C22.0148 11.1046 21.3528 10.0856 21.119 8.91109C21.0611 8.62089 21.0299 8.32142 21.0269 8.01453H17.9294V16.4784L17.9257 21.1145C17.9257 22.354 17.1186 23.4049 15.9997 23.7745C15.675 23.8818 15.3243 23.9326 14.9592 23.9126C14.4931 23.8869 14.0563 23.7463 13.6767 23.5192C12.8688 23.036 12.3211 22.1595 12.3062 21.1568C12.2829 19.5897 13.5498 18.312 15.1158 18.312C15.4249 18.312 15.7218 18.3625 15.9997 18.4541V16.1407V15.3091C15.7066 15.2657 15.4082 15.2431 15.1065 15.2431C13.3924 15.2431 11.7893 15.9556 10.6434 17.2392C9.77723 18.2092 9.2577 19.4468 9.17754 20.7445C9.07252 22.4493 9.69633 24.0699 10.9061 25.2656C11.0838 25.4411 11.2705 25.604 11.4657 25.7543C12.5029 26.5525 13.7709 26.9852 15.1065 26.9852C15.4082 26.9852 15.7066 26.9629 15.9997 26.9195C17.2473 26.7347 18.3985 26.1636 19.3069 25.2656C20.4232 24.1623 21.0399 22.6976 21.0466 21.1386L21.0306 14.2155C21.5632 14.6263 22.1454 14.9662 22.7703 15.2301C23.7422 15.6401 24.7728 15.8479 25.8333 15.8476V13.5984V12.7638C25.8341 12.7645 25.8252 12.7645 25.8244 12.7645Z" fill="#C1A790"/>
</svg>
