<svg width="34" height="34" viewBox="0 0 34 34" fill="none" xmlns="http://www.w3.org/2000/svg">
<rect width="34" height="34" rx="3" fill="white"/>
<g clip-path="url(#clip0)">
<path d="M23.5958 17.8567C23.2725 17.4484 23.365 17.2667 23.5958 16.9017C23.6 16.8976 26.2692 13.2092 26.5442 11.9584L26.5458 11.9576C26.6825 11.5017 26.5458 11.1667 25.885 11.1667H23.6983C23.1417 11.1667 22.885 11.4542 22.7475 11.7759C22.7475 11.7759 21.6342 14.4409 20.0592 16.1684C19.5508 16.6676 19.3158 16.8276 19.0383 16.8276C18.9017 16.8276 18.6892 16.6676 18.6892 16.2117V11.9576C18.6892 11.4109 18.5333 11.1667 18.0725 11.1667H14.6342C14.285 11.1667 14.0775 11.4217 14.0775 11.6592C14.0775 12.1776 14.865 12.2967 14.9467 13.7551V16.9192C14.9467 17.6126 14.8208 17.7401 14.5417 17.7401C13.7983 17.7401 11.9942 15.0642 10.925 12.0017C10.7092 11.4076 10.4983 11.1676 9.9375 11.1676H7.75C7.12583 11.1676 7 11.4551 7 11.7767C7 12.3451 7.74333 15.1709 10.4567 18.9042C12.265 21.4526 14.8117 22.8334 17.1283 22.8334C18.5208 22.8334 18.6908 22.5267 18.6908 21.9992C18.6908 19.5642 18.565 19.3342 19.2625 19.3342C19.5858 19.3342 20.1425 19.4942 21.4425 20.7234C22.9283 22.1809 23.1725 22.8334 24.0042 22.8334H26.1908C26.8142 22.8334 27.13 22.5267 26.9483 21.9217C26.5325 20.6492 23.7225 18.0317 23.5958 17.8567Z" fill="#C1A790"/>
</g>
<defs>
<clipPath id="clip0">
<rect width="20" height="20" fill="white" transform="translate(7 7)"/>
</clipPath>
</defs>
</svg>
