<svg width="34" height="34" viewBox="0 0 34 34" fill="none" xmlns="http://www.w3.org/2000/svg">
<rect width="34" height="34" rx="3" fill="white"/>
<path d="M26.8768 12.845C26.6391 11.9614 25.9424 11.2649 25.059 11.0269C23.445 10.5853 16.989 10.5853 16.989 10.5853C16.989 10.5853 10.5332 10.5853 8.91927 11.0102C8.05281 11.2479 7.33916 11.9615 7.10149 12.845C6.67676 14.4588 6.67676 17.8057 6.67676 17.8057C6.67676 17.8057 6.67676 21.1695 7.10149 22.7665C7.33942 23.6499 8.03581 24.3464 8.9194 24.5844C10.5502 25.0261 16.9893 25.0261 16.9893 25.0261C16.9893 25.0261 23.445 25.0261 25.059 24.6012C25.9426 24.3634 26.6391 23.6669 26.877 22.7835C27.3016 21.1695 27.3016 17.8227 27.3016 17.8227C27.3016 17.8227 27.3186 14.4588 26.8768 12.845ZM14.9336 20.8977V14.7137L20.302 17.8057L14.9336 20.8977Z" fill="#C1A790"/>
</svg>
