<svg width="39" height="39" viewBox="0 0 39 39" fill="none" xmlns="http://www.w3.org/2000/svg">
<path fill-rule="evenodd" clip-rule="evenodd" d="M37.6613 16.4653C37.4822 16.3207 37.2475 16.2648 37.0228 16.313L25.3977 18.8002L24.0938 18.5214L27.534 11.6305C27.5397 11.6192 27.5451 11.6079 27.5501 11.5966C28.0119 10.5453 28.2461 9.42686 28.2461 8.27179C28.2461 3.7107 24.5357 0 19.9746 0C15.4135 0 11.7028 3.7107 11.7028 8.27179C11.7028 9.42686 11.937 10.5453 12.3991 11.5966C12.4041 11.6079 12.4092 11.6192 12.4148 11.6305L14.8702 16.5477L13.7722 16.313C13.7621 16.3106 13.7517 16.3097 13.7413 16.3082C13.7264 16.3055 13.7118 16.3029 13.697 16.3011C13.6833 16.2996 13.6699 16.2993 13.6565 16.2984C13.6416 16.2975 13.627 16.2963 13.6124 16.2963C13.5985 16.2963 13.5848 16.2975 13.5708 16.2981C13.5565 16.299 13.5422 16.2996 13.5282 16.3011C13.5137 16.3029 13.4994 16.3055 13.4851 16.3079C13.4744 16.3097 13.464 16.3106 13.4533 16.3127L1.66864 18.8344C1.31754 18.9094 1.06641 19.22 1.06641 19.5791V25.8618C1.06641 26.2826 1.40739 26.6236 1.82812 26.6236C2.24886 26.6236 2.58984 26.2826 2.58984 25.8618V20.1951L12.851 17.9998V35.101L2.58984 37.2962V31.9556C2.58984 31.5349 2.24886 31.1939 1.82812 31.1939C1.40739 31.1939 1.06641 31.5349 1.06641 31.9556V38.2383C1.06641 38.4683 1.17025 38.6861 1.34908 38.8304C1.48595 38.9411 1.65525 39 1.82812 39C1.88109 39 1.93465 38.9943 1.98761 38.983L13.6127 36.4958L25.2382 38.983C25.2423 38.9839 25.2465 38.9845 25.2507 38.9851C25.2676 38.9884 25.2846 38.9911 25.3016 38.9932C25.3093 38.994 25.3167 38.9952 25.3245 38.9961C25.3486 38.9985 25.373 39 25.3977 39C25.4221 39 25.4465 38.9985 25.4706 38.9961C25.4783 38.9952 25.486 38.994 25.4935 38.9932C25.5104 38.9911 25.5274 38.9884 25.5441 38.9851C25.5482 38.9842 25.5527 38.9839 25.5569 38.983L37.3415 36.4616C37.6929 36.3864 37.944 36.076 37.944 35.7169V29.4342C37.944 29.0135 37.603 28.6725 37.1823 28.6725C36.7616 28.6725 36.4206 29.0135 36.4206 29.4342V35.1007L26.1594 37.2962V20.1951L36.4206 17.9998V23.3404C36.4206 23.7612 36.7616 24.1021 37.1823 24.1021C37.603 24.1021 37.944 23.7612 37.944 23.3404V17.0577C37.944 16.8277 37.8402 16.6102 37.6613 16.4653ZM13.2262 8.27179C13.2262 4.55067 16.2535 1.52344 19.9746 1.52344C23.6957 1.52344 26.7229 4.55067 26.7229 8.27179C26.7229 9.20847 26.5343 10.1151 26.1627 10.967L19.9746 23.3613L13.7865 10.967C13.4146 10.1151 13.2262 9.20847 13.2262 8.27179ZM14.3745 17.9998L15.7408 18.292L19.2932 25.4066C19.422 25.6649 19.686 25.8282 19.9746 25.8282C20.2632 25.8282 20.5271 25.6649 20.6563 25.4066L23.391 19.9288L24.6359 20.1951V37.2962L14.3748 35.1007V17.9998H14.3745Z" fill="#C1A790"/>
<path fill-rule="evenodd" clip-rule="evenodd" d="M24.8725 8.27174C24.8725 5.57092 22.6755 3.37354 19.9746 3.37354C17.2738 3.37354 15.0764 5.57092 15.0764 8.27174C15.0764 10.9726 17.2738 13.1697 19.9746 13.1697C22.6755 13.1697 24.8725 10.9726 24.8725 8.27174ZM16.5999 8.27174C16.5999 6.41089 18.1138 4.89697 19.9746 4.89697C21.8355 4.89697 23.3494 6.41089 23.3494 8.27174C23.3494 10.1323 21.8355 11.6462 19.9746 11.6462C18.1138 11.6462 16.5999 10.1323 16.5999 8.27174Z" fill="#C1A790"/>
<path fill-rule="evenodd" clip-rule="evenodd" d="M1.82812 29.6704C2.24767 29.6704 2.58984 29.3282 2.58984 28.9087C2.58984 28.4892 2.24767 28.147 1.82812 28.147C1.40858 28.147 1.06641 28.4892 1.06641 28.9087C1.06641 29.3282 1.40858 29.6704 1.82812 29.6704Z" fill="#C1A790"/>
<path fill-rule="evenodd" clip-rule="evenodd" d="M37.1823 25.6256C36.7627 25.6256 36.4205 25.9678 36.4205 26.3873C36.4205 26.8069 36.7627 27.149 37.1823 27.149C37.6018 27.149 37.944 26.8069 37.944 26.3873C37.944 25.9678 37.6018 25.6256 37.1823 25.6256Z" fill="#C1A790"/>
</svg>
