<svg width="38" height="38" viewBox="0 0 38 38" fill="none" xmlns="http://www.w3.org/2000/svg">
<g clip-path="url(#clip0)">
<path d="M17.2547 28.9694C16.9651 29.2587 16.9651 29.7287 17.2547 30.0186C17.5449 30.3082 18.0146 30.3082 18.3039 30.0186C18.5941 29.7287 18.5941 29.2587 18.3039 28.9694C18.0146 28.6792 17.5449 28.6792 17.2547 28.9694Z" fill="#C1A790"/>
<path d="M36.2878 27.6803L30.653 22.8888C30.6269 22.8668 30.5993 22.8465 30.5706 22.8282C29.0923 21.8872 27.1943 22.0956 25.9549 23.3347L22.8826 26.4067C22.6698 26.6198 22.3523 26.6827 22.074 26.5679C18.6049 25.1328 15.755 22.9723 13.6035 20.1471C11.9629 17.9927 11.3715 16.2808 11.2935 16.0395C11.2842 15.9879 11.2694 15.9366 11.2485 15.8865C11.1334 15.6081 11.1963 15.2913 11.4097 15.0785L14.4817 12.0056C15.7211 10.7662 15.9292 8.86816 14.9882 7.38987C14.9806 7.37798 14.9728 7.36639 14.9647 7.35479L10.8954 1.69996C9.61513 -0.28626 6.82642 -0.586325 5.15273 1.08708L4.53753 1.70228C4.53724 1.70286 4.53666 1.70344 4.53608 1.70373L2.33967 3.90014C-0.279443 6.51954 -0.707941 10.4555 1.10085 15.2831C2.65017 19.4185 5.7517 23.9444 9.83402 28.0267C14.0129 32.2056 18.6611 35.3645 22.9223 36.9217C27.14 38.4626 31.6265 38.6525 34.802 35.4767L36.8734 33.4056C38.5396 31.7391 38.2488 28.9687 36.2878 27.6803ZM29.7333 24.0549L35.3632 28.8423C35.389 28.8643 35.4166 28.8846 35.4453 28.9029C36.6479 29.6685 36.8299 31.3501 35.8236 32.3561L35.67 32.51L26.0676 25.3207L27.0044 24.3842C27.7364 23.6519 28.852 23.5194 29.7333 24.0549ZM9.65543 2.5155C9.66297 2.52738 9.6708 2.53927 9.67892 2.55058L13.7465 8.20338C14.299 9.08791 14.1712 10.2171 13.4322 10.9561L12.5245 11.8642L6.02799 2.31082L6.20223 2.13658C7.21259 1.12621 8.89266 1.31727 9.65543 2.5155ZM23.4314 35.5275C19.3691 34.0431 14.9128 31.0065 10.8835 26.9772C6.94761 23.0416 3.96697 18.7036 2.49042 14.7625C1.38207 11.8041 0.638434 7.70037 3.38917 4.94993L4.95965 3.37916L11.4561 12.9325L10.3605 14.0287C9.73719 14.6508 9.5412 15.5716 9.85229 16.3915C10.0865 17.3529 11.1644 19.3484 12.2519 20.8188C13.8523 22.9828 16.7569 25.9744 21.5067 27.9395C22.3413 28.2848 23.2931 28.0952 23.9321 27.4565L25.0074 26.3809L34.6097 33.5702L33.7525 34.4272C30.8037 37.3763 26.5124 36.6532 23.4314 35.5275Z" fill="#C1A790"/>
<path d="M15.8619 27.1974C15.078 26.51 13.722 25.3278 13.008 24.5931C11.2569 22.7936 9.41966 20.6123 8.32725 19.0363C8.09387 18.6994 7.63145 18.6153 7.29457 18.849C6.95768 19.0824 6.8739 19.5448 7.10728 19.8817C8.48497 21.8693 10.5092 24.1533 11.944 25.6278C12.6978 26.4036 14.0653 27.5964 14.8831 28.3133C15.1907 28.5829 15.6595 28.5534 15.9306 28.2446C16.2008 27.9367 16.1701 27.4676 15.8619 27.1974Z" fill="#C1A790"/>
</g>
<defs>
<clipPath id="clip0">
<rect width="38" height="38" fill="white"/>
</clipPath>
</defs>
</svg>
