<svg width="16" height="22" viewBox="0 0 16 22" fill="none" xmlns="http://www.w3.org/2000/svg">
<path d="M3.00017 6.71958H3.00019H13.2151H13.2151C13.9965 6.7197 14.6433 7.32375 14.6855 8.09736M3.00017 6.71958L15.2133 19.5707L15.3131 19.5652L14.6855 8.09736M3.00017 6.71958C2.21878 6.7197 1.57203 7.32374 1.52978 8.09735C1.52978 8.09735 1.52978 8.09736 1.52978 8.09736L0.902178 19.5652L3.00017 6.71958ZM14.6855 8.09736L14.5857 8.10281L14.6855 8.09735L14.6855 8.09736ZM3.00074 7.62582H3.00033C2.70263 7.6246 2.45788 7.85349 2.44097 8.14441C2.44097 8.14447 2.44096 8.14452 2.44096 8.14458L1.81559 19.6137L1.81558 19.6138C1.80727 19.7641 1.86186 19.9114 1.96695 20.0211C2.07209 20.1308 2.21854 20.1932 2.37204 20.1933L3.00074 7.62582ZM3.00074 7.62582H13.215C13.5114 7.62638 13.7542 7.85482 13.771 8.14452C13.771 8.14454 13.771 8.14456 13.771 8.14458L14.3986 19.6137L14.3986 19.6138M3.00074 7.62582L14.3986 19.6138M14.3986 19.6138C14.4069 19.7641 14.3523 19.9114 14.2472 20.0211C14.1421 20.1308 13.9956 20.1932 13.8421 20.1933M14.3986 19.6138L13.8421 20.1933M13.8421 20.1933H2.37206H13.8421ZM13.8421 20.1933C13.8421 20.1933 13.8421 20.1933 13.8421 20.1933M13.8421 20.1933H13.8421M14.9114 20.6459C15.1897 20.3557 15.3351 19.9649 15.3131 19.5652L13.8427 21.1C14.2467 21.1001 14.6332 20.9361 14.9114 20.6459ZM13.8421 21.1H13.8427L0.902176 19.5652C0.880184 19.9649 1.02559 20.3557 1.30386 20.6459C1.58209 20.9361 1.9686 21.1001 2.37259 21.1C2.3726 21.1 2.37261 21.1 2.37262 21.1H13.8421Z" fill="white" stroke="white" stroke-width="0.2"/>
<path d="M10.9497 9.31986C10.9495 9.4406 10.9979 9.5562 11.084 9.6412C11.17 9.72616 11.2864 9.77359 11.4075 9.77341L11.408 9.77341L11.7623 9.32002H11.8623V9.31986V5.24181C11.8623 2.86193 10.1893 0.9 8.10431 0.9C6.01931 0.9 4.3469 2.86195 4.3469 5.24181V9.32002C4.3469 9.57215 4.55345 9.7745 4.80569 9.7745C5.05792 9.7745 5.26447 9.57215 5.26447 9.32002V5.24181C5.26447 3.3294 6.55589 1.80624 8.10707 1.80624C9.65825 1.80624 10.9497 3.3294 10.9497 5.24181V9.31986ZM10.9497 9.31986L11.0497 9.32002M10.9497 9.31986V9.32002H11.0497M11.0497 9.32002C11.0495 9.41379 11.0872 9.50376 11.1543 9.57006C11.2214 9.63637 11.3124 9.67355 11.4073 9.67341L11.0497 9.32002Z" fill="white" stroke="white" stroke-width="0.2"/>
</svg>
