<svg width="10" height="10" viewBox="0 0 10 10" fill="none" xmlns="http://www.w3.org/2000/svg">
<path d="M6.10178 5L9.84088 1.26073C9.94374 1.1578 10.0005 1.02047 10.0007 0.874041C10.0007 0.727527 9.9439 0.590038 9.84088 0.487267L9.51322 0.159685C9.4102 0.0565077 9.27288 0 9.12628 0C8.97993 0 8.84261 0.0565077 8.73959 0.159685L5.00049 3.89871L1.26122 0.159685C1.15837 0.0565077 1.02096 0 0.874447 0C0.728096 0 0.590689 0.0565077 0.487837 0.159685L0.16001 0.487267C-0.0533368 0.700615 -0.0533368 1.04763 0.16001 1.26073L3.8992 5L0.16001 8.73911C0.0570769 8.8422 0.00040653 8.97953 0.00040653 9.12596C0.00040653 9.27239 0.0570769 9.40972 0.16001 9.51273L0.487755 9.84031C0.590608 9.94341 0.728096 10 0.874366 10C1.02088 10 1.15829 9.94341 1.26114 9.84031L5.00041 6.10121L8.73951 9.84031C8.84253 9.94341 8.97985 10 9.1262 10H9.12637C9.2728 10 9.41012 9.94341 9.51314 9.84031L9.8408 9.51273C9.94365 9.4098 10.0004 9.27239 10.0004 9.12596C10.0004 8.97953 9.94365 8.8422 9.8408 8.73919L6.10178 5Z" fill="#6D6D6D"/>
</svg>
