<svg width="102" height="102" viewBox="0 0 102 102" fill="none" xmlns="http://www.w3.org/2000/svg">
<circle cx="51" cy="51" r="51" fill="white"/>
<ellipse cx="51" cy="51" rx="44" ry="43" fill="#C1A790"/>
<path d="M57.3776 30.7057C57.2191 30.5945 57.0211 30.5551 56.8325 30.5974C56.6435 30.6397 56.4815 30.7595 56.3854 30.9273C56.3807 30.9356 56.375 30.9431 56.3699 30.9506C56.1491 31.2662 55.7127 31.3429 55.3971 31.1224C55.0855 30.9044 54.6563 30.9797 54.4383 31.2913L53.435 32.7245C53.2169 33.0361 53.2926 33.4653 53.6039 33.6834C53.7243 33.7676 53.862 33.8081 53.9983 33.8081C54.2152 33.8081 54.4289 33.7056 54.5627 33.5145L55.2386 32.5488C55.8733 32.7256 56.5629 32.5893 57.0828 32.1798L58.0983 32.8909C58.4099 33.1089 58.8388 33.0333 59.0572 32.722C59.2752 32.4104 59.1995 31.9812 58.8879 31.7632L57.3776 30.7057Z" fill="white"/>
<path d="M64.9914 39.3782L64.3155 40.3435C64.0975 40.6551 64.1731 41.0844 64.4844 41.3024C64.6048 41.3866 64.7425 41.4268 64.8788 41.4268C65.0957 41.4268 65.3095 41.3246 65.4432 41.1331L66.4469 39.7002C66.6649 39.3886 66.5892 38.9594 66.278 38.7414C65.9624 38.5205 65.8853 38.0841 66.1066 37.7682C66.112 37.7607 66.117 37.7531 66.1231 37.7463C66.2479 37.5982 66.3049 37.405 66.2798 37.2131C66.255 37.0213 66.1507 36.8484 65.9922 36.7376L64.4819 35.6802C64.1702 35.4622 63.741 35.5378 63.523 35.8494C63.3046 36.1607 63.3806 36.5903 63.6919 36.8083L64.7074 37.519C64.5001 38.1479 64.6081 38.8421 64.9914 39.3782Z" fill="white"/>
<path d="M61.3378 54.8458C61.6648 54.8458 61.9685 54.9767 62.193 55.2148C62.454 55.4909 62.8897 55.5035 63.1662 55.2424C63.443 54.9814 63.4552 54.5457 63.1942 54.2692C62.714 53.7608 62.0374 53.4689 61.3378 53.4689C59.93 53.4689 58.785 54.6142 58.785 56.022C58.785 57.4294 59.93 58.5747 61.3378 58.5747C62.0198 58.5747 62.6609 58.3094 63.1429 57.8271C63.4118 57.5581 63.4118 57.1221 63.1429 56.8535C62.8743 56.5846 62.4383 56.5846 62.1693 56.8535C61.9474 57.0755 61.6519 57.1978 61.3378 57.1978C60.6895 57.1978 60.162 56.6703 60.162 56.022C60.162 55.3733 60.6895 54.8458 61.3378 54.8458Z" fill="white"/>
<path d="M67.4677 51.1721V45.6579C67.4677 43.7857 65.9445 42.2625 64.0723 42.2625H60.4187C60.6324 40.4165 60.0297 38.7928 58.7581 37.9025C57.681 37.1484 56.2854 37.0132 54.8281 37.5217C53.4508 38.0025 52.1696 39.013 51.2215 40.367C50.8016 40.9662 50.4674 41.6016 50.225 42.2625H45.7427L55.3771 28.5033L68.7461 37.8641L66.7093 40.7733C66.4913 41.0849 66.567 41.5141 66.8782 41.7321C67.1898 41.9501 67.619 41.8745 67.8371 41.5629L70.0574 38.3919C70.3919 37.9154 70.2761 37.2552 69.7989 36.9203L55.9049 27.192C55.674 27.0299 55.3936 26.9675 55.1157 27.0163C54.8378 27.0654 54.5957 27.2192 54.4333 27.4505L51.2466 32.002V29.2574C51.2466 28.6747 50.7725 28.2007 50.1898 28.2007H33.6764C33.0937 28.2007 32.6197 28.6747 32.6197 29.2574V33.0265C32.6197 33.4069 32.9281 33.715 33.3082 33.715C33.6886 33.715 33.9966 33.4069 33.9966 33.0265V29.578H35.9914V42.2621H34.1591C34.1049 42.2621 34.0508 42.2635 33.9966 42.266V35.7804C33.9966 35.4003 33.6886 35.0919 33.3082 35.0919C32.9281 35.0919 32.6197 35.4003 32.6197 35.7804V42.6318C31.5192 43.1941 30.7637 44.3394 30.7637 45.6579V66.3857C30.7637 68.2578 32.2869 69.7811 34.1591 69.7811H39.2997C39.6802 69.7811 39.9882 69.4731 39.9882 69.0926C39.9882 68.7125 39.6802 68.4041 39.2997 68.4041H34.1591C33.046 68.4041 32.1406 67.4987 32.1406 66.3857V45.6579C32.1406 44.7758 32.7093 44.0242 33.4989 43.7502C33.5165 43.7452 33.5341 43.7395 33.5509 43.733C33.7431 43.672 33.9475 43.6391 34.1594 43.6391H64.0723C65.1853 43.6391 66.0911 44.5448 66.0911 45.6579V51.0768H61.1621C58.4354 51.0768 56.2169 53.2949 56.2169 56.022C56.2169 58.7486 58.4354 60.9668 61.1621 60.9668H66.0911V66.3857C66.0911 67.4987 65.1853 68.4041 64.0723 68.4041H58.8116C58.4311 68.4041 58.1231 68.7125 58.1231 69.0926C58.1231 69.4731 58.4311 69.7811 58.8116 69.7811H64.0723C65.9445 69.7811 67.4681 68.2578 67.4681 66.3857V60.8714C69.0258 60.5017 70.1879 59.0989 70.1879 57.4301V54.6138C70.1876 52.9446 69.0254 51.5418 67.4677 51.1721ZM52.3492 41.1573C53.9194 38.9147 56.4403 37.9609 57.9685 39.0306C58.8489 39.647 59.2365 40.8565 59.0303 42.2621H51.7131C51.8877 41.882 52.1 41.5123 52.3492 41.1573ZM49.8696 33.9685L44.062 42.2625H40.6695V29.5776H49.8696V33.9685ZM37.3684 29.5776H39.2925V42.2621H37.3684V29.5776ZM68.8106 57.4297C68.8106 58.621 67.8417 59.5898 66.6505 59.5898H61.1621C59.1945 59.5898 57.5938 57.9891 57.5938 56.0216C57.5938 54.0544 59.1945 52.4537 61.1621 52.4537H66.6505C67.8417 52.4537 68.8106 53.4226 68.8106 54.6138V57.4297Z" fill="white"/>
<path d="M49.1155 57.3644C44.5292 57.3644 40.7979 61.0958 40.7979 65.6824C40.7979 70.2687 44.5292 74.0001 49.1155 74.0001C53.7021 74.0001 57.4335 70.2687 57.4335 65.6824C57.4335 61.0958 53.7021 57.3644 49.1155 57.3644ZM49.1155 72.6231C45.2884 72.6231 42.1748 69.5095 42.1748 65.6824C42.1748 61.8549 45.2884 58.7413 49.1155 58.7413C52.943 58.7413 56.0566 61.8549 56.0566 65.6824C56.0566 69.5095 52.943 72.6231 49.1155 72.6231Z" fill="white"/>
</svg>
