<svg width="102" height="102" viewBox="0 0 102 102" fill="none" xmlns="http://www.w3.org/2000/svg">
<circle cx="51" cy="51" r="51" fill="white"/>
<ellipse cx="51" cy="51" rx="44" ry="43" fill="#C1A790"/>
<g clip-path="url(#clip0)">
<path d="M71.0996 37.1498L49.3058 27.067C49.1125 26.9777 48.8876 26.9777 48.6944 27.067L26.9005 37.1498C26.6575 37.2622 26.5031 37.498 26.5031 37.7566V62.2434C26.5031 62.502 26.6575 62.7378 26.9005 62.8502L48.6943 72.933C48.7909 72.9777 48.8955 73 49 73C49.1046 73 49.2091 72.9777 49.3058 72.933L71.0996 62.8502C71.3426 62.7378 71.497 62.502 71.497 62.2434V37.7567C71.497 37.4979 71.3425 37.2623 71.0996 37.1498ZM49 28.4221L69.1766 37.7566L63.3279 40.4625C63.2908 40.4355 63.2517 40.4105 63.2088 40.3906L43.1693 31.1197L49 28.4221ZM41.5813 31.8815L61.7286 41.2025L57.6022 43.1115L37.4633 33.7944L41.5813 31.8815ZM62.2 42.4808V49.5376L58.3456 51.3208V44.264L62.2 42.4808ZM70.0908 61.8206L49.7032 71.2526V48.2623L54.5663 46.0124C54.916 45.8506 55.0626 45.4478 54.8937 45.1126C54.7249 44.7776 54.3046 44.6369 53.9548 44.7988L49 47.0912L47.0504 46.1891C46.7006 46.0272 46.2804 46.1679 46.1115 46.503C45.9427 46.8381 46.0893 47.2409 46.439 47.4028L48.2969 48.2623V71.2526L27.9093 61.8204V38.8301L43.4343 46.0127C43.5328 46.0583 43.637 46.0799 43.7395 46.0799C44.0008 46.0799 44.2519 45.9396 44.3731 45.6989C44.542 45.3637 44.3953 44.9609 44.0456 44.7991L28.8235 37.7566L35.8083 34.5251L56.9296 44.2968C56.9327 44.3009 56.9362 44.3046 56.9394 44.3086V52.3945C56.9394 52.6264 57.0638 52.8419 57.2687 52.9652C57.3825 53.0337 57.5124 53.0683 57.6426 53.0683C57.7468 53.0683 57.8514 53.0461 57.9482 53.0013L63.2088 50.5675C63.4518 50.4551 63.6062 50.2194 63.6062 49.9607V41.8303L70.0908 38.8302V61.8206Z" fill="white"/>
<path d="M33.7119 59.207L30.5136 57.7274C30.1638 57.5654 29.7436 57.7061 29.5747 58.0412C29.4059 58.3764 29.5525 58.7792 29.9022 58.941L33.1005 60.4207C33.199 60.4663 33.3032 60.4879 33.4056 60.4879C33.667 60.4879 33.9181 60.3475 34.0393 60.1068C34.2082 59.7716 34.0616 59.3689 33.7119 59.207Z" fill="white"/>
<path d="M36.6553 57.371L30.518 54.5315C30.1682 54.3697 29.7479 54.5102 29.5791 54.8454C29.4103 55.1806 29.557 55.5834 29.9066 55.7452L36.044 58.5847C36.1425 58.6302 36.2467 58.6519 36.3491 58.6519C36.6105 58.6519 36.8616 58.5115 36.9828 58.2708C37.1516 57.9355 37.005 57.5327 36.6553 57.371Z" fill="white"/>
</g>
<defs>
<clipPath id="clip0">
<rect width="48" height="46" fill="white" transform="translate(25 27)"/>
</clipPath>
</defs>
</svg>
