<svg width="22" height="19" viewBox="0 0 22 19" fill="none" xmlns="http://www.w3.org/2000/svg">
<path d="M15.8894 0C14.7522 0 13.7097 0.360341 12.7908 1.07104C11.9098 1.75238 11.3232 2.62021 10.9779 3.25125C10.6326 2.62016 10.046 1.75238 9.165 1.07104C8.24606 0.360341 7.20351 0 6.06637 0C2.89305 0 0.5 2.59561 0.5 6.03763C0.5 9.75621 3.4855 12.3004 8.00515 16.152C8.77265 16.8061 9.6426 17.5475 10.5468 18.3382C10.666 18.4425 10.8191 18.5 10.9779 18.5C11.1367 18.5 11.2898 18.4425 11.4089 18.3382C12.3132 17.5474 13.1831 16.806 13.9511 16.1516C18.4703 12.3004 21.4558 9.75621 21.4558 6.03763C21.4558 2.59561 19.0627 0 15.8894 0Z" fill="#9F5025"/>
</svg>
