<svg width="22" height="20" viewBox="0 0 22 20" fill="none" xmlns="http://www.w3.org/2000/svg">
<path d="M20.3949 2.19126C19.3098 0.960029 17.8044 0.281982 16.1563 0.281982C13.8382 0.281982 12.3706 1.66644 11.5476 2.82788C11.3341 3.12926 11.1525 3.43146 11 3.71583C10.8475 3.43146 10.6659 3.12926 10.4524 2.82788C9.62943 1.66644 8.16183 0.281982 5.84375 0.281982C4.19556 0.281982 2.69023 0.960072 1.6051 2.1913C0.570066 3.36581 0 4.93881 0 6.62052C0 8.45111 0.714699 10.1538 2.2492 11.9787C3.62063 13.6098 5.59363 15.2911 7.87832 17.238C8.72966 17.9634 9.61005 18.7137 10.5473 19.5337L10.5755 19.5584C10.697 19.6648 10.8485 19.7179 11 19.7179C11.1515 19.7179 11.303 19.6648 11.4245 19.5584L11.4527 19.5337C12.39 18.7137 13.2703 17.9635 14.1218 17.2379C16.4064 15.2911 18.3794 13.6099 19.7508 11.9787C21.2853 10.1537 22 8.45111 22 6.62052C22 4.93881 21.4299 3.36581 20.3949 2.19126ZM13.2856 16.2568C12.5517 16.8822 11.7964 17.5258 11 18.2182C10.2036 17.5259 9.44827 16.8822 8.71424 16.2567C4.24295 12.4466 1.28906 9.92941 1.28906 6.62052C1.28906 5.25282 1.74475 3.98249 2.5722 3.04358C3.40914 2.09402 4.57097 1.57104 5.84375 1.57104C7.61101 1.57104 8.75342 2.65979 9.40053 3.57313C9.981 4.39229 10.2839 5.21806 10.3872 5.53504C10.4736 5.80037 10.721 5.97994 11 5.97994C11.279 5.97994 11.5264 5.80037 11.6128 5.53504C11.7161 5.21806 12.019 4.39229 12.5995 3.57309C13.2466 2.65979 14.389 1.57104 16.1563 1.57104C17.429 1.57104 18.5909 2.09402 19.4278 3.04358C20.2553 3.98249 20.7109 5.25282 20.7109 6.62052C20.7109 9.92941 17.7571 12.4466 13.2856 16.2568Z" fill="white"/>
</svg>
