<svg width="28" height="28" viewBox="0 0 28 28" fill="none" xmlns="http://www.w3.org/2000/svg">
<path d="M21.2875 18.5227C20.3727 17.6196 19.2307 17.6196 18.3218 18.5227C17.6284 19.2102 16.9351 19.8978 16.2534 20.5969C16.0669 20.7892 15.9096 20.83 15.6824 20.7018C15.2337 20.4571 14.756 20.259 14.3248 19.991C12.3146 18.7266 10.6308 17.101 9.13919 15.2715C8.39922 14.3625 7.74082 13.3895 7.28052 12.2941C7.1873 12.0727 7.20478 11.9271 7.3854 11.7464C8.07876 11.0764 8.75463 10.3889 9.43634 9.70132C10.3861 8.74577 10.3861 7.62707 9.43051 6.6657C8.88865 6.118 8.34678 5.58196 7.80491 5.03427C7.24556 4.47492 6.69204 3.90974 6.12687 3.35622C5.2121 2.46476 4.0701 2.46476 3.16116 3.36205C2.46198 4.04958 1.79192 4.75459 1.08109 5.43047C0.422689 6.05391 0.0905763 6.81719 0.0206578 7.70865C-0.0900463 9.15945 0.265372 10.5287 0.766454 11.863C1.79192 14.6247 3.35344 17.0777 5.24706 19.3268C7.80491 22.3682 10.858 24.7746 14.4297 26.5109C16.0378 27.2916 17.7042 27.8918 19.5162 27.9908C20.7631 28.0607 21.8469 27.7461 22.715 26.7731C23.3093 26.1088 23.9794 25.5029 24.6086 24.8678C25.5409 23.9239 25.5467 22.7819 24.6203 21.8496C23.5132 20.7368 22.4004 19.6297 21.2875 18.5227Z" fill="white"/>
<path d="M20.1746 13.8787L22.3246 13.5116C21.9867 11.5364 21.0544 9.7477 19.6386 8.32603C18.1411 6.82861 16.2475 5.88471 14.1616 5.59338L13.8586 7.75503C15.4726 7.98226 16.9409 8.71058 18.1004 9.87006C19.1958 10.9654 19.9124 12.3522 20.1746 13.8787Z" fill="white"/>
<path d="M23.5365 4.53305C21.0544 2.05094 17.9139 0.483603 14.4471 0L14.1442 2.16164C17.139 2.58116 19.8542 3.93874 21.9983 6.07708C24.0318 8.11054 25.3661 10.68 25.8497 13.5059L27.9997 13.1388C27.4345 9.86433 25.8905 6.89279 23.5365 4.53305Z" fill="white"/>
</svg>
