<svg width="13" height="12" viewBox="0 0 13 12" fill="none" xmlns="http://www.w3.org/2000/svg">
<path d="M12.6353 4.73277C12.5562 4.48979 12.3407 4.31775 12.0867 4.29477L8.6227 3.98029L7.25369 0.775153C7.15261 0.539675 6.92263 0.387695 6.66664 0.387695C6.41066 0.387695 6.18058 0.539675 6.08015 0.775153L4.71114 3.98029L1.24654 4.29477C0.992566 4.31821 0.777505 4.49024 0.698036 4.73277C0.619025 4.97576 0.691994 5.24227 0.884075 5.41073L3.50262 7.70682L2.73054 11.1073C2.67405 11.3574 2.7711 11.6159 2.97856 11.7659C3.09008 11.8469 3.22109 11.8874 3.35256 11.8874C3.46554 11.8874 3.57861 11.8573 3.67959 11.7969L6.66664 10.0109L9.65314 11.7969C9.87223 11.9278 10.1477 11.9158 10.3547 11.7659C10.5622 11.6159 10.6592 11.3574 10.6027 11.1073L9.83067 7.70682L12.4492 5.41073C12.6412 5.24227 12.7143 4.97631 12.6353 4.73277Z" fill="#C1A790"/>
</svg>
