<svg width="30" height="28" viewBox="0 0 30 28" fill="none" xmlns="http://www.w3.org/2000/svg">
<path d="M0.529889 13.4645L7.44249 16.0445L10.1181 24.6492C10.2893 25.2003 10.9632 25.404 11.4105 25.0383L15.2637 21.8971C15.6676 21.568 16.2429 21.5516 16.665 21.858L23.6148 26.9037C24.0933 27.2515 24.7712 26.9893 24.8912 26.4111L29.9823 1.92201C30.1133 1.29041 29.4927 0.76351 28.8913 0.99611L0.521789 11.9402C-0.178311 12.2102 -0.172212 13.2014 0.529889 13.4645ZM9.68689 14.6711L23.1967 6.35041C23.4395 6.20131 23.6893 6.52961 23.4808 6.72301L12.3313 17.087C11.9394 17.4518 11.6866 17.94 11.615 18.4699L11.2352 21.2845C11.1849 21.6603 10.657 21.6976 10.5533 21.3339L9.09259 16.2014C8.92529 15.616 9.16909 14.9907 9.68689 14.6711Z" fill="white"/>
</svg>
