<svg width="40" height="42" viewBox="0 0 40 42" fill="none" xmlns="http://www.w3.org/2000/svg">
<path d="M39.3372 9.26719L20.2676 0.0611543C20.0985 -0.0203848 19.9016 -0.0203848 19.7326 0.0611543L0.662916 9.26719C0.450291 9.36981 0.315186 9.58515 0.315186 9.82123V32.1788C0.315186 32.4149 0.450291 32.6302 0.662916 32.7328L19.7326 41.9388C19.8171 41.9796 19.9086 42 20.0001 42C20.0915 42 20.183 41.9796 20.2676 41.9388L39.3372 32.7328C39.5498 32.6302 39.6849 32.4149 39.6849 32.1788V9.82131C39.6849 9.58506 39.5498 9.3699 39.3372 9.26719ZM20.0001 1.29843L37.6546 9.82123L32.5369 12.2919C32.5045 12.2672 32.4703 12.2444 32.4327 12.2262L14.8981 3.76142L20.0001 1.29843ZM13.5087 4.45705L31.1375 12.9675L27.5269 14.7105L9.90538 6.20357L13.5087 4.45705ZM31.55 14.1346V20.5778L28.1774 22.206V15.7628L31.55 14.1346ZM38.4545 31.7927L20.6153 40.4045V19.4134L24.8705 17.3592C25.1765 17.2114 25.3048 16.8437 25.157 16.5376C25.0093 16.2317 24.6416 16.1033 24.3355 16.2511L20.0001 18.3441L18.2941 17.5205C17.9881 17.3726 17.6203 17.5011 17.4726 17.8071C17.3249 18.113 17.4532 18.4809 17.7591 18.6286L19.3848 19.4134V40.4045L1.54565 31.7926V10.8014L15.13 17.3594C15.2162 17.4011 15.3074 17.4208 15.397 17.4208C15.6257 17.4208 15.8454 17.2926 15.9515 17.0729C16.0992 16.7669 15.9709 16.3991 15.665 16.2513L2.34554 9.82123L8.45728 6.87073L26.9384 15.7927C26.9411 15.7965 26.9442 15.7998 26.947 15.8035V23.1863C26.947 23.398 27.0558 23.5948 27.2351 23.7074C27.3347 23.7699 27.4483 23.8015 27.5623 23.8015C27.6535 23.8015 27.745 23.7812 27.8297 23.7403L32.4327 21.5182C32.6453 21.4155 32.7805 21.2003 32.7805 20.9641V13.5407L38.4545 10.8015V31.7927Z" fill="#C1A790"/>
</svg>
