<svg width="40" height="40" viewBox="0 0 40 40" fill="none" xmlns="http://www.w3.org/2000/svg">
<path d="M25.8532 3.15378C25.7183 3.05917 25.5499 3.0256 25.3894 3.06161C25.2285 3.09763 25.0906 3.19955 25.0088 3.34238C25.0048 3.3494 25 3.3558 24.9957 3.36221C24.8077 3.63077 24.4363 3.69607 24.1678 3.50839C23.9026 3.32285 23.5373 3.38693 23.3517 3.65213L22.4978 4.87192C22.3123 5.13711 22.3767 5.50241 22.6416 5.68796C22.7441 5.75967 22.8613 5.79416 22.9773 5.79416C23.1619 5.79416 23.3438 5.70688 23.4576 5.54422L24.0329 4.72238C24.573 4.87283 25.1599 4.75686 25.6024 4.40835L26.4666 5.01352C26.7318 5.19906 27.0968 5.13467 27.2827 4.86978C27.4682 4.60458 27.4038 4.23929 27.1386 4.05374L25.8532 3.15378Z" fill="#C1A790"/>
<path d="M32.3331 10.5347L31.7579 11.3562C31.5723 11.6214 31.6367 11.9867 31.9016 12.1723C32.0041 12.244 32.1213 12.2781 32.2373 12.2781C32.4219 12.2781 32.6038 12.1912 32.7176 12.0282L33.5718 10.8087C33.7574 10.5435 33.693 10.1782 33.4281 9.99269C33.1595 9.8047 33.0939 9.4333 33.2822 9.16444C33.2868 9.15803 33.2911 9.15162 33.2962 9.14582C33.4024 9.01979 33.451 8.8553 33.4296 8.69203C33.4086 8.52876 33.3197 8.38166 33.1849 8.28737L31.8995 7.3874C31.6343 7.20186 31.269 7.26625 31.0834 7.53145C30.8976 7.79634 30.9623 8.16194 31.2272 8.34748L32.0914 8.95234C31.915 9.48762 32.0069 10.0784 32.3331 10.5347Z" fill="#C1A790"/>
<path d="M29.2236 23.6985C29.5019 23.6985 29.7604 23.8099 29.9514 24.0126C30.1736 24.2476 30.5444 24.2582 30.7797 24.0361C31.0153 23.8139 31.0256 23.4431 30.8035 23.2078C30.3948 22.7751 29.819 22.5267 29.2236 22.5267C28.0255 22.5267 27.051 23.5014 27.051 24.6995C27.051 25.8973 28.0255 26.8721 29.2236 26.8721C29.804 26.8721 30.3497 26.6462 30.7598 26.2358C30.9887 26.0069 30.9887 25.6358 30.7598 25.4072C30.5313 25.1783 30.1602 25.1783 29.9313 25.4072C29.7424 25.5961 29.4909 25.7002 29.2236 25.7002C28.6718 25.7002 28.2229 25.2513 28.2229 24.6995C28.2229 24.1475 28.6718 23.6985 29.2236 23.6985Z" fill="#C1A790"/>
<path d="M34.4406 20.572V15.879C34.4406 14.2857 33.1442 12.9893 31.5509 12.9893H28.4415C28.6233 11.4182 28.1103 10.0364 27.0282 9.27865C26.1114 8.63687 24.9237 8.52182 23.6835 8.95456C22.5113 9.3638 21.4209 10.2238 20.614 11.3761C20.2566 11.8861 19.9722 12.4268 19.7659 12.9893H15.9512L24.1507 1.27939L35.5286 9.246L33.7952 11.7219C33.6096 11.9871 33.674 12.3524 33.9389 12.5379C34.2041 12.7235 34.5694 12.6591 34.7549 12.3939L36.6446 9.69522C36.9293 9.28964 36.8307 8.72781 36.4246 8.44278L24.5999 0.163358C24.4034 0.0254187 24.1647 -0.0276819 23.9282 0.013822C23.6917 0.0556312 23.4857 0.186552 23.3475 0.38339L20.6354 4.25699V1.92117C20.6354 1.42526 20.2319 1.02182 19.736 1.02182H5.68207C5.18616 1.02182 4.78271 1.42526 4.78271 1.92117V5.12887C4.78271 5.45267 5.04517 5.71481 5.36865 5.71481C5.69244 5.71481 5.95459 5.45267 5.95459 5.12887V2.194H7.65228V12.989H6.09283C6.04675 12.989 6.00067 12.9902 5.95459 12.9923V7.47262C5.95459 7.14914 5.69244 6.88669 5.36865 6.88669C5.04517 6.88669 4.78271 7.14914 4.78271 7.47262V13.3036C3.84613 13.7821 3.20312 14.7569 3.20312 15.879V33.5197C3.20312 35.113 4.49951 36.4094 6.09283 36.4094H10.4678C10.7916 36.4094 11.0538 36.1472 11.0538 35.8235C11.0538 35.5 10.7916 35.2375 10.4678 35.2375H6.09283C5.14557 35.2375 4.375 34.4669 4.375 33.5197V15.879C4.375 15.1283 4.85901 14.4886 5.53101 14.2555C5.54596 14.2512 5.56091 14.2463 5.57526 14.2408C5.73883 14.1889 5.91278 14.1609 6.09314 14.1609H31.5509C32.4982 14.1609 33.269 14.9317 33.269 15.879V20.4908H29.0741C26.7535 20.4908 24.8654 22.3786 24.8654 24.6995C24.8654 27.0201 26.7535 28.9079 29.0741 28.9079H33.269V33.5197C33.269 34.4669 32.4982 35.2375 31.5509 35.2375H27.0737C26.7499 35.2375 26.4877 35.5 26.4877 35.8235C26.4877 36.1472 26.7499 36.4094 27.0737 36.4094H31.5509C33.1442 36.4094 34.4409 35.113 34.4409 33.5197V28.8267C35.7666 28.5121 36.7557 27.3182 36.7557 25.8979V23.5011C36.7554 22.0805 35.7663 20.8866 34.4406 20.572ZM21.5738 12.0487C22.9102 10.1402 25.0555 9.3284 26.3562 10.2387C27.1054 10.7633 27.4353 11.7927 27.2598 12.989H21.0324C21.181 12.6655 21.3617 12.3509 21.5738 12.0487ZM19.4635 5.93057L14.5209 12.9893H11.6336V2.19369H19.4635V5.93057ZM8.82416 2.19369H10.4617V12.989H8.82416V2.19369ZM35.5835 25.8976C35.5835 26.9114 34.7589 27.736 33.7451 27.736H29.0741C27.3996 27.736 26.0373 26.3737 26.0373 24.6992C26.0373 23.025 27.3996 21.6627 29.0741 21.6627H33.7451C34.7589 21.6627 35.5835 22.4873 35.5835 23.5011V25.8976Z" fill="#C1A790"/>
<path d="M18.8218 25.842C14.9186 25.842 11.7429 29.0176 11.7429 32.9211C11.7429 36.8243 14.9186 40 18.8218 40C22.7253 40 25.9009 36.8243 25.9009 32.9211C25.9009 29.0176 22.7253 25.842 18.8218 25.842ZM18.8218 38.8281C15.5646 38.8281 12.9148 36.1783 12.9148 32.9211C12.9148 29.6637 15.5646 27.0139 18.8218 27.0139C22.0792 27.0139 24.7291 29.6637 24.7291 32.9211C24.7291 36.1783 22.0792 38.8281 18.8218 38.8281Z" fill="#C1A790"/>
</svg>
