<svg width="38" height="38" viewBox="0 0 38 38" fill="none" xmlns="http://www.w3.org/2000/svg">
<path d="M23.0078 14.1016C22.5981 14.1016 22.2656 14.4341 22.2656 14.8438C22.2656 15.2534 22.5981 15.5859 23.0078 15.5859C23.4175 15.5859 23.75 15.2534 23.75 14.8438C23.75 14.4341 23.4175 14.1016 23.0078 14.1016Z" fill="#C1A790"/>
<path d="M37.1302 32.9323L27.2235 23.0256C28.8374 20.5946 29.6875 17.7795 29.6875 14.8438C29.6875 6.65891 23.0286 0 14.8438 0C6.65891 0 0 6.65891 0 14.8438C0 23.0286 6.65891 29.6875 14.8438 29.6875C17.7795 29.6875 20.5947 28.8373 23.0256 27.2236L25.7639 29.9619C25.7642 29.9623 25.7646 29.9626 25.765 29.9631L32.9322 37.1302C33.4931 37.6911 34.2385 38 35.0312 38C35.824 38 36.5694 37.6911 37.13 37.1305C37.691 36.5699 38 35.8244 38 35.0312C38 34.2381 37.691 33.4926 37.1302 32.9323ZM22.6765 25.6594C22.6765 25.6595 22.6764 25.6595 22.6764 25.6596C20.3854 27.3236 17.6771 28.2031 14.8438 28.2031C7.47739 28.2031 1.48438 22.2101 1.48438 14.8438C1.48438 7.47739 7.47739 1.48438 14.8438 1.48438C22.2101 1.48438 28.2031 7.47739 28.2031 14.8438C28.2031 17.6771 27.3236 20.3854 25.6595 22.6764C24.827 23.8233 23.8234 24.827 22.6765 25.6594ZM24.2336 26.3323C25.0018 25.7039 25.704 25.0017 26.3323 24.2336L28.438 26.3393C27.7976 27.095 27.095 27.7977 26.3393 28.438L24.2336 26.3323ZM36.0806 36.0806C35.8001 36.3612 35.4274 36.5156 35.0312 36.5156C34.6351 36.5156 34.2624 36.3612 33.9819 36.0806L27.3916 29.4904C28.1432 28.8453 28.8453 28.1433 29.4903 27.3917L36.0808 33.9822C36.3612 34.2623 36.5156 34.6348 36.5156 35.0312C36.5156 35.4277 36.3612 35.8002 36.0806 36.0806Z" fill="#C1A790"/>
<path d="M14.8438 2.96875C8.2958 2.96875 2.96875 8.2958 2.96875 14.8438C2.96875 21.3917 8.2958 26.7188 14.8438 26.7188C21.3917 26.7188 26.7188 21.3917 26.7188 14.8438C26.7188 8.2958 21.3917 2.96875 14.8438 2.96875ZM14.8438 25.2344C9.11436 25.2344 4.45312 20.5731 4.45312 14.8438C4.45312 9.11436 9.11436 4.45312 14.8438 4.45312C20.5731 4.45312 25.2344 9.11436 25.2344 14.8438C25.2344 20.5731 20.5731 25.2344 14.8438 25.2344Z" fill="#C1A790"/>
<path d="M23.1611 11.6578C22.522 9.99437 21.4092 8.57219 19.943 7.54508C18.4418 6.4934 16.6785 5.9375 14.8438 5.9375C14.4339 5.9375 14.1016 6.26985 14.1016 6.67969C14.1016 7.08952 14.4339 7.42188 14.8438 7.42188C17.8941 7.42188 20.6796 9.33805 21.7755 12.1902C21.8889 12.4853 22.1701 12.6664 22.4685 12.6664C22.5569 12.6664 22.647 12.6504 22.7345 12.6168C23.1171 12.4698 23.3081 12.0404 23.1611 11.6578Z" fill="#C1A790"/>
</svg>
