<svg width="46" height="46" viewBox="0 0 46 46" fill="none" xmlns="http://www.w3.org/2000/svg">
<path d="M45.485 10.0358L45.4851 10.0359C45.7404 10.1759 45.8992 10.4444 45.8992 10.7357V16.9794C45.8992 17.4204 45.5418 17.7778 45.1008 17.7778C44.6598 17.7778 44.3023 17.4204 44.3023 16.9794V12.2539V12.0849L44.1542 12.1662L38.9928 15.0001L38.941 15.0286V15.0878V20.6994C38.941 20.9904 38.7829 21.2583 38.5278 21.3986L38.576 21.4862L38.5277 21.3986L34.6887 23.5117L34.737 23.5993L34.6887 23.5117C34.5687 23.5778 34.4362 23.6105 34.3039 23.6105C34.1632 23.6105 34.0229 23.5734 33.8974 23.4995C33.6546 23.356 33.5055 23.0947 33.5055 22.8121V18.1824V18.0134L33.3573 18.0948L28.0388 21.0154L27.9869 21.0438V21.103V38.7275V38.8965L28.135 38.8152L44.2505 29.9661L44.3023 29.9376V29.8784V24.1664C44.3023 23.7254 44.6598 23.368 45.1008 23.368C45.5418 23.368 45.8992 23.7254 45.8992 24.1664V30.4101C45.8992 30.7014 45.7404 30.9696 45.485 31.11L27.5699 40.947L27.5698 40.9471C27.4505 41.0128 27.318 41.0456 27.1857 41.0456C27.0534 41.0456 26.9212 41.0128 26.8014 40.947L26.7533 41.0347L26.8014 40.947L22.9301 38.8213L22.8349 38.769L22.7907 38.8683C22.2071 40.1769 21.3824 41.3811 20.3385 42.4249C18.0626 44.7009 15.0262 45.8988 11.9486 45.8991C10.1846 45.8991 8.4077 45.5059 6.7515 44.6964L6.75144 44.6964C6.35513 44.5031 6.19101 44.025 6.38473 43.6285L6.38474 43.6285C6.5781 43.2324 7.05619 43.0681 7.45224 43.2618L7.45227 43.2618C11.3865 45.1841 16.111 44.3941 19.2092 41.2959C21.1465 39.3586 22.2138 36.7824 22.2138 34.0428C22.2138 31.3031 21.1465 28.727 19.2095 26.7899C17.2721 24.8526 14.696 23.7853 11.9563 23.7853C9.21665 23.7853 6.64054 24.8526 4.70317 26.7899C1.60502 29.8881 0.815035 34.6126 2.73733 38.5468C2.93069 38.9429 2.76662 39.421 2.37022 39.6147L2.37019 39.6147C1.97413 39.8084 1.49604 39.644 1.30269 39.248L1.30268 39.248C-0.919003 34.7012 -0.00619383 29.2409 3.57416 25.6609L3.57417 25.6609C4.94797 24.2868 6.59991 23.2926 8.40233 22.7289L8.47248 22.707V22.6335V10.7357C8.47248 10.4441 8.63125 10.1759 8.88661 10.0359L8.88667 10.0358L19.6632 4.11818L19.6741 4.11217L19.6833 4.10364C19.781 4.01246 19.8992 3.94874 20.0262 3.91526L20.0381 3.91213L20.0489 3.90621L26.8014 0.198474C26.8014 0.198471 26.8014 0.198469 26.8014 0.198467C27.0406 0.0671781 27.3307 0.0671782 27.5699 0.198466C27.5699 0.198469 27.5699 0.198471 27.5699 0.198474L45.485 10.0358ZM27.2338 1.83544L27.1857 1.80901L27.1375 1.83544L22.0751 4.61529L21.9155 4.70294L22.0751 4.7906L38.1235 13.6032L38.1717 13.6296L38.2198 13.6032L43.2822 10.8234L43.4418 10.7357L43.2822 10.6481L27.2338 1.83544ZM27.1375 19.6356L27.1857 19.6621L27.2338 19.6356L32.4822 16.7537L32.6418 16.666L32.4822 16.5783L16.4334 7.76608L16.3853 7.73965L16.3372 7.76609L11.0891 10.6481L10.9295 10.7357L11.0891 10.8234L27.1375 19.6356ZM34.2523 15.7289L34.3004 15.7553L34.3485 15.7289L36.3535 14.628L36.5131 14.5403L36.3535 14.4527L20.3047 5.6404L20.2566 5.61397L20.2084 5.64041L18.2038 6.74132L18.0442 6.82898L18.2038 6.91663L34.2523 15.7289ZM10.0693 22.2208V22.3368L10.1841 22.3197C10.7656 22.233 11.3573 22.1888 11.9563 22.1888C15.1227 22.1888 18.0993 23.4217 20.3385 25.6609C22.5774 27.8998 23.8103 30.8764 23.8103 34.0428C23.8103 35.1134 23.669 36.1624 23.3958 37.168L23.3752 37.244L23.4442 37.2819L26.2423 38.8184L26.3904 38.8997V38.7307V21.1062V21.047L26.3385 21.0185L10.2175 12.1663L10.0693 12.0849V12.2539V22.2208ZM37.2927 20.2561L37.3445 20.2276V20.1684V16.0747V15.9057L37.1964 15.987L35.1542 17.1083L35.1023 17.1368V17.1959V21.2925V21.4617L35.2505 21.3801L37.2927 20.2561Z" fill="#C1A790" stroke="#F7F7F7" stroke-width="0.2"/>
<path d="M44.5367 21.1328L44.5367 21.1327C44.3883 20.9844 44.3027 20.7782 44.3027 20.5686C44.3027 20.3586 44.3883 20.1524 44.5367 20.0041C44.685 19.8558 44.8915 19.7702 45.1012 19.7702C45.3108 19.7702 45.5174 19.8558 45.6657 20.0041C45.814 20.1524 45.8996 20.3586 45.8996 20.5686C45.8996 20.7782 45.814 20.9844 45.6657 21.1327L45.6656 21.1328C45.5174 21.2813 45.3109 21.3667 45.1012 21.3667C44.8914 21.3667 44.685 21.2813 44.5367 21.1328Z" fill="#C1A790" stroke="#F7F7F7" stroke-width="0.2"/>
<path d="M9.50028 33.4782L9.5003 33.4782C9.81219 33.7901 9.81219 34.2957 9.5003 34.6076C9.34472 34.7632 9.14028 34.8412 8.9358 34.8412C8.73139 34.8412 8.52728 34.7632 8.3713 34.6072L8.37129 34.6072L6.21512 32.4514C5.90353 32.1395 5.90353 31.6339 6.21512 31.322L8.37126 29.1658C8.68318 28.8542 9.18878 28.8543 9.5003 29.1658C9.81219 29.4777 9.81219 29.9833 9.5003 30.2952L9.50028 30.2952L8.87805 30.9178L8.70746 31.0885H8.94878H14.2586C16.4821 31.0885 18.2913 32.8974 18.2913 35.1209C18.2913 37.3443 16.4821 39.1532 14.2586 39.1532H11.1124C10.6713 39.1532 10.3139 38.7958 10.3139 38.3552C10.3139 37.9142 10.6714 37.5568 11.1124 37.5568H14.2586C15.6018 37.5568 16.6945 36.4641 16.6945 35.1209C16.6945 33.7777 15.6018 32.685 14.2586 32.685H8.94878H8.70746L8.87805 32.8556L9.50028 33.4782Z" fill="#C1A790" stroke="#F7F7F7" stroke-width="0.2"/>
<path d="M3.52838 42.3745L3.52809 42.3741C3.24431 42.0367 3.28793 41.5334 3.62542 41.2495L3.62546 41.2495C3.96288 40.9654 4.46655 41.009 4.75039 41.3465C5.03399 41.6845 4.99103 42.1888 4.65381 42.4725C4.50359 42.5986 4.32125 42.6603 4.13977 42.6603C3.91257 42.6603 3.68732 42.5636 3.52988 42.3763L3.52838 42.3745L3.52838 42.3745Z" fill="#C1A790" stroke="#F7F7F7" stroke-width="0.2"/>
</svg>
