<svg width="39" height="39" viewBox="0 0 39 39" fill="none" xmlns="http://www.w3.org/2000/svg">
<mask id="path-1-outside-1" maskUnits="userSpaceOnUse" x="-0.162109" y="-1" width="39" height="41" fill="black">
<rect fill="white" x="-0.162109" y="-1" width="39" height="41"/>
<path d="M38.0935 8.82474C38.0214 8.69136 37.8994 8.59204 37.7541 8.54869L35.8535 7.98182L36.195 6.83955C36.2918 6.52062 36.2576 6.18264 36.0988 5.88786C36.0363 5.77192 35.9572 5.66894 35.8655 5.5802L36.4987 3.46338C36.8313 2.3448 36.193 1.16429 35.0768 0.832254C34.5357 0.670312 33.9628 0.729422 33.4639 0.998918C32.9657 1.26811 32.6029 1.71379 32.4426 2.25301L31.8092 4.3699C31.3966 4.44737 31.0371 4.72959 30.8771 5.13764L25.977 0.470437L25.8912 0.3884C25.7887 0.289834 25.6923 0.198428 25.581 0.128654C25.576 0.125227 25.571 0.121875 25.5659 0.1186C25.5638 0.117381 25.5618 0.116086 25.5599 0.114943C25.5159 0.0870645 25.4681 0.0648984 25.417 0.0498164C25.3312 0.0191191 25.2354 0 25.1207 0H1.91968C1.32318 0 0.837891 0.485062 0.837891 1.08126V17.4287C0.837891 17.7443 1.09368 18 1.40918 18C1.72468 18 1.98047 17.7443 1.98047 17.4287V1.14258H24.683L24.6792 4.44158C24.6792 5.88976 25.8573 7.06791 27.3054 7.06791H30.2945L27.9456 14.9227C27.8552 15.2249 28.027 15.5433 28.3293 15.6337C28.6317 15.7244 28.9499 15.5523 29.0403 15.25L31.6023 6.68294C31.6071 6.66892 31.6113 6.65476 31.6151 6.64028L31.937 5.56382C31.9527 5.51073 32.0152 5.47866 32.0695 5.49466L35.0317 6.37879C35.0649 6.38861 35.0833 6.41192 35.0928 6.42967C35.1024 6.44734 35.1116 6.4753 35.101 6.51018L34.596 8.19884C34.5957 8.20013 34.5951 8.20135 34.5947 8.20264C34.5943 8.20394 34.5941 8.20523 34.5938 8.20645L28.3643 29.0398L27.3305 28.7314L25.2001 28.0958L28.2852 17.7805C28.3756 17.4782 28.2039 17.1598 27.9015 17.0694C27.5994 16.9789 27.281 17.1508 27.1905 17.453L23.9416 28.3161C23.9406 28.3194 23.9401 28.3228 23.9391 28.3263C23.9372 28.333 23.9357 28.3399 23.934 28.3468C23.9306 28.3612 23.9276 28.3756 23.9254 28.3901C23.9242 28.3973 23.9231 28.4045 23.9222 28.4118C23.9203 28.4276 23.9192 28.4435 23.9187 28.4594C23.9184 28.4651 23.918 28.4707 23.9179 28.4764C23.9177 28.4981 23.9187 28.5197 23.9211 28.5414C23.9212 28.5421 23.9211 28.5427 23.9212 28.5434L24.2371 31.3619L24.463 33.3572C24.2465 33.2153 24.0839 32.9682 23.8886 32.6496C23.6489 32.2584 23.3203 31.7228 22.6913 31.8409C22.1629 31.9428 21.9144 32.3844 21.6741 32.8113C21.5494 33.0328 21.4204 33.262 21.2408 33.49C21.1079 33.659 21.0183 33.707 20.9895 33.7086C20.9665 33.7105 20.8336 33.6978 20.4592 33.3253C19.4794 32.3531 18.7173 33.0163 18.351 33.3349C18.2143 33.4539 18.0593 33.5887 17.9574 33.607C17.8611 33.6233 17.6856 33.5252 17.486 33.3421C17.2534 33.1288 16.8921 33.1444 16.6788 33.3771C16.4656 33.6097 16.4812 33.9711 16.7138 34.1843C17.8831 35.2566 18.7057 34.5409 19.101 34.1968C19.1976 34.1128 19.3592 33.9722 19.4146 33.9618C19.4154 33.9619 19.4928 33.976 19.6539 34.1357C20.0117 34.4919 20.4477 34.8514 20.9854 34.8514C21.0097 34.8514 21.0342 34.8506 21.0589 34.8492C21.4538 34.8252 21.8172 34.6056 22.1387 34.1969C22.3729 33.8997 22.5377 33.607 22.67 33.3717C22.7175 33.2876 22.7741 33.1868 22.826 33.104C22.8566 33.1521 22.8875 33.2025 22.9148 33.2469C23.2356 33.77 23.8282 34.7349 25.1456 34.6248C25.1479 34.6248 25.1504 34.6254 25.1526 34.6254C25.2375 34.6254 25.3129 34.6057 25.3791 34.5762C25.3888 34.5721 25.3981 34.5674 25.4076 34.5628C25.4095 34.5618 25.4115 34.5609 25.4134 34.5599C25.4412 34.5458 25.4676 34.5297 25.4924 34.5115C25.5733 34.4548 25.6338 34.3893 25.6731 34.3467C25.6797 34.3396 25.686 34.3323 25.6922 34.3249L29.1876 30.1155C29.1928 30.1092 29.197 30.1023 29.2019 30.0959C29.2082 30.0877 29.2143 30.0795 29.2201 30.071C29.2322 30.0532 29.243 30.035 29.2529 30.0161C29.2559 30.0104 29.2594 30.0052 29.2622 29.9994C29.2745 29.9739 29.2845 29.9477 29.2929 29.9208C29.2936 29.9185 29.2948 29.9165 29.2955 29.9141L30.9023 24.5403V37.8574H1.98047V20.0695C1.98047 19.7539 1.72468 19.4982 1.40918 19.4982C1.09368 19.4982 0.837891 19.7539 0.837891 20.0695V37.9166C0.837891 38.5139 1.32318 39 1.91968 39H30.9611C31.5588 39 32.045 38.5139 32.045 37.9165V20.719L35.5263 9.07649L36.8798 9.4802L34.5582 17.2435C34.4678 17.5457 34.6395 17.8641 34.9419 17.9545C34.9965 17.9708 35.0516 17.9785 35.1058 17.9785C35.3517 17.9785 35.5788 17.8184 35.6529 17.5707L38.1383 9.25976C38.1816 9.11457 38.1655 8.95812 38.0935 8.82474ZM33.5376 2.57956C33.6111 2.33238 33.7778 2.12801 34.0072 2.00416C34.2372 1.87977 34.5007 1.85242 34.7501 1.927C35.2635 2.0798 35.5567 2.6229 35.4039 3.13676L34.8105 5.12027L32.9442 4.56323L33.5376 2.57956ZM25.8218 4.44219L25.8246 1.90277L30.0475 5.92526H27.3053C26.4873 5.92526 25.8218 5.25967 25.8218 4.44219ZM25.5408 32.7186L25.153 29.2741L27.7561 30.0506L25.5408 32.7186Z"/>
</mask>
<path d="M38.0935 8.82474C38.0214 8.69136 37.8994 8.59204 37.7541 8.54869L35.8535 7.98182L36.195 6.83955C36.2918 6.52062 36.2576 6.18264 36.0988 5.88786C36.0363 5.77192 35.9572 5.66894 35.8655 5.5802L36.4987 3.46338C36.8313 2.3448 36.193 1.16429 35.0768 0.832254C34.5357 0.670312 33.9628 0.729422 33.4639 0.998918C32.9657 1.26811 32.6029 1.71379 32.4426 2.25301L31.8092 4.3699C31.3966 4.44737 31.0371 4.72959 30.8771 5.13764L25.977 0.470437L25.8912 0.3884C25.7887 0.289834 25.6923 0.198428 25.581 0.128654C25.576 0.125227 25.571 0.121875 25.5659 0.1186C25.5638 0.117381 25.5618 0.116086 25.5599 0.114943C25.5159 0.0870645 25.4681 0.0648984 25.417 0.0498164C25.3312 0.0191191 25.2354 0 25.1207 0H1.91968C1.32318 0 0.837891 0.485062 0.837891 1.08126V17.4287C0.837891 17.7443 1.09368 18 1.40918 18C1.72468 18 1.98047 17.7443 1.98047 17.4287V1.14258H24.683L24.6792 4.44158C24.6792 5.88976 25.8573 7.06791 27.3054 7.06791H30.2945L27.9456 14.9227C27.8552 15.2249 28.027 15.5433 28.3293 15.6337C28.6317 15.7244 28.9499 15.5523 29.0403 15.25L31.6023 6.68294C31.6071 6.66892 31.6113 6.65476 31.6151 6.64028L31.937 5.56382C31.9527 5.51073 32.0152 5.47866 32.0695 5.49466L35.0317 6.37879C35.0649 6.38861 35.0833 6.41192 35.0928 6.42967C35.1024 6.44734 35.1116 6.4753 35.101 6.51018L34.596 8.19884C34.5957 8.20013 34.5951 8.20135 34.5947 8.20264C34.5943 8.20394 34.5941 8.20523 34.5938 8.20645L28.3643 29.0398L27.3305 28.7314L25.2001 28.0958L28.2852 17.7805C28.3756 17.4782 28.2039 17.1598 27.9015 17.0694C27.5994 16.9789 27.281 17.1508 27.1905 17.453L23.9416 28.3161C23.9406 28.3194 23.9401 28.3228 23.9391 28.3263C23.9372 28.333 23.9357 28.3399 23.934 28.3468C23.9306 28.3612 23.9276 28.3756 23.9254 28.3901C23.9242 28.3973 23.9231 28.4045 23.9222 28.4118C23.9203 28.4276 23.9192 28.4435 23.9187 28.4594C23.9184 28.4651 23.918 28.4707 23.9179 28.4764C23.9177 28.4981 23.9187 28.5197 23.9211 28.5414C23.9212 28.5421 23.9211 28.5427 23.9212 28.5434L24.2371 31.3619L24.463 33.3572C24.2465 33.2153 24.0839 32.9682 23.8886 32.6496C23.6489 32.2584 23.3203 31.7228 22.6913 31.8409C22.1629 31.9428 21.9144 32.3844 21.6741 32.8113C21.5494 33.0328 21.4204 33.262 21.2408 33.49C21.1079 33.659 21.0183 33.707 20.9895 33.7086C20.9665 33.7105 20.8336 33.6978 20.4592 33.3253C19.4794 32.3531 18.7173 33.0163 18.351 33.3349C18.2143 33.4539 18.0593 33.5887 17.9574 33.607C17.8611 33.6233 17.6856 33.5252 17.486 33.3421C17.2534 33.1288 16.8921 33.1444 16.6788 33.3771C16.4656 33.6097 16.4812 33.9711 16.7138 34.1843C17.8831 35.2566 18.7057 34.5409 19.101 34.1968C19.1976 34.1128 19.3592 33.9722 19.4146 33.9618C19.4154 33.9619 19.4928 33.976 19.6539 34.1357C20.0117 34.4919 20.4477 34.8514 20.9854 34.8514C21.0097 34.8514 21.0342 34.8506 21.0589 34.8492C21.4538 34.8252 21.8172 34.6056 22.1387 34.1969C22.3729 33.8997 22.5377 33.607 22.67 33.3717C22.7175 33.2876 22.7741 33.1868 22.826 33.104C22.8566 33.1521 22.8875 33.2025 22.9148 33.2469C23.2356 33.77 23.8282 34.7349 25.1456 34.6248C25.1479 34.6248 25.1504 34.6254 25.1526 34.6254C25.2375 34.6254 25.3129 34.6057 25.3791 34.5762C25.3888 34.5721 25.3981 34.5674 25.4076 34.5628C25.4095 34.5618 25.4115 34.5609 25.4134 34.5599C25.4412 34.5458 25.4676 34.5297 25.4924 34.5115C25.5733 34.4548 25.6338 34.3893 25.6731 34.3467C25.6797 34.3396 25.686 34.3323 25.6922 34.3249L29.1876 30.1155C29.1928 30.1092 29.197 30.1023 29.2019 30.0959C29.2082 30.0877 29.2143 30.0795 29.2201 30.071C29.2322 30.0532 29.243 30.035 29.2529 30.0161C29.2559 30.0104 29.2594 30.0052 29.2622 29.9994C29.2745 29.9739 29.2845 29.9477 29.2929 29.9208C29.2936 29.9185 29.2948 29.9165 29.2955 29.9141L30.9023 24.5403V37.8574H1.98047V20.0695C1.98047 19.7539 1.72468 19.4982 1.40918 19.4982C1.09368 19.4982 0.837891 19.7539 0.837891 20.0695V37.9166C0.837891 38.5139 1.32318 39 1.91968 39H30.9611C31.5588 39 32.045 38.5139 32.045 37.9165V20.719L35.5263 9.07649L36.8798 9.4802L34.5582 17.2435C34.4678 17.5457 34.6395 17.8641 34.9419 17.9545C34.9965 17.9708 35.0516 17.9785 35.1058 17.9785C35.3517 17.9785 35.5788 17.8184 35.6529 17.5707L38.1383 9.25976C38.1816 9.11457 38.1655 8.95812 38.0935 8.82474ZM33.5376 2.57956C33.6111 2.33238 33.7778 2.12801 34.0072 2.00416C34.2372 1.87977 34.5007 1.85242 34.7501 1.927C35.2635 2.0798 35.5567 2.6229 35.4039 3.13676L34.8105 5.12027L32.9442 4.56323L33.5376 2.57956ZM25.8218 4.44219L25.8246 1.90277L30.0475 5.92526H27.3053C26.4873 5.92526 25.8218 5.25967 25.8218 4.44219ZM25.5408 32.7186L25.153 29.2741L27.7561 30.0506L25.5408 32.7186Z" fill="#C1A790"/>
<path d="M38.0935 8.82474C38.0214 8.69136 37.8994 8.59204 37.7541 8.54869L35.8535 7.98182L36.195 6.83955C36.2918 6.52062 36.2576 6.18264 36.0988 5.88786C36.0363 5.77192 35.9572 5.66894 35.8655 5.5802L36.4987 3.46338C36.8313 2.3448 36.193 1.16429 35.0768 0.832254C34.5357 0.670312 33.9628 0.729422 33.4639 0.998918C32.9657 1.26811 32.6029 1.71379 32.4426 2.25301L31.8092 4.3699C31.3966 4.44737 31.0371 4.72959 30.8771 5.13764L25.977 0.470437L25.8912 0.3884C25.7887 0.289834 25.6923 0.198428 25.581 0.128654C25.576 0.125227 25.571 0.121875 25.5659 0.1186C25.5638 0.117381 25.5618 0.116086 25.5599 0.114943C25.5159 0.0870645 25.4681 0.0648984 25.417 0.0498164C25.3312 0.0191191 25.2354 0 25.1207 0H1.91968C1.32318 0 0.837891 0.485062 0.837891 1.08126V17.4287C0.837891 17.7443 1.09368 18 1.40918 18C1.72468 18 1.98047 17.7443 1.98047 17.4287V1.14258H24.683L24.6792 4.44158C24.6792 5.88976 25.8573 7.06791 27.3054 7.06791H30.2945L27.9456 14.9227C27.8552 15.2249 28.027 15.5433 28.3293 15.6337C28.6317 15.7244 28.9499 15.5523 29.0403 15.25L31.6023 6.68294C31.6071 6.66892 31.6113 6.65476 31.6151 6.64028L31.937 5.56382C31.9527 5.51073 32.0152 5.47866 32.0695 5.49466L35.0317 6.37879C35.0649 6.38861 35.0833 6.41192 35.0928 6.42967C35.1024 6.44734 35.1116 6.4753 35.101 6.51018L34.596 8.19884C34.5957 8.20013 34.5951 8.20135 34.5947 8.20264C34.5943 8.20394 34.5941 8.20523 34.5938 8.20645L28.3643 29.0398L27.3305 28.7314L25.2001 28.0958L28.2852 17.7805C28.3756 17.4782 28.2039 17.1598 27.9015 17.0694C27.5994 16.9789 27.281 17.1508 27.1905 17.453L23.9416 28.3161C23.9406 28.3194 23.9401 28.3228 23.9391 28.3263C23.9372 28.333 23.9357 28.3399 23.934 28.3468C23.9306 28.3612 23.9276 28.3756 23.9254 28.3901C23.9242 28.3973 23.9231 28.4045 23.9222 28.4118C23.9203 28.4276 23.9192 28.4435 23.9187 28.4594C23.9184 28.4651 23.918 28.4707 23.9179 28.4764C23.9177 28.4981 23.9187 28.5197 23.9211 28.5414C23.9212 28.5421 23.9211 28.5427 23.9212 28.5434L24.2371 31.3619L24.463 33.3572C24.2465 33.2153 24.0839 32.9682 23.8886 32.6496C23.6489 32.2584 23.3203 31.7228 22.6913 31.8409C22.1629 31.9428 21.9144 32.3844 21.6741 32.8113C21.5494 33.0328 21.4204 33.262 21.2408 33.49C21.1079 33.659 21.0183 33.707 20.9895 33.7086C20.9665 33.7105 20.8336 33.6978 20.4592 33.3253C19.4794 32.3531 18.7173 33.0163 18.351 33.3349C18.2143 33.4539 18.0593 33.5887 17.9574 33.607C17.8611 33.6233 17.6856 33.5252 17.486 33.3421C17.2534 33.1288 16.8921 33.1444 16.6788 33.3771C16.4656 33.6097 16.4812 33.9711 16.7138 34.1843C17.8831 35.2566 18.7057 34.5409 19.101 34.1968C19.1976 34.1128 19.3592 33.9722 19.4146 33.9618C19.4154 33.9619 19.4928 33.976 19.6539 34.1357C20.0117 34.4919 20.4477 34.8514 20.9854 34.8514C21.0097 34.8514 21.0342 34.8506 21.0589 34.8492C21.4538 34.8252 21.8172 34.6056 22.1387 34.1969C22.3729 33.8997 22.5377 33.607 22.67 33.3717C22.7175 33.2876 22.7741 33.1868 22.826 33.104C22.8566 33.1521 22.8875 33.2025 22.9148 33.2469C23.2356 33.77 23.8282 34.7349 25.1456 34.6248C25.1479 34.6248 25.1504 34.6254 25.1526 34.6254C25.2375 34.6254 25.3129 34.6057 25.3791 34.5762C25.3888 34.5721 25.3981 34.5674 25.4076 34.5628C25.4095 34.5618 25.4115 34.5609 25.4134 34.5599C25.4412 34.5458 25.4676 34.5297 25.4924 34.5115C25.5733 34.4548 25.6338 34.3893 25.6731 34.3467C25.6797 34.3396 25.686 34.3323 25.6922 34.3249L29.1876 30.1155C29.1928 30.1092 29.197 30.1023 29.2019 30.0959C29.2082 30.0877 29.2143 30.0795 29.2201 30.071C29.2322 30.0532 29.243 30.035 29.2529 30.0161C29.2559 30.0104 29.2594 30.0052 29.2622 29.9994C29.2745 29.9739 29.2845 29.9477 29.2929 29.9208C29.2936 29.9185 29.2948 29.9165 29.2955 29.9141L30.9023 24.5403V37.8574H1.98047V20.0695C1.98047 19.7539 1.72468 19.4982 1.40918 19.4982C1.09368 19.4982 0.837891 19.7539 0.837891 20.0695V37.9166C0.837891 38.5139 1.32318 39 1.91968 39H30.9611C31.5588 39 32.045 38.5139 32.045 37.9165V20.719L35.5263 9.07649L36.8798 9.4802L34.5582 17.2435C34.4678 17.5457 34.6395 17.8641 34.9419 17.9545C34.9965 17.9708 35.0516 17.9785 35.1058 17.9785C35.3517 17.9785 35.5788 17.8184 35.6529 17.5707L38.1383 9.25976C38.1816 9.11457 38.1655 8.95812 38.0935 8.82474ZM33.5376 2.57956C33.6111 2.33238 33.7778 2.12801 34.0072 2.00416C34.2372 1.87977 34.5007 1.85242 34.7501 1.927C35.2635 2.0798 35.5567 2.6229 35.4039 3.13676L34.8105 5.12027L32.9442 4.56323L33.5376 2.57956ZM25.8218 4.44219L25.8246 1.90277L30.0475 5.92526H27.3053C26.4873 5.92526 25.8218 5.25967 25.8218 4.44219ZM25.5408 32.7186L25.153 29.2741L27.7561 30.0506L25.5408 32.7186Z" stroke="#C1A790" stroke-width="0.4" mask="url(#path-1-outside-1)"/>
<path d="M7.96903 15.4213C7.96903 15.7921 8.2696 16.0926 8.64032 16.0926H24.1517C24.5225 16.0926 24.823 15.7921 24.823 15.4213C24.823 15.0504 24.5225 14.75 24.1517 14.75H8.64032C8.26959 14.75 7.96903 15.0505 7.96903 15.4213Z" fill="#C1A790" stroke="#C1A790" stroke-width="0.2"/>
<path d="M8.64032 20.5332H23.2064C23.5772 20.5332 23.8777 20.2328 23.8777 19.8619C23.8777 19.4911 23.5772 19.1906 23.2064 19.1906H8.64032C8.2696 19.1906 7.96903 19.4911 7.96903 19.8619C7.96903 20.2328 8.2696 20.5332 8.64032 20.5332Z" fill="#C1A790" stroke="#C1A790" stroke-width="0.2"/>
<path d="M8.64032 24.974H22.0795C22.4502 24.974 22.7508 24.6736 22.7508 24.3027C22.7508 23.9319 22.4502 23.6314 22.0795 23.6314H8.64032C8.2696 23.6314 7.96903 23.9319 7.96903 24.3027C7.96903 24.6736 8.2696 24.974 8.64032 24.974Z" fill="#C1A790" stroke="#C1A790" stroke-width="0.2"/>
<path d="M8.64032 29.4147H17.8442C18.2149 29.4147 18.5155 29.1142 18.5155 28.7434C18.5155 28.3726 18.2149 28.0721 17.8442 28.0721H8.64032C8.2696 28.0721 7.96903 28.3726 7.96903 28.7434C7.96903 29.1142 8.2696 29.4147 8.64032 29.4147Z" fill="#C1A790" stroke="#C1A790" stroke-width="0.2"/>
<path d="M22.2347 11.7014V11.7015H22.3347C22.9195 11.7015 23.3953 11.226 23.3953 10.6413V8.33779C23.3953 7.75304 22.9195 7.27756 22.3347 7.27756H9.76296C9.17806 7.27756 8.70235 7.75305 8.70235 8.33779V10.6412C8.70235 11.226 9.17806 11.7014 9.76296 11.7014H22.2347ZM10.0449 8.62007H22.0528V10.3589H10.0449V8.62007Z" fill="#C1A790" stroke="#C1A790" stroke-width="0.2"/>
</svg>
