<svg width="41" height="41" viewBox="0 0 41 41" fill="none" xmlns="http://www.w3.org/2000/svg">
<path d="M20.5 12.1719C15.908 12.1719 12.1719 15.908 12.1719 20.5H13.4531C13.4531 16.6146 16.6146 13.4531 20.5 13.4531V12.1719Z" fill="#C1A790"/>
<path d="M27.5469 20.5C27.5469 24.3854 24.3854 27.5469 20.5 27.5469V28.8281C25.092 28.8281 28.8281 25.092 28.8281 20.5H27.5469Z" fill="#C1A790"/>
<path d="M13.8375 5.23004C11.8291 6.10706 10.036 7.35564 8.50815 8.94054L9.43001 9.83037C10.8413 8.36718 12.4967 7.21406 14.3506 6.40367L13.8375 5.23004Z" fill="#C1A790"/>
<path d="M16.5031 4.32678C16.0521 4.43761 15.6037 4.5683 15.1694 4.715L15.5806 5.92899C15.9804 5.79381 16.3942 5.67338 16.8094 5.57024L16.5031 4.32678Z" fill="#C1A790"/>
<path d="M19.1688 3.8963C18.7312 3.9309 18.2828 3.98471 17.8363 4.05582L18.0387 5.32105C18.4513 5.25443 18.8651 5.2051 19.2687 5.17435L19.1688 3.8963Z" fill="#C1A790"/>
<path d="M20.5 1.92188C25.4629 1.92188 30.128 3.85464 33.6367 7.36334C33.8769 7.60358 34.3023 7.60358 34.5425 7.36334L35.875 6.03084V10.8906H31.0152L32.2779 9.62795C32.5284 9.37747 32.5284 8.97259 32.2779 8.72211C29.1318 5.576 24.9491 3.84375 20.5 3.84375V5.125C24.3924 5.125 28.0645 6.56192 30.9095 9.18464L29.0158 11.0783C28.8326 11.2615 28.7775 11.537 28.8768 11.7766C28.9761 12.0162 29.2099 12.1719 29.4688 12.1719H36.5156C36.8693 12.1719 37.1562 11.8855 37.1562 11.5312V4.48438C37.1562 4.22556 36.9999 3.99109 36.761 3.89244C36.5201 3.79186 36.2459 3.84759 36.0627 4.03145L34.0825 6.01162C30.3893 2.54328 25.591 0.640625 20.5 0.640625C9.5498 0.640625 0.640625 9.54916 0.640625 20.5H1.92188C1.92188 10.2564 10.2558 1.92188 20.5 1.92188Z" fill="#C1A790"/>
<path d="M32.4925 32.0594L31.5706 31.1696C30.1593 32.6328 28.504 33.7859 26.65 34.5963L27.1631 35.7699C29.1715 34.8929 30.964 33.6444 32.4925 32.0594Z" fill="#C1A790"/>
<path d="M24.4969 36.6732C24.9479 36.5624 25.3963 36.4317 25.8306 36.285L25.4194 35.071C25.0196 35.2062 24.6058 35.3266 24.1906 35.4297L24.4969 36.6732Z" fill="#C1A790"/>
<path d="M21.8312 37.1037C22.2688 37.0691 22.7172 37.0153 23.1637 36.9442L22.9613 35.679C22.5487 35.7456 22.1349 35.7949 21.7313 35.8257L21.8312 37.1037Z" fill="#C1A790"/>
<path d="M39.0781 20.5C39.0781 30.7436 30.7442 39.0781 20.5 39.0781C15.5371 39.0781 10.872 37.1454 7.36334 33.6367C7.12311 33.3964 6.69773 33.3964 6.4575 33.6367L5.125 34.9692V30.1094H9.98478L8.72211 31.372C8.47162 31.6225 8.47162 32.0274 8.72211 32.2779C11.8682 35.424 16.0509 37.1562 20.5 37.1562V35.875C16.6076 35.875 12.9355 34.4381 10.0905 31.8154L11.9842 29.9217C12.1674 29.7385 12.2225 29.463 12.1232 29.2234C12.0239 28.9838 11.7901 28.8281 11.5312 28.8281H4.48438C4.13075 28.8281 3.84375 29.1145 3.84375 29.4688V36.5156C3.84375 36.7744 4.00006 37.0089 4.23902 37.1076C4.47861 37.2075 4.75408 37.1518 4.9373 36.9685L6.91747 34.9884C10.6107 38.4567 15.409 40.3594 20.5 40.3594C31.4502 40.3594 40.3594 31.4508 40.3594 20.5H39.0781Z" fill="#C1A790"/>
<path d="M31.3906 20.5C31.3906 14.4948 26.5052 9.60938 20.5 9.60938C14.4948 9.60938 9.60938 14.4948 9.60938 20.5C9.60938 26.5052 14.4948 31.3906 20.5 31.3906C26.5052 31.3906 31.3906 26.5052 31.3906 20.5ZM20.5 30.1094C15.2014 30.1094 10.8906 25.7986 10.8906 20.5C10.8906 15.2014 15.2014 10.8906 20.5 10.8906C25.7986 10.8906 30.1094 15.2014 30.1094 20.5C30.1094 25.7986 25.7986 30.1094 20.5 30.1094Z" fill="#C1A790"/>
</svg>
