<svg width="19" height="27" viewBox="0 0 19 27" fill="none" xmlns="http://www.w3.org/2000/svg">
<path d="M3.50022 8.17441H3.50024H16.2689H16.2689C17.2326 8.17456 18.0299 8.9195 18.0819 9.873L18.8664 24.2078V24.2078L18.7666 24.2133L3.50022 8.17441ZM3.50022 8.17441C2.5365 8.17456 1.73926 8.9195 1.68718 9.87299C1.68718 9.87299 1.68718 9.873 1.68718 9.873M3.50022 8.17441L1.68718 9.873M1.68718 9.873L0.902685 24.2078L1.68718 9.873ZM3.50052 9.25722H3.50093H16.2688C16.6523 9.25792 16.967 9.55355 16.9887 9.92916C16.9887 9.92918 16.9887 9.9292 16.9887 9.92922L17.7732 24.2658L17.7732 24.2658C17.784 24.4606 17.7132 24.6515 17.5771 24.7936C17.4409 24.9357 17.2513 25.0165 17.0527 25.0165H2.71506C2.51642 25.0165 2.32681 24.9357 2.19064 24.7936C2.05451 24.6515 1.98374 24.4606 1.99452 24.2658L1.99452 24.2657L2.77624 9.92922C2.77624 9.92916 2.77625 9.92911 2.77625 9.92905C2.79815 9.55186 3.11535 9.25564 3.50052 9.25722Z" fill="black" stroke="black" stroke-width="0.2"/>
<path d="M14.0098 11.9418L14.0093 11.9418C13.8645 11.942 13.7253 11.8853 13.6225 11.7837C13.5197 11.6822 13.4619 11.5441 13.462 11.4C13.462 11.4 13.462 11.3999 13.462 11.3999M14.0098 11.9418L14.4528 6.30227C14.4528 3.37845 12.4008 1 9.88035 1C7.35988 1 5.30859 3.37845 5.30859 6.30227V11.4C5.30859 11.6447 5.50939 11.8431 5.75708 11.8431C6.00477 11.8431 6.20556 11.6447 6.20556 11.4V6.30227C6.20556 3.86519 7.85528 1.8828 9.8838 1.8828C11.9123 1.8828 13.562 3.86519 13.562 6.30227V11.4L13.462 11.3999M14.0098 11.9418C14.3094 11.9399 14.5532 11.6989 14.5528 11.4M14.0098 11.9418L14.5528 11.4M13.462 11.3999L13.462 6.30227C13.462 3.90244 11.8407 1.9828 9.8838 1.9828C7.92692 1.9828 6.30556 3.90244 6.30556 6.30227V11.4C6.30556 11.7011 6.05885 11.9431 5.75708 11.9431C5.4553 11.9431 5.20859 11.7011 5.20859 11.4V6.30227C5.20859 3.33764 7.29126 0.9 9.88035 0.9C12.4694 0.9 14.5528 3.33762 14.5528 6.30227L14.5528 11.3999M13.462 11.3999L14.5528 11.3999M14.5528 11.3999L14.5528 11.4M14.5528 11.3999L14.5528 11.4" fill="black" stroke="black" stroke-width="0.2"/>
</svg>
