<svg width="17" height="17" viewBox="0 0 17 17" fill="none" xmlns="http://www.w3.org/2000/svg">
<g clip-path="url(#clip0)">
<path d="M0.878806 17C0.654874 17 0.430942 16.9149 0.260805 16.7434C-0.0807501 16.4019 -0.0807501 15.8481 0.260805 15.5066L15.5112 0.256166C15.8528 -0.0853887 16.4065 -0.0853887 16.7481 0.256166C17.0896 0.597721 17.0896 1.15147 16.7481 1.49324L1.49787 16.7434C1.32646 16.9138 1.10252 17 0.878806 17Z" fill="black"/>
<path d="M16.1303 17C15.9064 17 15.6827 16.9149 15.5123 16.7434L0.260805 1.49324C-0.0807501 1.15147 -0.0807501 0.597721 0.260805 0.256166C0.60236 -0.0853887 1.15611 -0.0853887 1.49787 0.256166L16.7481 15.5066C17.0896 15.8481 17.0896 16.4019 16.7481 16.7434C16.5767 16.9138 16.353 17 16.1303 17Z" fill="black"/>
</g>
<defs>
<clipPath id="clip0">
<rect width="17" height="17" fill="white"/>
</clipPath>
</defs>
</svg>
