<svg width="21" height="19" viewBox="0 0 21 19" fill="none" xmlns="http://www.w3.org/2000/svg">
<path d="M19.4678 2.04612C18.4321 0.870859 16.9952 0.223633 15.4219 0.223633C13.2092 0.223633 11.8083 1.54516 11.0227 2.65381C10.8189 2.94149 10.6456 3.22995 10.5 3.5014C10.3544 3.22995 10.1811 2.94149 9.97726 2.65381C9.19172 1.54516 7.79084 0.223633 5.57812 0.223633C4.00485 0.223633 2.56795 0.870901 1.53214 2.04616C0.544154 3.16728 0 4.66878 0 6.27405C0 8.02144 0.682213 9.64668 2.14696 11.3887C3.45606 12.9457 5.33937 14.5505 7.52022 16.4089C8.33286 17.1014 9.17323 17.8175 10.0679 18.6003L10.0948 18.6239C10.2108 18.7254 10.3554 18.7761 10.5 18.7761C10.6446 18.7761 10.7892 18.7254 10.9052 18.6239L10.9321 18.6003C11.8268 17.8175 12.6671 17.1014 13.4799 16.4088C15.6606 14.5506 17.5439 12.9457 18.853 11.3887C20.3178 9.64664 21 8.02144 21 6.27405C21 4.66878 20.4558 3.16728 19.4678 2.04612ZM12.6817 15.4723C11.9812 16.0693 11.2602 16.6837 10.5 17.3445C9.73982 16.6837 9.0188 16.0693 8.31813 15.4723C4.05009 11.8353 1.23047 9.43254 1.23047 6.27405C1.23047 4.96852 1.66544 3.75594 2.45528 2.85971C3.25418 1.9533 4.3632 1.4541 5.57812 1.4541C7.26506 1.4541 8.35554 2.49336 8.97323 3.36518C9.52731 4.1471 9.81643 4.93534 9.91504 5.23792C9.99752 5.49119 10.2336 5.66259 10.5 5.66259C10.7664 5.66259 11.0025 5.49119 11.085 5.23792C11.1836 4.93534 11.4727 4.1471 12.0268 3.36514C12.6445 2.49336 13.7349 1.4541 15.4219 1.4541C16.6368 1.4541 17.7458 1.9533 18.5447 2.85971C19.3346 3.75594 19.7695 4.96852 19.7695 6.27405C19.7695 9.43254 16.9499 11.8353 12.6817 15.4723Z" fill="black"/>
</svg>
