<svg width="22" height="19" viewBox="0 0 22 19" fill="none" xmlns="http://www.w3.org/2000/svg">
<path d="M15.4726 0C14.3293 0 13.2811 0.362288 12.3572 1.07682C11.4714 1.76186 10.8817 2.63437 10.5345 3.26883C10.1873 2.63433 9.5976 1.76186 8.71184 1.07682C7.78793 0.362288 6.73974 0 5.59646 0C2.40598 0 0 2.60964 0 6.07027C0 9.80895 3.00164 12.3669 7.54572 16.2393C8.31737 16.8969 9.19202 17.6423 10.1011 18.4373C10.2209 18.5422 10.3748 18.6 10.5345 18.6C10.6942 18.6 10.8481 18.5422 10.9679 18.4373C11.8771 17.6422 12.7517 16.8969 13.5238 16.2389C18.0674 12.3669 21.069 9.80895 21.069 6.07027C21.069 2.60964 18.663 0 15.4726 0Z" fill="#B72260"/>
</svg>
