<svg width="19" height="16" viewBox="0 0 19 16" fill="none" xmlns="http://www.w3.org/2000/svg">
<path d="M17.3729 8.89892H0.899413C0.402369 8.89892 0 8.49656 0 7.99951C0 7.50247 0.402369 7.1001 0.899413 7.1001H17.3965C17.8936 7.1001 18.296 7.50247 18.296 7.99951C18.296 8.49656 17.8936 8.89892 17.3729 8.89892Z" fill="black"/>
<path d="M17.3729 1.79883H0.899413C0.402369 1.79883 0 1.39646 0 0.899413C0 0.402369 0.402369 0 0.899413 0H17.3965C17.8936 0 18.296 0.402369 18.296 0.899413C18.296 1.39646 17.8936 1.79883 17.3729 1.79883Z" fill="black"/>
<path d="M17.3729 16H0.899413C0.402369 16 0 15.5976 0 15.1006C0 14.6035 0.402369 14.2012 0.899413 14.2012H17.3965C17.8936 14.2012 18.296 14.6035 18.296 15.1006C18.296 15.5976 17.8936 16 17.3729 16Z" fill="black"/>
</svg>
