<svg width="20" height="20" viewBox="0 0 20 20" fill="none" xmlns="http://www.w3.org/2000/svg">
<path d="M19.756 18.5773L14.068 12.8899C15.17 11.5291 15.833 9.7999 15.833 7.9166C15.833 3.5516 12.282 0 7.917 0C3.5516 0 0 3.5516 0 7.9166C0 12.2815 3.5516 15.8332 7.917 15.8332C9.8 15.8332 11.529 15.1699 12.89 14.0682L18.577 19.7556C18.74 19.9181 18.953 19.9998 19.166 19.9998C19.38 19.9998 19.593 19.9181 19.756 19.7556C20.081 19.4298 20.081 18.9031 19.756 18.5773ZM7.917 14.1665C4.47 14.1665 1.6667 11.3632 1.6667 7.9166C1.6667 4.4699 4.47 1.6666 7.917 1.6666C11.363 1.6666 14.167 4.4699 14.167 7.9166C14.167 11.3632 11.363 14.1665 7.917 14.1665Z" fill="black"/>
</svg>
