<svg width="20" height="24" viewBox="0 0 20 24" fill="none" xmlns="http://www.w3.org/2000/svg">
<path d="M10.0002 12.5129C11.444 12.5129 12.8462 11.637 13.9515 10.0618C14.9269 8.67192 15.5102 6.95247 15.5102 5.45994C15.5102 2.42173 13.0384 -0.05 10.0002 -0.05C6.96201 -0.05 4.49028 2.42173 4.49028 5.45994C4.49028 6.95247 5.07356 8.67192 6.04894 10.0618C7.15424 11.637 8.55647 12.5129 10.0002 12.5129ZM10.0002 0.940324C12.4923 0.940324 14.5198 2.96788 14.5198 5.45994C14.5198 6.73342 13.9921 8.27993 13.1409 9.493C12.2313 10.7892 11.085 11.5226 10.0002 11.5226C8.9155 11.5226 7.76917 10.7892 6.85955 9.493C6.00835 8.27993 5.48061 6.73342 5.48061 5.45994C5.48061 2.96788 7.50816 0.940324 10.0002 0.940324Z" fill="black" stroke="black" stroke-width="0.1"/>
<path d="M14.1059 11.4132L14.1059 11.4132L5.89468 11.4132C4.28594 12.179 2.92436 13.3771 1.9572 14.8778C0.963652 16.4195 0.438525 18.2081 0.438525 20.0502V20.0579C0.438525 20.1976 0.497547 20.3308 0.600997 20.4247L0.601009 20.4247C3.17886 22.7625 6.51685 24.0501 9.99992 24.0501C13.483 24.0501 16.8209 22.7625 19.3988 20.4247L19.3988 20.4247C19.5023 20.3308 19.5613 20.1976 19.5613 20.0579V20.0502C19.5614 18.2081 19.0364 16.4195 18.0431 14.8779C17.076 13.3771 15.7146 12.179 14.1059 11.4132ZM14.0844 11.4583L14.0844 11.4583L14.0844 11.4583ZM9.99998 23.0598C6.83724 23.0598 3.80327 21.9174 1.43145 19.8384C1.46991 18.2618 1.93752 16.7366 2.78966 15.4143C3.59575 14.1636 4.70705 13.1474 6.01771 12.4589C7.20924 13.5459 8.57942 14.1203 9.99998 14.1203C11.4203 14.1203 12.7907 13.5458 13.9828 12.4588C15.2934 13.1472 16.4047 14.1635 17.2106 15.4143C18.0626 16.7364 18.5301 18.2616 18.5685 19.8383C16.1967 21.9173 13.1627 23.0598 9.99998 23.0598Z" fill="black" stroke="black" stroke-width="0.1"/>
</svg>
