<svg width="43" height="33" viewBox="0 0 43 33" fill="none" xmlns="http://www.w3.org/2000/svg">
<path d="M42.5074 8.64141L35.1842 0.354927C35.0248 0.174529 34.7956 0.071228 34.5549 0.071228H8.44512C8.20442 0.071228 7.97523 0.174529 7.81583 0.354927L0.492559 8.64141C0.273864 8.88892 0.220533 9.24157 0.356252 9.54274C0.407399 9.65628 0.481977 9.75438 0.57268 9.83273C0.574444 9.83467 0.575787 9.83685 0.577551 9.83886L20.8717 32.7175C21.0311 32.8972 21.2598 33 21.5 33C21.7402 33 21.9689 32.8971 22.1283 32.7175L42.4224 9.83886C42.4242 9.83693 42.4256 9.83475 42.4273 9.83273C42.5179 9.75438 42.5925 9.6562 42.6437 9.54274C42.7794 9.24157 42.7261 8.88892 42.5074 8.64141ZM33.0657 1.75083L29.3334 7.76781L23.352 1.75083H33.0657ZM27.5514 8.35772H15.4486L21.5 2.27028L27.5514 8.35772ZM19.648 1.75092L13.6666 7.76789L9.93425 1.75092H19.648ZM8.31478 2.32671L12.0559 8.35772H2.98488L8.31478 2.32671ZM2.99899 10.0374H12.9241L19.7802 28.9558L2.99899 10.0374ZM23.2509 28.9207L28.0412 15.9559C28.2019 15.5207 27.9795 15.0377 27.5445 14.877C27.1092 14.7161 26.6263 14.9386 26.4656 15.3737L21.5076 28.7925L14.7107 10.0374H40.001L23.2509 28.9207ZM30.9441 8.35772L34.6852 2.32671L40.0151 8.35772H30.9441Z" fill="#B4867D"/>
</svg>
