<svg width="51" height="45" viewBox="0 0 51 45" fill="none" xmlns="http://www.w3.org/2000/svg">
<path d="M50.9886 12.6273C50.9886 12.6217 50.9892 12.6162 50.9892 12.6107C50.9892 5.90568 45.5538 0.470337 38.8488 0.470337C32.1438 0.470337 26.7085 5.90558 26.7085 12.6107C26.7085 19.3158 32.1444 24.7511 38.8489 24.7511C40.2269 24.7511 41.5459 24.5108 42.7802 24.0876C40.0488 39.7567 27.8298 49.8617 39.1567 41.5451C51.7165 32.3229 51.0026 12.9811 50.9886 12.6273Z" fill="white"/>
<path d="M12.1404 24.751C13.5183 24.751 14.8374 24.5107 16.0722 24.0875C13.3402 39.7566 1.1212 49.8616 12.4481 41.545C25.008 32.3229 24.2942 12.9811 24.28 12.6273C24.28 12.6217 24.2806 12.6162 24.2806 12.6107C24.2806 5.90568 18.8454 0.470337 12.1404 0.470337C5.43525 0.470337 0 5.90558 0 12.6107C0 19.3158 5.43585 24.751 12.1404 24.751Z" fill="white"/>
</svg>
