<svg width="290" height="277" viewBox="0 0 290 277" fill="none" xmlns="http://www.w3.org/2000/svg">
<path d="M114.198 26.1406C112.736 26.1406 111.404 25.8594 110.204 25.2969C109.023 24.7344 108.001 23.975 107.139 23.0187C106.295 22.0437 105.639 20.9562 105.17 19.7562C104.701 18.5374 104.467 17.2905 104.467 16.0155C104.467 14.6843 104.711 13.4186 105.198 12.2186C105.686 10.9998 106.37 9.9217 107.251 8.98419C108.133 8.02793 109.164 7.27792 110.345 6.73417C111.545 6.17166 112.858 5.89041 114.283 5.89041C115.726 5.89041 117.039 6.18104 118.22 6.76229C119.42 7.34355 120.442 8.12168 121.286 9.09669C122.148 10.0717 122.805 11.1686 123.255 12.3874C123.723 13.5874 123.958 14.8155 123.958 16.0718C123.958 17.3843 123.714 18.6499 123.226 19.8687C122.739 21.0687 122.055 22.1468 121.173 23.1031C120.311 24.0406 119.28 24.7812 118.08 25.325C116.898 25.8687 115.604 26.1406 114.198 26.1406ZM108.404 16.0155C108.404 17.178 108.629 18.2655 109.079 19.2781C109.548 20.2906 110.214 21.1156 111.076 21.7531C111.958 22.3906 113.008 22.7093 114.226 22.7093C115.483 22.7093 116.542 22.3812 117.404 21.725C118.267 21.0687 118.923 20.2249 119.373 19.1937C119.823 18.1624 120.048 17.103 120.048 16.0155C120.048 14.853 119.814 13.7655 119.345 12.753C118.876 11.7405 118.201 10.9248 117.32 10.3061C116.458 9.66858 115.426 9.34982 114.226 9.34982C112.97 9.34982 111.911 9.67795 111.048 10.3342C110.186 10.9905 109.529 11.8342 109.079 12.8655C108.629 13.878 108.404 14.928 108.404 16.0155ZM133.376 26.2813C131.763 26.2813 130.376 25.9344 129.213 25.2406C128.069 24.5281 127.188 23.5906 126.569 22.4281C125.951 21.2656 125.641 20.0093 125.641 18.6593C125.641 17.2905 125.951 16.0249 126.569 14.8624C127.207 13.6999 128.098 12.7717 129.241 12.078C130.404 11.3655 131.782 11.0092 133.376 11.0092C134.969 11.0092 136.338 11.3655 137.482 12.078C138.645 12.7717 139.535 13.6999 140.154 14.8624C140.773 16.0249 141.082 17.2905 141.082 18.6593C141.082 20.0093 140.773 21.2656 140.154 22.4281C139.535 23.5906 138.645 24.5281 137.482 25.2406C136.338 25.9344 134.969 26.2813 133.376 26.2813ZM129.523 18.6593C129.523 19.5218 129.691 20.2906 130.029 20.9656C130.366 21.6218 130.826 22.1375 131.407 22.5125C131.988 22.8875 132.644 23.075 133.376 23.075C134.088 23.075 134.735 22.8875 135.316 22.5125C135.898 22.1187 136.357 21.5937 136.694 20.9374C137.051 20.2624 137.229 19.4937 137.229 18.6312C137.229 17.7874 137.051 17.0374 136.694 16.3811C136.357 15.7061 135.898 15.1811 135.316 14.8061C134.735 14.4124 134.088 14.2155 133.376 14.2155C132.644 14.2155 131.988 14.4124 131.407 14.8061C130.826 15.1811 130.366 15.7061 130.029 16.3811C129.691 17.0374 129.523 17.7968 129.523 18.6593ZM152.457 26.2813C151.295 26.2813 150.282 26.0188 149.42 25.4937C148.557 24.9687 147.882 24.275 147.395 23.4125V31.9907H143.626V11.2623H146.917V13.7936C147.46 12.9311 148.163 12.2561 149.026 11.7686C149.907 11.2623 150.901 11.0092 152.007 11.0092C153.338 11.0092 154.52 11.3561 155.551 12.0499C156.582 12.7249 157.398 13.6436 157.998 14.8061C158.598 15.9499 158.898 17.2155 158.898 18.603C158.898 20.0468 158.617 21.35 158.054 22.5125C157.51 23.6562 156.751 24.575 155.776 25.2687C154.82 25.9437 153.713 26.2813 152.457 26.2813ZM151.192 23.075C151.96 23.075 152.626 22.8687 153.188 22.4562C153.77 22.025 154.22 21.4718 154.538 20.7968C154.876 20.1031 155.045 19.3718 155.045 18.603C155.045 17.778 154.867 17.0374 154.51 16.3811C154.154 15.7061 153.667 15.1811 153.048 14.8061C152.448 14.4124 151.754 14.2155 150.967 14.2155C150.254 14.2155 149.542 14.4499 148.829 14.9186C148.117 15.3874 147.638 15.978 147.395 16.6905V20.1499C147.732 20.9749 148.248 21.6687 148.942 22.2312C149.635 22.7937 150.385 23.075 151.192 23.075ZM166.88 26.2813C165.623 26.2813 164.423 26.075 163.279 25.6625C162.136 25.25 161.151 24.6406 160.326 23.8344L161.676 21.3875C162.558 22.1 163.42 22.625 164.264 22.9625C165.108 23.3 165.933 23.4687 166.739 23.4687C167.47 23.4687 168.051 23.3375 168.483 23.075C168.933 22.8125 169.158 22.4187 169.158 21.8937C169.158 21.35 168.886 20.9843 168.342 20.7968C167.798 20.5906 167.039 20.3374 166.064 20.0374C164.976 19.6999 164.067 19.3531 163.336 18.9968C162.604 18.6405 162.051 18.2093 161.676 17.703C161.32 17.1968 161.142 16.5405 161.142 15.7343C161.142 14.2905 161.686 13.1374 162.773 12.2749C163.861 11.4123 165.305 10.9811 167.105 10.9811C168.155 10.9811 169.148 11.1498 170.086 11.4873C171.023 11.8061 171.876 12.3311 172.645 13.0624L171.126 15.453C169.683 14.328 168.286 13.7655 166.936 13.7655C166.336 13.7655 165.801 13.878 165.333 14.103C164.883 14.328 164.658 14.7218 164.658 15.2843C164.658 15.8093 164.873 16.1843 165.305 16.4093C165.755 16.6343 166.43 16.878 167.33 17.1405C168.492 17.4968 169.476 17.8437 170.283 18.1812C171.108 18.5187 171.726 18.9499 172.139 19.4749C172.57 19.9999 172.786 20.7124 172.786 21.6125C172.786 23.075 172.251 24.2187 171.183 25.0437C170.114 25.8687 168.68 26.2813 166.88 26.2813ZM176.08 18.4905V5.83416H179.849V18.4905H176.08ZM176.08 26V21.7531H179.849V26H176.08Z" fill="#9F5025"/>
<path d="M147.17 244.075C196.599 244.075 236.67 204.005 236.67 154.575C236.67 105.146 196.599 65.0754 147.17 65.0754C97.7404 65.0754 57.6699 105.146 57.6699 154.575C57.6699 204.005 97.7404 244.075 147.17 244.075Z" fill="#C1A790" fill-opacity="0.3"/>
<path d="M56.7891 198.811V177.355H14.7411V160.219L62.9811 98.2994H76.0851V160.075H88.7571V177.355H76.0851V198.811H56.7891ZM34.0371 160.075H58.9491V127.531L34.0371 160.075Z" fill="black"/>
<path d="M230.789 198.811V177.355H188.741V160.219L236.981 98.2994H250.085V160.075H262.757V177.355H250.085V198.811H230.789ZM208.037 160.075H232.949V127.531L208.037 160.075Z" fill="black"/>
<path d="M127.62 254.295L126.72 253.855C126.84 253.615 138.25 229.665 133.01 201.495C127.7 172.965 140.61 151.685 140.74 151.475L141.59 152.005C141.46 152.215 128.76 173.185 133.99 201.315C139.3 229.815 127.74 254.055 127.62 254.295Z" fill="white"/>
<path d="M193.73 106.385C202.07 77.8954 189.66 59.3454 169.37 53.4054C149.09 47.4654 128.62 56.3854 120.28 84.8754C112.16 112.605 121.11 139.775 140.3 146.685C138.1 148.025 133.51 151.085 132.5 153.885C132.01 155.545 138.94 157.315 138.94 157.315C138.94 157.315 145.73 159.565 146.22 157.905C146.88 155.005 144.67 149.945 143.54 147.635C163.41 152.155 185.61 134.105 193.73 106.385Z" fill="#9F5025"/>
<path d="M187.62 77.1054C186.29 73.5254 183.13 70.9754 179.1 71.9854C175.7 72.8354 172.64 76.9054 173.98 80.5054C175.88 85.6154 175.74 90.2554 173.58 95.2654C172.06 98.7854 175.01 103.005 178.35 103.985C182.37 105.165 185.55 102.735 187.07 99.2154C190.05 92.2954 190.25 84.1754 187.62 77.1054Z" fill="#C1A790"/>
<path d="M175.28 109.515C169.03 107.685 166.18 117.385 172.44 119.215C178.7 121.045 181.54 111.355 175.28 109.515Z" fill="#C1A790"/>
<path d="M139.004 146.236L138.749 147.203L145.371 148.952L145.627 147.986L139.004 146.236Z" fill="white"/>
<path d="M63.8399 85.0854C66.9714 85.0854 69.5099 82.5468 69.5099 79.4154C69.5099 76.2839 66.9714 73.7454 63.8399 73.7454C60.7085 73.7454 58.1699 76.2839 58.1699 79.4154C58.1699 82.5468 60.7085 85.0854 63.8399 85.0854Z" fill="black"/>
<path d="M189.51 237.075C189.51 240.205 186.97 242.745 183.84 242.745C180.71 242.745 178.17 240.205 178.17 237.075C178.17 233.945 180.71 231.405 183.84 231.405C186.97 231.415 189.51 233.945 189.51 237.075Z" fill="black"/>
<path d="M286.84 151.075C286.84 153.105 285.2 154.745 283.17 154.745C281.15 154.745 279.5 153.105 279.5 151.075C279.5 149.045 281.14 147.405 283.17 147.405C285.2 147.415 286.84 149.055 286.84 151.075Z" fill="black"/>
<path d="M216.51 93.7454C216.51 95.7754 214.87 97.4154 212.84 97.4154C210.81 97.4154 209.17 95.7754 209.17 93.7454C209.17 91.7154 210.81 90.0754 212.84 90.0754C214.86 90.0754 216.51 91.7154 216.51 93.7454Z" fill="black"/>
<path d="M206.05 58.7454C206.05 60.5154 204.61 61.9554 202.84 61.9554C201.07 61.9554 199.63 60.5154 199.63 58.7454C199.63 56.9754 201.07 55.5354 202.84 55.5354C204.61 55.5354 206.05 56.9754 206.05 58.7454Z" fill="black"/>
<path d="M43.84 107.995C44.7126 107.995 45.42 107.288 45.42 106.415C45.42 105.543 44.7126 104.835 43.84 104.835C42.9674 104.835 42.26 105.543 42.26 106.415C42.26 107.288 42.9674 107.995 43.84 107.995Z" fill="black"/>
<path d="M75.0099 220.835C75.0099 222.035 74.0399 223.005 72.8399 223.005C71.6399 223.005 70.6699 222.035 70.6699 220.835C70.6699 219.635 71.6399 218.665 72.8399 218.665C74.0399 218.665 75.0099 219.635 75.0099 220.835Z" fill="black"/>
<path d="M244.34 92.9154C244.34 94.1154 243.37 95.0854 242.17 95.0854C240.97 95.0854 240 94.1154 240 92.9154C240 91.7154 240.97 90.7454 242.17 90.7454C243.37 90.7454 244.34 91.7154 244.34 92.9154Z" fill="black"/>
<path d="M21.34 132.075C21.34 133.275 20.37 134.245 19.17 134.245C17.97 134.245 17 133.275 17 132.075C17 130.875 17.97 129.905 19.17 129.905C20.37 129.915 21.34 130.885 21.34 132.075Z" fill="black"/>
<path d="M104.84 61.7454C104.84 62.9454 103.87 63.9154 102.67 63.9154C101.47 63.9154 100.5 62.9454 100.5 61.7454C100.5 60.5454 101.47 59.5754 102.67 59.5754C103.87 59.5754 104.84 60.5454 104.84 61.7454Z" fill="black"/>
<path d="M4.34 184.415C4.34 185.615 3.37 186.585 2.17 186.585C0.969998 186.585 0 185.615 0 184.415C0 183.215 0.969998 182.245 2.17 182.245C3.37 182.245 4.34 183.215 4.34 184.415Z" fill="black"/>
<path d="M289.67 185.745C289.67 186.945 288.7 187.915 287.5 187.915C286.3 187.915 285.33 186.945 285.33 185.745C285.33 184.545 286.3 183.575 287.5 183.575C288.7 183.575 289.67 184.545 289.67 185.745Z" fill="black"/>
<path d="M84.8401 243.745C86.635 243.745 88.0901 242.29 88.0901 240.495C88.0901 238.7 86.635 237.245 84.8401 237.245C83.0452 237.245 81.5901 238.7 81.5901 240.495C81.5901 242.29 83.0452 243.745 84.8401 243.745Z" fill="black"/>
<path d="M33.84 207.075C33.84 209.095 32.2 210.745 30.17 210.745C28.15 210.745 26.5 209.105 26.5 207.075C26.5 205.045 28.14 203.405 30.17 203.405C32.2 203.415 33.84 205.055 33.84 207.075Z" fill="black"/>
<path d="M227.17 241.075C227.17 243.095 225.53 244.745 223.5 244.745C221.47 244.745 219.83 243.105 219.83 241.075C219.83 239.045 221.47 237.405 223.5 237.405C225.53 237.415 227.17 239.055 227.17 241.075Z" fill="black"/>
<path d="M148.17 276.075C212.787 276.075 265.17 272.494 265.17 268.075C265.17 263.657 212.787 260.075 148.17 260.075C83.5526 260.075 31.1699 263.657 31.1699 268.075C31.1699 272.494 83.5526 276.075 148.17 276.075Z" fill="#C1A790" fill-opacity="0.3"/>
</svg>
