<svg width="28" height="7" viewBox="0 0 28 7" fill="none" xmlns="http://www.w3.org/2000/svg">
<path d="M3.12 6.31494C2.50292 6.31494 1.8997 6.13196 1.38662 5.78913C0.873541 5.4463 0.473643 4.95902 0.237497 4.38891C0.00135203 3.81881 -0.0604346 3.19148 0.0599513 2.58626C0.180337 1.98104 0.477488 1.42511 0.913828 0.988767C1.35017 0.552427 1.9061 0.255276 2.51132 0.134891C3.11654 0.0145049 3.74387 0.0762911 4.31397 0.312437C4.88408 0.548582 5.37136 0.948483 5.71419 1.46156C6.05702 1.97464 6.24 2.57786 6.24 3.19494C6.24 4.02242 5.91129 4.816 5.32617 5.40111C4.74106 5.98623 3.94748 6.31494 3.12 6.31494ZM10.8933 3.19494C10.8933 3.81259 11.0767 4.41633 11.4201 4.9297C11.7635 5.44306 12.2516 5.84295 12.8225 6.0787C13.3933 6.31445 14.0214 6.37545 14.6269 6.25398C15.2325 6.13251 15.7884 5.83403 16.2242 5.39636C16.66 4.95868 16.9561 4.4015 17.075 3.79541C17.1939 3.18931 17.1302 2.56157 16.892 1.9917C16.6538 1.42183 16.2518 0.935483 15.737 0.594262C15.2222 0.25304 14.6176 0.0723019 14 0.0749412C13.1748 0.0784674 12.3847 0.408738 11.8024 0.99347C11.2202 1.5782 10.8933 2.36977 10.8933 3.19494ZM21.76 3.19494C21.76 3.81202 21.943 4.41524 22.2858 4.92832C22.6286 5.4414 23.1159 5.8413 23.686 6.07744C24.2561 6.31359 24.8835 6.37538 25.4887 6.25499C26.0939 6.1346 26.6498 5.83745 27.0862 5.40111C27.5225 4.96477 27.8197 4.40884 27.9401 3.80362C28.0604 3.1984 27.9986 2.57107 27.7625 2.00097C27.5264 1.43086 27.1265 0.943587 26.6134 0.600757C26.1003 0.257926 25.4971 0.0749412 24.88 0.0749412C24.0525 0.0749412 23.2589 0.403654 22.6738 0.988767C22.0887 1.57388 21.76 2.36747 21.76 3.19494Z" fill="black"/>
</svg>
